<?xml version="1.0" encoding="utf-8"?>
<!-- Generator: Adobe Illustrator 23.0.2, SVG Export Plug-In . SVG Version: 6.00 Build 0)  -->
<svg version="1.1" id="Capa_1" xmlns="http://www.w3.org/2000/svg" xmlns:xlink="http://www.w3.org/1999/xlink" x="0px" y="0px"
	 viewBox="0 0 92.02 94.19" style="enable-background:new 0 0 92.02 94.19;" xml:space="preserve">
<style type="text/css">
	.st0{fill:none;stroke:url(#SVGID_1_);stroke-width:1.5103;stroke-miterlimit:10;}
	.st1{clip-path:url(#SVGID_3_);fill:url(#SVGID_4_);}
	.st2{clip-path:url(#SVGID_6_);fill:url(#SVGID_7_);}
	.st3{clip-path:url(#SVGID_9_);fill:url(#SVGID_10_);}
	.st4{clip-path:url(#SVGID_12_);fill:url(#SVGID_13_);}
	.st5{clip-path:url(#SVGID_15_);fill:url(#SVGID_16_);}
	.st6{clip-path:url(#SVGID_18_);fill:url(#SVGID_19_);}
</style>
<g>
	<linearGradient id="SVGID_1_" gradientUnits="userSpaceOnUse" x1="2.234" y1="47.7181" x2="89.3305" y2="47.7181">
		<stop  offset="0" style="stop-color:#B24D3F"/>
		<stop  offset="0.0829" style="stop-color:#B5593D"/>
		<stop  offset="0.2366" style="stop-color:#BF7330"/>
		<stop  offset="0.3033" style="stop-color:#C47E24"/>
		<stop  offset="0.3373" style="stop-color:#BF7935"/>
		<stop  offset="0.4039" style="stop-color:#B26C4F"/>
		<stop  offset="0.4955" style="stop-color:#9D5568"/>
		<stop  offset="0.5768" style="stop-color:#8A3978"/>
		<stop  offset="0.6545" style="stop-color:#79457E"/>
		<stop  offset="0.7568" style="stop-color:#644E84"/>
		<stop  offset="0.8517" style="stop-color:#525288"/>
		<stop  offset="0.9357" style="stop-color:#44538B"/>
		<stop  offset="1" style="stop-color:#3E538B"/>
	</linearGradient>
	<circle class="st0" cx="45.78" cy="47.72" r="42.79"/>
	<g>
		<g>
			<defs>
				<path id="SVGID_2_" d="M26.86,55.81l-2.05-2.05c-2.01-2.01-3.28-4.67-3.57-7.5c-0.05-0.46-0.46-0.8-0.92-0.75
					c-0.46,0.05-0.8,0.46-0.75,0.92c0.34,3.21,1.78,6.23,4.06,8.51L25.67,57c0.16,0.16,0.38,0.25,0.59,0.25s0.43-0.08,0.59-0.25
					C27.19,56.67,27.19,56.14,26.86,55.81z"/>
			</defs>
			<clipPath id="SVGID_3_">
				<use xlink:href="#SVGID_2_"  style="overflow:visible;"/>
			</clipPath>
			
				<linearGradient id="SVGID_4_" gradientUnits="userSpaceOnUse" x1="1085.9567" y1="-543.983" x2="1173.3667" y2="-543.983" gradientTransform="matrix(-1 0 0 -1 1175.6508 -495.983)">
				<stop  offset="0" style="stop-color:#3E538B"/>
				<stop  offset="0.0643" style="stop-color:#44538B"/>
				<stop  offset="0.1483" style="stop-color:#525288"/>
				<stop  offset="0.2432" style="stop-color:#644E84"/>
				<stop  offset="0.3455" style="stop-color:#79457E"/>
				<stop  offset="0.4232" style="stop-color:#8A3978"/>
				<stop  offset="0.5045" style="stop-color:#9D5568"/>
				<stop  offset="0.5961" style="stop-color:#B26C4F"/>
				<stop  offset="0.6627" style="stop-color:#BF7935"/>
				<stop  offset="0.6967" style="stop-color:#C47E24"/>
				<stop  offset="0.7634" style="stop-color:#BF7330"/>
				<stop  offset="0.9171" style="stop-color:#B5593D"/>
				<stop  offset="1" style="stop-color:#B24D3F"/>
			</linearGradient>
			<path class="st1" d="M15.82,4.29h60.34c7.45,0,13.54,6.09,13.54,13.54v60.34c0,7.45-6.09,13.54-13.54,13.54H15.82
				c-7.45,0-13.54-6.09-13.54-13.54V17.83C2.28,10.39,8.38,4.29,15.82,4.29z"/>
		</g>
		<g>
			<defs>
				<path id="SVGID_5_" d="M54,43c-0.33-0.33-0.86-0.33-1.19,0l-3.57,3.57c-0.33,0.33-0.33,0.86,0,1.19
					C49.4,47.92,49.62,48,49.83,48c0.21,0,0.43-0.08,0.59-0.25L54,44.18C54.32,43.86,54.32,43.32,54,43z"/>
			</defs>
			<clipPath id="SVGID_6_">
				<use xlink:href="#SVGID_5_"  style="overflow:visible;"/>
			</clipPath>
			
				<linearGradient id="SVGID_7_" gradientUnits="userSpaceOnUse" x1="1085.9567" y1="-544.9934" x2="1173.3667" y2="-544.9934" gradientTransform="matrix(-1 0 0 -1 1175.6508 -495.983)">
				<stop  offset="0" style="stop-color:#3E538B"/>
				<stop  offset="0.0643" style="stop-color:#44538B"/>
				<stop  offset="0.1483" style="stop-color:#525288"/>
				<stop  offset="0.2432" style="stop-color:#644E84"/>
				<stop  offset="0.3455" style="stop-color:#79457E"/>
				<stop  offset="0.4232" style="stop-color:#8A3978"/>
				<stop  offset="0.5045" style="stop-color:#9D5568"/>
				<stop  offset="0.5961" style="stop-color:#B26C4F"/>
				<stop  offset="0.6627" style="stop-color:#BF7935"/>
				<stop  offset="0.6967" style="stop-color:#C47E24"/>
				<stop  offset="0.7634" style="stop-color:#BF7330"/>
				<stop  offset="0.9171" style="stop-color:#B5593D"/>
				<stop  offset="1" style="stop-color:#B24D3F"/>
			</linearGradient>
			<path class="st2" d="M15.82,5.31h60.34c7.45,0,13.54,6.09,13.54,13.54v60.34c0,7.45-6.09,13.54-13.54,13.54H15.82
				c-7.45,0-13.54-6.09-13.54-13.54V18.84C2.28,11.4,8.38,5.31,15.82,5.31z"/>
		</g>
		<g>
			<defs>
				<path id="SVGID_8_" d="M56.51,46.49c-0.33-0.33-0.86-0.33-1.19,0l-5.82,5.82c-0.33,0.33-0.33,0.86,0,1.19
					c0.16,0.16,0.38,0.25,0.59,0.25c0.21,0,0.43-0.08,0.59-0.25l5.82-5.82C56.84,47.35,56.84,46.81,56.51,46.49z"/>
			</defs>
			<clipPath id="SVGID_9_">
				<use xlink:href="#SVGID_8_"  style="overflow:visible;"/>
			</clipPath>
			
				<linearGradient id="SVGID_10_" gradientUnits="userSpaceOnUse" x1="1085.9567" y1="-545.9759" x2="1173.3667" y2="-545.9759" gradientTransform="matrix(-1 0 0 -1 1175.6508 -495.983)">
				<stop  offset="0" style="stop-color:#3E538B"/>
				<stop  offset="0.0643" style="stop-color:#44538B"/>
				<stop  offset="0.1483" style="stop-color:#525288"/>
				<stop  offset="0.2432" style="stop-color:#644E84"/>
				<stop  offset="0.3455" style="stop-color:#79457E"/>
				<stop  offset="0.4232" style="stop-color:#8A3978"/>
				<stop  offset="0.5045" style="stop-color:#9D5568"/>
				<stop  offset="0.5961" style="stop-color:#B26C4F"/>
				<stop  offset="0.6627" style="stop-color:#BF7935"/>
				<stop  offset="0.6967" style="stop-color:#C47E24"/>
				<stop  offset="0.7634" style="stop-color:#BF7330"/>
				<stop  offset="0.9171" style="stop-color:#B5593D"/>
				<stop  offset="1" style="stop-color:#B24D3F"/>
			</linearGradient>
			<path class="st3" d="M15.82,6.29h60.34c7.45,0,13.54,6.09,13.54,13.54v60.34c0,7.45-6.09,13.54-13.54,13.54H15.82
				c-7.45,0-13.54-6.09-13.54-13.54V19.82C2.28,12.38,8.38,6.29,15.82,6.29z"/>
		</g>
		<g>
			<defs>
				<path id="SVGID_11_" d="M70.1,39.96c-0.46-0.05-0.87,0.29-0.92,0.75c-0.3,2.83-1.56,5.49-3.57,7.5L55.38,58.43
					c-0.24,0.24-0.56,0.38-0.91,0.38c-0.34,0-0.66-0.13-0.91-0.38c-0.24-0.24-0.38-0.56-0.38-0.91c0-0.34,0.13-0.66,0.38-0.91
					c0,0,0,0,0,0l6.56-6.56c0.33-0.33,0.33-0.86,0-1.19c-0.33-0.33-0.86-0.33-1.19,0l-7.72,7.72c-0.14-0.41-0.38-0.79-0.7-1.11
					l-3.91-3.91l2.01-2.01c0.33-0.33,0.33-0.86,0-1.19c-0.33-0.33-0.86-0.33-1.19,0l-2.01,2.01l-6.43-6.43
					c-0.02-0.02-0.05-0.05-0.02-0.12c0.03-0.07,0.08-0.07,0.1-0.07l3.61-0.01c1.73,0,3.13-1.41,3.12-3.13
					c0-1.72-1.41-3.12-3.13-3.12c0,0,0,0,0,0l-14.05,0.01c-0.46,0-0.84,0.38-0.84,0.84c0,0.46,0.38,0.84,0.84,0.84c0,0,0,0,0,0
					l14.05-0.01c0,0,0,0,0,0c0.8,0,1.45,0.65,1.45,1.45c0,0.8-0.65,1.45-1.45,1.45l-3.61,0.01c-0.72,0-1.37,0.43-1.65,1.1
					c-0.28,0.67-0.12,1.43,0.39,1.94l11.52,11.52c0.5,0.5,0.5,1.31,0,1.81l0,0c0,0,0,0,0,0c-0.24,0.24-0.56,0.37-0.9,0.37
					c-0.34,0-0.66-0.13-0.91-0.38l-9.92-9.92c-0.33-0.33-0.86-0.33-1.19,0c-0.33,0.33-0.33,0.86,0,1.19l11.81,11.81
					c0.5,0.5,0.5,1.31,0,1.81c-0.24,0.24-0.56,0.38-0.91,0.38c-0.34,0-0.66-0.13-0.91-0.38L35.1,52.04c-0.33-0.33-0.86-0.33-1.19,0
					c-0.33,0.33-0.33,0.86,0,1.19l8.98,8.98c0.5,0.5,0.5,1.31,0,1.81c-0.5,0.5-1.31,0.5-1.81,0l-9.61-9.61
					c-0.33-0.33-0.86-0.33-1.19,0c-0.33,0.33-0.33,0.86,0,1.19l6.57,6.57c0.5,0.5,0.5,1.31,0,1.81c-0.24,0.24-0.56,0.38-0.91,0.38
					c-0.34,0-0.67-0.13-0.91-0.38l-6.07-6.07c-0.33-0.33-0.86-0.33-1.19,0c-0.33,0.33-0.33,0.86,0,1.19l6.07,6.07
					c0.56,0.56,1.3,0.87,2.09,0.87c0.79,0,1.54-0.31,2.09-0.87c0.32-0.32,0.56-0.71,0.7-1.11l1.15,1.15
					c0.58,0.58,1.34,0.87,2.09,0.87c0.76,0,1.52-0.29,2.09-0.87c0.32-0.32,0.56-0.71,0.7-1.11l0.45,0.45
					c0.56,0.56,1.3,0.87,2.09,0.87c0.79,0,1.54-0.31,2.09-0.87c1.15-1.15,1.15-3.03,0-4.19l0,0c0.41-0.14,0.79-0.38,1.11-0.7
					c0,0,0.01-0.01,0.01-0.01l1.14-1.14c0.14,0.41,0.38,0.79,0.7,1.11c0.56,0.56,1.3,0.87,2.09,0.87c0.79,0,1.54-0.31,2.09-0.87
					L66.8,49.39c2.28-2.28,3.72-5.3,4.06-8.51C70.9,40.42,70.57,40.01,70.1,39.96z"/>
			</defs>
			<clipPath id="SVGID_12_">
				<use xlink:href="#SVGID_11_"  style="overflow:visible;"/>
			</clipPath>
			
				<linearGradient id="SVGID_13_" gradientUnits="userSpaceOnUse" x1="1085.9567" y1="-543.983" x2="1173.3667" y2="-543.983" gradientTransform="matrix(-1 0 0 -1 1175.6508 -495.983)">
				<stop  offset="0" style="stop-color:#3E538B"/>
				<stop  offset="0.0643" style="stop-color:#44538B"/>
				<stop  offset="0.1483" style="stop-color:#525288"/>
				<stop  offset="0.2432" style="stop-color:#644E84"/>
				<stop  offset="0.3455" style="stop-color:#79457E"/>
				<stop  offset="0.4232" style="stop-color:#8A3978"/>
				<stop  offset="0.5045" style="stop-color:#9D5568"/>
				<stop  offset="0.5961" style="stop-color:#B26C4F"/>
				<stop  offset="0.6627" style="stop-color:#BF7935"/>
				<stop  offset="0.6967" style="stop-color:#C47E24"/>
				<stop  offset="0.7634" style="stop-color:#BF7330"/>
				<stop  offset="0.9171" style="stop-color:#B5593D"/>
				<stop  offset="1" style="stop-color:#B24D3F"/>
			</linearGradient>
			<path class="st4" d="M15.82,4.29h60.34c7.45,0,13.54,6.09,13.54,13.54v60.34c0,7.45-6.09,13.54-13.54,13.54H15.82
				c-7.45,0-13.54-6.09-13.54-13.54V17.83C2.28,10.39,8.38,4.29,15.82,4.29z"/>
		</g>
		<g>
			<defs>
				<path id="SVGID_14_" d="M64.63,41.7c-0.17-0.43-0.65-0.65-1.09-0.48c-1.3,0.5-2.7,0.6-4.04,0.29c-0.45-0.1-0.9,0.18-1.01,0.63
					c-0.1,0.45,0.18,0.9,0.63,1.01c0.64,0.15,1.28,0.22,1.92,0.22c1.05,0,2.1-0.19,3.1-0.58C64.58,42.62,64.8,42.13,64.63,41.7z"/>
			</defs>
			<clipPath id="SVGID_15_">
				<use xlink:href="#SVGID_14_"  style="overflow:visible;"/>
			</clipPath>
			
				<linearGradient id="SVGID_16_" gradientUnits="userSpaceOnUse" x1="1085.9567" y1="-544.9934" x2="1173.3667" y2="-544.9934" gradientTransform="matrix(-1 0 0 -1 1175.6508 -495.983)">
				<stop  offset="0" style="stop-color:#3E538B"/>
				<stop  offset="0.0643" style="stop-color:#44538B"/>
				<stop  offset="0.1483" style="stop-color:#525288"/>
				<stop  offset="0.2432" style="stop-color:#644E84"/>
				<stop  offset="0.3455" style="stop-color:#79457E"/>
				<stop  offset="0.4232" style="stop-color:#8A3978"/>
				<stop  offset="0.5045" style="stop-color:#9D5568"/>
				<stop  offset="0.5961" style="stop-color:#B26C4F"/>
				<stop  offset="0.6627" style="stop-color:#BF7935"/>
				<stop  offset="0.6967" style="stop-color:#C47E24"/>
				<stop  offset="0.7634" style="stop-color:#BF7330"/>
				<stop  offset="0.9171" style="stop-color:#B5593D"/>
				<stop  offset="1" style="stop-color:#B24D3F"/>
			</linearGradient>
			<path class="st5" d="M15.82,5.31h60.34c7.45,0,13.54,6.09,13.54,13.54v60.34c0,7.45-6.09,13.54-13.54,13.54H15.82
				c-7.45,0-13.54-6.09-13.54-13.54V18.84C2.28,11.4,8.38,5.31,15.82,5.31z"/>
		</g>
		<g>
			<defs>
				<path id="SVGID_17_" d="M61.79,31.96l-14.07-0.01c0,0,0,0,0,0c-1.71,0-3.1,1.39-3.1,3.1l0,0.06c0,0.83,0.32,1.61,0.9,2.19
					c0.58,0.59,1.36,0.91,2.19,0.91l3.89,0.01l-7.71,7.71c-0.33,0.33-0.33,0.86,0,1.19c0.16,0.16,0.38,0.25,0.59,0.25
					s0.43-0.08,0.59-0.25l8.29-8.29c0.73,1.3,1.78,2.38,3.08,3.16c0.13,0.08,0.28,0.12,0.43,0.12c0.29,0,0.56-0.15,0.72-0.41
					c0.24-0.4,0.11-0.91-0.29-1.15c-1.34-0.8-2.35-2-2.91-3.46c0,0,0,0,0,0c-0.12-0.31-0.42-0.53-0.78-0.53l-5.91-0.01
					c-0.38,0-0.74-0.15-1-0.42c-0.27-0.27-0.42-0.63-0.41-1.01l0-0.06c0-0.78,0.64-1.42,1.42-1.42c0,0,0,0,0,0l14.07,0.01
					c0,0,0,0,0,0c0.46,0,0.84-0.38,0.84-0.84C62.62,32.33,62.25,31.96,61.79,31.96z"/>
			</defs>
			<clipPath id="SVGID_18_">
				<use xlink:href="#SVGID_17_"  style="overflow:visible;"/>
			</clipPath>
			
				<linearGradient id="SVGID_19_" gradientUnits="userSpaceOnUse" x1="1087.6539" y1="-544.6495" x2="1175.064" y2="-544.6495" gradientTransform="matrix(-1 0 0 -1 1175.6508 -495.983)">
				<stop  offset="0" style="stop-color:#3E538B"/>
				<stop  offset="0.0643" style="stop-color:#44538B"/>
				<stop  offset="0.1483" style="stop-color:#525288"/>
				<stop  offset="0.2432" style="stop-color:#644E84"/>
				<stop  offset="0.3455" style="stop-color:#79457E"/>
				<stop  offset="0.4232" style="stop-color:#8A3978"/>
				<stop  offset="0.5045" style="stop-color:#9D5568"/>
				<stop  offset="0.5961" style="stop-color:#B26C4F"/>
				<stop  offset="0.6627" style="stop-color:#BF7935"/>
				<stop  offset="0.6967" style="stop-color:#C47E24"/>
				<stop  offset="0.7634" style="stop-color:#BF7330"/>
				<stop  offset="0.9171" style="stop-color:#B5593D"/>
				<stop  offset="1" style="stop-color:#B24D3F"/>
			</linearGradient>
			<path class="st6" d="M14.12,4.96h60.34C81.91,4.96,88,11.05,88,18.5v60.34c0,7.45-6.09,13.54-13.54,13.54H14.12
				c-7.45,0-13.54-6.09-13.54-13.54V18.5C0.59,11.05,6.68,4.96,14.12,4.96z"/>
		</g>
	</g>
</g>
</svg>
