<svg xmlns="http://www.w3.org/2000/svg" width="86" height="88" viewBox="0 0 86 88">
    <defs>
        <linearGradient id="a" x1="6123.71%" x2="-1375.02%" y1="-4656.45%" y2="1153.52%">
            <stop offset="0%" stop-color="#3E538B"/>
            <stop offset="14.2%" stop-color="#604F85"/>
            <stop offset="37.24%" stop-color="#8A3978"/>
            <stop offset="41.43%" stop-color="#924373"/>
            <stop offset="54.77%" stop-color="#AF5E60"/>
            <stop offset="64.45%" stop-color="#C06D4E"/>
            <stop offset="69.41%" stop-color="#C67246"/>
            <stop offset="87.83%" stop-color="#BA5B40"/>
            <stop offset="100%" stop-color="#B54F3D"/>
        </linearGradient>
        <linearGradient id="b" x1="6123.88%" x2="-2139.47%" y1="-4655.95%" y2="1746.44%">
            <stop offset="0%" stop-color="#3E538B"/>
            <stop offset="14.2%" stop-color="#604F85"/>
            <stop offset="37.24%" stop-color="#8A3978"/>
            <stop offset="41.43%" stop-color="#924373"/>
            <stop offset="54.77%" stop-color="#AF5E60"/>
            <stop offset="64.45%" stop-color="#C06D4E"/>
            <stop offset="69.41%" stop-color="#C67246"/>
            <stop offset="87.83%" stop-color="#BA5B40"/>
            <stop offset="100%" stop-color="#B54F3D"/>
        </linearGradient>
        <linearGradient id="c" x1="6098.22%" x2="-2165.14%" y1="-4637.12%" y2="1765.27%">
            <stop offset="0%" stop-color="#3E538B"/>
            <stop offset="14.2%" stop-color="#604F85"/>
            <stop offset="37.24%" stop-color="#8A3978"/>
            <stop offset="41.43%" stop-color="#924373"/>
            <stop offset="54.77%" stop-color="#AF5E60"/>
            <stop offset="64.45%" stop-color="#C06D4E"/>
            <stop offset="69.41%" stop-color="#C67246"/>
            <stop offset="87.83%" stop-color="#BA5B40"/>
            <stop offset="100%" stop-color="#B54F3D"/>
        </linearGradient>
        <linearGradient id="d" x1="2200.34%" x2="-6063.02%" y1="-1616.27%" y2="4786.13%">
            <stop offset="0%" stop-color="#3E538B"/>
            <stop offset="14.2%" stop-color="#604F85"/>
            <stop offset="37.24%" stop-color="#8A3978"/>
            <stop offset="41.43%" stop-color="#924373"/>
            <stop offset="54.77%" stop-color="#AF5E60"/>
            <stop offset="64.45%" stop-color="#C06D4E"/>
            <stop offset="69.41%" stop-color="#C67246"/>
            <stop offset="87.83%" stop-color="#BA5B40"/>
            <stop offset="100%" stop-color="#B54F3D"/>
        </linearGradient>
        <linearGradient id="e" x1="2216.598%" x2="-6046.762%" y1="-1628.61%" y2="4773.79%">
            <stop offset="0%" stop-color="#3E538B"/>
            <stop offset="14.2%" stop-color="#604F85"/>
            <stop offset="37.24%" stop-color="#8A3978"/>
            <stop offset="41.43%" stop-color="#924373"/>
            <stop offset="54.77%" stop-color="#AF5E60"/>
            <stop offset="64.45%" stop-color="#C06D4E"/>
            <stop offset="69.41%" stop-color="#C67246"/>
            <stop offset="87.83%" stop-color="#BA5B40"/>
            <stop offset="100%" stop-color="#B54F3D"/>
        </linearGradient>
        <linearGradient id="f" x1="5697.71%" x2="-2565.65%" y1="-4325.69%" y2="2076.71%">
            <stop offset="0%" stop-color="#3E538B"/>
            <stop offset="14.2%" stop-color="#604F85"/>
            <stop offset="37.24%" stop-color="#8A3978"/>
            <stop offset="41.43%" stop-color="#924373"/>
            <stop offset="54.77%" stop-color="#AF5E60"/>
            <stop offset="64.45%" stop-color="#C06D4E"/>
            <stop offset="69.41%" stop-color="#C67246"/>
            <stop offset="87.83%" stop-color="#BA5B40"/>
            <stop offset="100%" stop-color="#B54F3D"/>
        </linearGradient>
        <linearGradient id="g" x1="99.822%" x2="6.347%" y1="9.396%" y2="83.066%">
            <stop offset="0%" stop-color="#3E538B"/>
            <stop offset="14.2%" stop-color="#604F85"/>
            <stop offset="37.24%" stop-color="#8A3978"/>
            <stop offset="41.43%" stop-color="#924373"/>
            <stop offset="54.77%" stop-color="#AF5E60"/>
            <stop offset="64.45%" stop-color="#C06D4E"/>
            <stop offset="69.41%" stop-color="#C67246"/>
            <stop offset="87.83%" stop-color="#BA5B40"/>
            <stop offset="100%" stop-color="#B54F3D"/>
        </linearGradient>
        <linearGradient id="h" x1="2210.07%" x2="-6053.29%" y1="-1623.29%" y2="4779.1%">
            <stop offset="0%" stop-color="#3E538B"/>
            <stop offset="14.2%" stop-color="#604F85"/>
            <stop offset="37.24%" stop-color="#8A3978"/>
            <stop offset="41.43%" stop-color="#924373"/>
            <stop offset="54.77%" stop-color="#AF5E60"/>
            <stop offset="64.45%" stop-color="#C06D4E"/>
            <stop offset="69.41%" stop-color="#C67246"/>
            <stop offset="87.83%" stop-color="#BA5B40"/>
            <stop offset="100%" stop-color="#B54F3D"/>
        </linearGradient>
    </defs>
    <g fill="none" fill-rule="nonzero">
        <path fill="url(#a)" d="M1.16 1.29c-.01-.01-.02-.02-.02-.03h.01c0 .01.01.02.01.03z" transform="translate(23 58)"/>
        <path fill="url(#b)" d="M1.41 1.59c-.05-.03-.1-.06-.16-.09-.04-.07-.07-.15-.1-.21.07.11.14.22.26.3z" transform="translate(23 58)"/>
        <path fill="url(#c)" d="M2 1.73c-.04.02-.07.02-.11.02-.02 0-.04 0-.06-.01.06 0 .12 0 .17-.01z" transform="translate(23 58)"/>
        <g>
            <path fill="url(#a)" d="M1.16 37.29c-.01-.01-.02-.02-.02-.03h.01c0 .01.01.02.01.03z" transform="translate(23 22)"/>
            <path fill="url(#b)" d="M1.41 37.59c-.05-.03-.1-.06-.16-.09-.04-.07-.07-.15-.1-.21.07.11.14.22.26.3z" transform="translate(23 22)"/>
            <path fill="url(#c)" d="M2 37.73c-.04.02-.07.02-.11.02-.02 0-.04 0-.06-.01.06 0 .12 0 .17-.01z" transform="translate(23 22)"/>
            <path fill="url(#d)" d="M35.55.62c.01.02.02.03.02.05-.02-.03-.04-.07-.07-.11.02.02.04.04.05.06z" transform="translate(23 22)"/>
            <path fill="url(#e)" d="M35.63 1.27c.04-.12.04-.23.02-.35.03.12.02.25-.02.35z" transform="translate(23 22)"/>
        </g>
        <g>
            <path fill="url(#f)" d="M35.42 58.47c-.08.11-.14.22-.21.33.03-.12.09-.22.18-.31.01-.01.02-.02.03-.02z"/>
            <path fill="url(#g)" d="M85.49 36.83c-1.59-10.8-7.29-20.19-16.02-26.47C55.5.34 42.51.04 34.08 1.54c-9.85 1.77-18.93 7.01-24.3 14.04C.35 27.94-2.1 42.54 3.41 53.67 8.52 64 19.6 69.71 34.61 69.8h.01c.02.02.04.03.06.05.22.18.49.28.78.31h.15c.45 0 .87-.2 1.15-.55 1.37-1.68 2.58-3.49 3.62-5.37.13.13.26.25.39.37 1.98 1.85 3.98 3.69 5.34 4.94l.94.85.41-1.19c4.46-13.03 9.69-29.91 14.73-47.56v-.01c.04-.12.04-.23.02-.35-.01-.05-.02-.09-.03-.13-.02-.05-.03-.09-.06-.13-.02-.03-.04-.07-.07-.11a.578.578 0 0 0-.21-.2c-.03-.02-.06-.04-.09-.05 0 0 0-.01-.01-.01-.05-.02-.1-.04-.15-.05a.78.78 0 0 0-.43 0 .45.45 0 0 0-.18.07c-.02 0-.03.01-.05.02C55.55 24 17.1 45.54 13.58 47.38l-1.23.64 1.14.78c1.79 1.21 10.77 7.09 14.29 9.05-.04-.07-.07-.15-.1-.21-.01-.01-.02-.02-.02-.03h.01c0 .01.01.02.01.03.06.12.14.22.25.3-.05-.03-.1-.06-.16-.09 1.01 2.16 2.36 4.45 3.67 6.64.7 1.19 1.43 2.4 2.1 3.6-13.83-.32-23.99-5.69-28.69-15.18-5.18-10.54-2.8-24.47 6.25-36.32 15.51-20.3 43.42-14.91 57.4-4.88 8.36 6.01 13.81 15.02 15.35 25.36 1.65 11.13-1.41 22.42-8.6 31.8-7.17 9.34-22.73 23.63-46.48 14.32l-.62 1.55c5.22 2.04 10.39 3.04 15.42 3.04 12.43 0 23.97-6.14 33-17.91 7.46-9.72 10.63-21.46 8.92-33.04zM35.85 68.11c-.19-2.56-.1-6.38.4-7.71.85.79 1.85 1.71 2.89 2.68-.95 1.75-2.06 3.44-3.29 5.03zm10.46-.64c-1.26-1.17-2.83-2.63-4.41-4.08-1.75-1.62-3.49-3.24-4.82-4.46.14-.23.28-.46.44-.68 1.99-2.81 4.06-5.63 6.24-8.62 5.16-7.03 10.45-14.27 14.87-21.6-4.24 14.57-8.54 28.32-12.32 39.44zM15.61 48.2c5.91-3.22 28.04-15.61 39.65-22.25-5.17 5.02-10.1 10.53-14.91 15.9-1.67 1.86-3.32 3.7-4.95 5.49-2.59 2.83-5.29 6.15-7.18 8.84-3.18-1.82-9.7-6.05-12.61-7.98zm17.32 15.46c-1.24-2.1-2.53-4.27-3.5-6.3 1.86-2.66 4.57-6.03 7.18-8.89 1.64-1.8 3.3-3.64 4.96-5.5 5.37-6 10.92-12.18 16.74-17.63-4.58 7.88-10.32 15.72-15.88 23.31-2.19 2.99-4.25 5.81-6.25 8.64-.28.39-.53.79-.76 1.19-.08.11-.14.22-.21.33 0 0 0 .01-.01.01-.1.17-.2.34-.29.51-.65 1.14-.83 3.93-.8 6.35-.39-.68-.79-1.36-1.18-2.02z"/>
            <path fill="url(#h)" d="M61.77 20.67a.88.88 0 0 0-.15-.05h.02c.05.01.09.03.13.05z"/>
        </g>
    </g>
</svg>
