<svg xmlns="http://www.w3.org/2000/svg" width="86" height="88" viewBox="0 0 86 88">
    <defs>
        <linearGradient id="a" x1="105.072%" x2="3.141%" y1="-.534%" y2="92.86%">
            <stop offset="0%" stop-color="#3E538B"/>
            <stop offset="14.2%" stop-color="#604F85"/>
            <stop offset="37.24%" stop-color="#8A3978"/>
            <stop offset="41.43%" stop-color="#924373"/>
            <stop offset="54.77%" stop-color="#AF5E60"/>
            <stop offset="64.45%" stop-color="#C06D4E"/>
            <stop offset="69.41%" stop-color="#C67246"/>
            <stop offset="87.83%" stop-color="#BA5B40"/>
            <stop offset="100%" stop-color="#B54F3D"/>
        </linearGradient>
        <linearGradient id="b" x1="355.599%" x2="-214.702%" y1="16.193%" y2="79.236%">
            <stop offset="0%" stop-color="#3E538B"/>
            <stop offset="14.2%" stop-color="#604F85"/>
            <stop offset="37.24%" stop-color="#8A3978"/>
            <stop offset="41.43%" stop-color="#924373"/>
            <stop offset="54.77%" stop-color="#AF5E60"/>
            <stop offset="64.45%" stop-color="#C06D4E"/>
            <stop offset="69.41%" stop-color="#C67246"/>
            <stop offset="87.83%" stop-color="#BA5B40"/>
            <stop offset="100%" stop-color="#B54F3D"/>
        </linearGradient>
        <linearGradient id="c" x1="367.222%" x2="-203.078%" y1="14.908%" y2="77.952%">
            <stop offset="0%" stop-color="#3E538B"/>
            <stop offset="14.2%" stop-color="#604F85"/>
            <stop offset="37.24%" stop-color="#8A3978"/>
            <stop offset="41.43%" stop-color="#924373"/>
            <stop offset="54.77%" stop-color="#AF5E60"/>
            <stop offset="64.45%" stop-color="#C06D4E"/>
            <stop offset="69.41%" stop-color="#C67246"/>
            <stop offset="87.83%" stop-color="#BA5B40"/>
            <stop offset="100%" stop-color="#B54F3D"/>
        </linearGradient>
        <linearGradient id="d" x1="378.844%" x2="-191.456%" y1="13.624%" y2="76.667%">
            <stop offset="0%" stop-color="#3E538B"/>
            <stop offset="14.2%" stop-color="#604F85"/>
            <stop offset="37.24%" stop-color="#8A3978"/>
            <stop offset="41.43%" stop-color="#924373"/>
            <stop offset="54.77%" stop-color="#AF5E60"/>
            <stop offset="64.45%" stop-color="#C06D4E"/>
            <stop offset="69.41%" stop-color="#C67246"/>
            <stop offset="87.83%" stop-color="#BA5B40"/>
            <stop offset="100%" stop-color="#B54F3D"/>
        </linearGradient>
        <linearGradient id="e" x1="390.405%" x2="-179.756%" y1="12.282%" y2="75.426%">
            <stop offset="0%" stop-color="#3E538B"/>
            <stop offset="14.2%" stop-color="#604F85"/>
            <stop offset="37.24%" stop-color="#8A3978"/>
            <stop offset="41.43%" stop-color="#924373"/>
            <stop offset="54.77%" stop-color="#AF5E60"/>
            <stop offset="64.45%" stop-color="#C06D4E"/>
            <stop offset="69.41%" stop-color="#C67246"/>
            <stop offset="87.83%" stop-color="#BA5B40"/>
            <stop offset="100%" stop-color="#B54F3D"/>
        </linearGradient>
        <linearGradient id="f" x1="402.024%" x2="-168.137%" y1="10.996%" y2="74.14%">
            <stop offset="0%" stop-color="#3E538B"/>
            <stop offset="14.2%" stop-color="#604F85"/>
            <stop offset="37.24%" stop-color="#8A3978"/>
            <stop offset="41.43%" stop-color="#924373"/>
            <stop offset="54.77%" stop-color="#AF5E60"/>
            <stop offset="64.45%" stop-color="#C06D4E"/>
            <stop offset="69.41%" stop-color="#C67246"/>
            <stop offset="87.83%" stop-color="#BA5B40"/>
            <stop offset="100%" stop-color="#B54F3D"/>
        </linearGradient>
        <linearGradient id="g" x1="171.087%" x2="-109.286%" y1="-138.261%" y2="296.676%">
            <stop offset="0%" stop-color="#3E538B"/>
            <stop offset="14.2%" stop-color="#604F85"/>
            <stop offset="37.24%" stop-color="#8A3978"/>
            <stop offset="41.43%" stop-color="#924373"/>
            <stop offset="54.77%" stop-color="#AF5E60"/>
            <stop offset="64.45%" stop-color="#C06D4E"/>
            <stop offset="69.41%" stop-color="#C67246"/>
            <stop offset="87.83%" stop-color="#BA5B40"/>
            <stop offset="100%" stop-color="#B54F3D"/>
        </linearGradient>
    </defs>
    <g fill="none" fill-rule="nonzero">
        <path fill="url(#a)" d="M42.27 85.67C21.29 85.67 6.15 74.89.73 56.08l1.82-.52c7.08 24.55 27.92 28.22 39.72 28.22 11.24 0 21.47-4.17 28.81-11.75 7.34-7.57 11.19-17.75 10.85-28.65-.49-15.91-11.32-41.12-38.24-41.12h-.09c-12.86.03-25.29 5.43-32.45 14.11-5.37 6.52-7.4 14.18-5.87 22.17 1.4 7.3 5.84 13.8 12.49 18.29.28.19.56.38.82.57-.03-14.17.35-34.26.46-39.86l.02-.93h47.35l.26 45.89c.01.79-.46 1.49-1.19 1.8-.73.3-1.56.14-2.11-.42l-2.55-2.56a.303.303 0 0 0-.22-.09c.01.01-.14.01-.22.09l-2.85 2.85a2.997 2.997 0 0 1-4.03.21l-2.9-2.36a.19.19 0 0 0-.27.02l-1.98 2.03a2.953 2.953 0 0 1-4.14.11l-2.54-2.34a.41.41 0 0 0-.58.02l-2.29 2.39a2.866 2.866 0 0 1-3.96.18l-2.65-2.3a.484.484 0 0 0-.37-.12c-.08.01-.22.04-.34.18l-1.83 2.25c-.34.41-.83.66-1.36.67-.53.02-1.04-.21-1.4-.6l-3.28-3.65L25 59.59l3.22 3.58L30 60.99c.41-.51 1-.82 1.65-.87.65-.06 1.28.15 1.77.58l2.65 2.3c.4.34.99.32 1.35-.06l2.29-2.39c.86-.9 2.31-.95 3.24-.1l2.54 2.34c.43.4 1.09.38 1.5-.04l1.99-2.03c.76-.78 1.98-.85 2.82-.16l2.9 2.36c.45.36 1.09.33 1.5-.08l2.86-2.85c.42-.42.97-.65 1.56-.65.59 0 1.15.23 1.56.65l2.55 2.56-.19-44.04h-43.6c-.25 12.7-.47 29.22-.44 40.38 2.35 2.03 3.72 4.06 4.08 6.05.79 4.33-.89 7.68-2.9 8.3-1.06.33-2.05-.16-2.53-1.25-.34-.76-.49-5.63-.53-12.2-.58-.46-1.21-.92-1.89-1.39-7.08-4.78-11.8-11.71-13.3-19.51-1.64-8.56.53-16.77 6.27-23.73C17.32 5.92 30 .38 43.61.36h.06c15.03 0 39.19 11.65 40.17 42.96.36 11.42-3.68 22.08-11.38 30.02-7.72 7.95-18.44 12.33-30.19 12.33zM20.51 61.52c.04 5.36.15 9.04.38 9.74.06.13.13.19.14.19.02.01.2-.01.47-.25.95-.83 1.74-3.03 1.21-5.91-.21-1.19-.96-2.47-2.2-3.77z" transform="translate(1 1)"/>
        <path fill="url(#b)" d="M29.38 31.71c-4.2 0-4.36-.05-4.48-.09-.5-.17-.76-.7-.6-1.2a.93.93 0 0 1 1.06-.63c.77.06 8.7.02 13.58-.01h.01c.52 0 .94.42.95.94 0 .52-.42.95-.94.95-4.49.03-7.52.04-9.58.04z" transform="translate(1 1)"/>
        <path fill="url(#c)" d="M29.38 35.37c-4.2 0-4.36-.05-4.48-.09-.5-.17-.76-.7-.6-1.2a.93.93 0 0 1 1.06-.63c.77.06 8.7.02 13.58-.01h.01c.52 0 .94.42.95.94 0 .52-.42.95-.94.95-4.49.03-7.52.04-9.58.04z" transform="translate(1 1)"/>
        <path fill="url(#d)" d="M29.38 39.03c-4.2 0-4.36-.05-4.48-.09-.5-.17-.76-.7-.6-1.2a.93.93 0 0 1 1.06-.63c.77.06 8.7.02 13.58-.01h.01c.52 0 .94.42.95.94 0 .52-.42.95-.94.95-4.49.03-7.52.04-9.58.04z" transform="translate(1 1)"/>
        <path fill="url(#e)" d="M29.37 42.69c-4.19 0-4.35-.05-4.47-.09a.94.94 0 0 1-.6-1.2c.15-.45.61-.71 1.06-.64.77.06 8.7.02 13.58-.01h.01c.52 0 .94.42.95.94 0 .52-.42.95-.94.95-4.49.04-7.53.05-9.59.05z" transform="translate(1 1)"/>
        <path fill="url(#f)" d="M29.37 46.35c-4.19 0-4.35-.05-4.47-.09a.94.94 0 0 1-.6-1.2c.15-.45.61-.71 1.06-.64.77.06 8.7.02 13.58-.01h.01c.52 0 .94.42.95.94 0 .52-.42.95-.94.95-4.49.04-7.53.05-9.59.05z" transform="translate(1 1)"/>
        <path fill="url(#g)" d="M55.35 46.51c-.16 0-.33-.01-.5-.03-2.06-.21-3.66-1.53-4.64-2.59a.949.949 0 0 1 1.4-1.28c.76.82 1.97 1.84 3.44 1.99 1.09.11 2.46-.43 2.84-1.53.36-1.04-.23-2.29-.99-3.06s-1.74-1.33-2.77-1.91l-.7-.4c-1.33-.77-2.79-1.77-3.59-3.35-.83-1.63-.7-4.03.96-5.22 1.35-.98 3.2-1.22 4.6-.59 1.4.62 2.2 1.65 3.1 3.2a.94.94 0 0 1-.35 1.29.94.94 0 0 1-1.29-.35c-.84-1.45-1.38-2.04-2.23-2.42-.79-.35-1.91-.19-2.72.4-.79.57-.84 1.92-.38 2.82.58 1.14 1.77 1.94 2.85 2.57l.67.38c1.11.62 2.25 1.27 3.2 2.24 1.42 1.45 1.98 3.42 1.42 5.01-.58 1.68-2.39 2.83-4.32 2.83z" transform="translate(1 1)"/>
    </g>
</svg>
