<svg xmlns="http://www.w3.org/2000/svg" width="34" height="34" viewBox="0 0 34 34">
    <defs>
        <linearGradient id="a" x1="86.263%" x2="13.736%" y1="14.392%" y2="86.198%">
            <stop offset=".066%" stop-color="#3963A5"/>
            <stop offset="7.043%" stop-color="#4163A3"/>
            <stop offset="16.16%" stop-color="#51619F"/>
            <stop offset="26.47%" stop-color="#645C98"/>
            <stop offset="37.66%" stop-color="#784F8C"/>
            <stop offset="49.43%" stop-color="#8E2C79"/>
            <stop offset="51.6%" stop-color="#921974"/>
            <stop offset="66.37%" stop-color="#A94A68"/>
            <stop offset="82.39%" stop-color="#C06550"/>
            <stop offset="94.04%" stop-color="#CD743A"/>
            <stop offset="100%" stop-color="#D2782C"/>
        </linearGradient>
    </defs>
    <path fill="none" fill-rule="evenodd" stroke="url(#a)" d="M31.923 16.01c0-8.803-7.14-15.933-15.942-15.933C7.178.077.048 7.207.048 16.01c0 7.956 5.823 14.549 13.444 15.74V20.613H9.446V16.01h4.046v-3.508c0-3.997 2.383-6.198 6.016-6.198 1.739 0 3.565.307 3.565.307v3.921h-2.009c-1.98 0-2.594 1.23-2.594 2.489v2.989h4.42l-.711 4.603h-3.71V31.75c7.621-1.201 13.454-7.793 13.454-15.74z" transform="translate(1 1)"/>
</svg>
