<svg xmlns="http://www.w3.org/2000/svg" width="86" height="88" viewBox="0 0 86 88">
    <defs>
        <linearGradient id="a" x1="95.77%" x2="2.782%" y1="5.701%" y2="95.788%">
            <stop offset="0%" stop-color="#3E538B"/>
            <stop offset="14.2%" stop-color="#604F85"/>
            <stop offset="37.24%" stop-color="#8A3978"/>
            <stop offset="41.43%" stop-color="#924373"/>
            <stop offset="54.77%" stop-color="#AF5E60"/>
            <stop offset="64.45%" stop-color="#C06D4E"/>
            <stop offset="69.41%" stop-color="#C67246"/>
            <stop offset="87.83%" stop-color="#BA5B40"/>
            <stop offset="100%" stop-color="#B54F3D"/>
        </linearGradient>
        <linearGradient id="b" x1="302.735%" x2="-84.896%" y1="-197.703%" y2="181.908%">
            <stop offset="0%" stop-color="#3E538B"/>
            <stop offset="14.2%" stop-color="#604F85"/>
            <stop offset="37.24%" stop-color="#8A3978"/>
            <stop offset="41.43%" stop-color="#924373"/>
            <stop offset="54.77%" stop-color="#AF5E60"/>
            <stop offset="64.45%" stop-color="#C06D4E"/>
            <stop offset="69.41%" stop-color="#C67246"/>
            <stop offset="87.83%" stop-color="#BA5B40"/>
            <stop offset="100%" stop-color="#B54F3D"/>
        </linearGradient>
        <linearGradient id="c" x1="198.207%" x2="-205.86%" y1="-223.722%" y2="522.269%">
            <stop offset="0%" stop-color="#3E538B"/>
            <stop offset="14.2%" stop-color="#604F85"/>
            <stop offset="37.24%" stop-color="#8A3978"/>
            <stop offset="41.43%" stop-color="#924373"/>
            <stop offset="54.77%" stop-color="#AF5E60"/>
            <stop offset="64.45%" stop-color="#C06D4E"/>
            <stop offset="69.41%" stop-color="#C67246"/>
            <stop offset="87.83%" stop-color="#BA5B40"/>
            <stop offset="100%" stop-color="#B54F3D"/>
        </linearGradient>
        <linearGradient id="d" x1="1363.489%" x2="-1678.015%" y1="-1096.78%" y2="1558.836%">
            <stop offset="0%" stop-color="#3E538B"/>
            <stop offset="14.2%" stop-color="#604F85"/>
            <stop offset="37.24%" stop-color="#8A3978"/>
            <stop offset="41.43%" stop-color="#924373"/>
            <stop offset="54.77%" stop-color="#AF5E60"/>
            <stop offset="64.45%" stop-color="#C06D4E"/>
            <stop offset="69.41%" stop-color="#C67246"/>
            <stop offset="87.83%" stop-color="#BA5B40"/>
            <stop offset="100%" stop-color="#B54F3D"/>
        </linearGradient>
    </defs>
    <g fill="none" fill-rule="nonzero">
        <path fill="url(#a)" d="M42.07 83.26c-2.05 0-4.18-.11-6.38-.33-10.34-1.06-19.63-6.21-26.16-14.49-7-8.88-9.98-20.25-8.4-32C3.81 16.47 16.01 3.45 34.58.7l.24 1.64C10.47 5.95 4.29 25.38 2.77 36.65c-1.52 11.3 1.35 22.22 8.07 30.75 6.25 7.93 15.13 12.85 25.03 13.87 28.94 2.97 44.67-15.11 46.59-28.9 1.77-12.71-3.79-24.6-14.15-30.3-7.04-3.87-14.97-4.13-21.9-.97 5.48-1.27 9.66.23 14.46 4.93 5.67 5.55 4.34 13.39.71 18.33-2.11 2.86-6.45 6.06-11.42 6.75-4 .55-7.79-.53-11.25-3.22-3.24-2.52-5.11-5.84-5.57-9.88-.6-5.3 1.65-10.67 6.01-14.37 8.55-7.26 19.96-8.42 29.75-3.03 10.98 6.04 16.86 18.59 15 31.99-1.87 13.39-16.05 30.66-42.03 30.66zm1.05-60.36c-.93.6-1.83 1.27-2.7 2.01-3.94 3.34-5.97 8.17-5.43 12.91.4 3.57 2.06 6.52 4.94 8.75 3.09 2.4 6.45 3.38 10 2.88 4.49-.62 8.41-3.51 10.31-6.09 3.22-4.38 4.43-11.3-.54-16.16-5.36-5.24-9.45-6.11-16.23-3.44l-.35-.86z" transform="translate(1 2)"/>
        <path fill="url(#b)" d="M23.82 64.45c-1.04 0-1.92-.41-2.55-1.21-1.85-2.34-.76-4.52.06-5.35l13.33-13.46 5.68 5.54-12.77 12.79c-.74.75-1.61 1.27-2.51 1.52-.44.12-.85.17-1.24.17zm10.86-17.67L22.51 59.06c-.13.14-1.29 1.43.06 3.15.16.21.67.84 2.03.46.62-.17 1.24-.55 1.78-1.09l11.59-11.59-3.29-3.21z" transform="translate(1 2)"/>
        <path fill="url(#c)" d="M56.54 43.77a.826.826 0 0 1-.56-1.43l.67-.63a9.029 9.029 0 0 0 2.83-7.3.83.83 0 0 1 .77-.89c.47-.04.86.31.89.77.25 3.25-.97 6.4-3.35 8.64l-.67.63c-.17.13-.37.21-.58.21z" transform="translate(1 2)"/>
        <path fill="url(#d)" d="M53.94 45.77c-.27 0-.52-.13-.69-.36a.824.824 0 0 1 .22-1.15l.9-.62c.38-.26.9-.16 1.15.22.26.38.16.89-.22 1.15l-.9.62c-.14.1-.3.14-.46.14z" transform="translate(1 2)"/>
    </g>
</svg>
