<svg xmlns="http://www.w3.org/2000/svg" width="56" height="56" viewBox="0 0 56 56">
    <g fill="none" fill-rule="nonzero">
        <path fill="#FFF" d="M.533 27.933C.533 12.549 12.867 0 28.133 0c15.267 0 27.6 12.482 27.6 27.933 0 15.45-12.333 27.932-27.6 27.932-15.266 0-27.6-12.482-27.6-27.932m4.134 0c0 13.156 10.533 23.749 23.466 23.749 13 0 23.467-10.66 23.467-23.75 0-13.156-10.533-23.749-23.467-23.749-13 0-23.466 10.66-23.466 23.75"/>
        <path fill="#19AD49" d="M3.2 27.933c0-13.9 11.133-25.167 24.867-25.167C41.8 2.766 53 14.034 53 27.933c0 13.898-11.133 25.166-24.933 25.166C14.4 53.166 3.2 41.9 3.2 27.933"/>
        <path fill="#FFF" d="M42.067 8.501c0-2.496 2-4.588 4.533-4.588 2.467 0 4.533 2.024 4.533 4.588 0 2.497-2 4.588-4.533 4.588-2.467 0-4.533-2.024-4.533-4.588"/>
        <path fill="#9EE52D" d="M44.2 8.501c0-1.35 1.067-2.429 2.4-2.429s2.467 1.08 2.467 2.43c0 1.349-1.067 2.428-2.467 2.428-1.333.068-2.4-1.012-2.4-2.429"/>
        <path fill="#FFF" d="M14.667 40.887c.2-.203.333-.27.533-.405.2-.068.4-.135.667-.135.2 0 .4.067.6.135.2.067.4.202.533.405l.267.202-.467.472-.267-.27-.333-.134-.4-.068-.333.068-.334.202-.2.337-.066.405.066.405.2.337c.2.203.467.338.734.338l.4-.068.333-.202.267-.203.466.473-.266.27c-.134.135-.334.27-.534.404-.2.068-.4.135-.6.135-.2 0-.4-.067-.666-.135-.2-.067-.4-.202-.534-.404-.133-.203-.266-.338-.4-.54-.066-.203-.133-.405-.133-.675 0-.202.067-.405.133-.675 0-.337.134-.472.334-.674M20.2 42.641l.467.472-.267.203c-.133.135-.333.27-.533.404-.2.068-.4.135-.667.135-.2 0-.467-.067-.667-.135-.2-.067-.4-.202-.533-.404a1.472 1.472 0 0 1-.333-.54c-.067-.203-.134-.405-.134-.675 0-.202.067-.405.134-.607.066-.202.2-.405.333-.54.2-.135.333-.27.533-.405.2-.067.4-.135.667-.135.2 0 .4.068.667.135.2.068.4.203.533.405l.267.203-1.867 1.889c.2.067.4.135.6.067.2 0 .4-.135.533-.27l.267-.202zm-1.667-1.282c-.2.202-.333.472-.333.742 0 .135.067.338.133.472l.267-.27.4-.404.4-.405.333-.27c-.2-.067-.4-.135-.6-.067-.266 0-.466.067-.6.202zM21 41.427c.067-.203.2-.405.333-.54a1.45 1.45 0 0 1 .534-.338c.2-.067.4-.135.666-.135.267 0 .467.068.667.135.2.068.4.203.533.338.134.135.267.337.334.54.066.202.133.404.133.674v1.754h-.667V42.17l-.066-.405-.134-.405-.333-.202-.4-.068-.4.068-.333.202-.2.337-.067.405v1.754h-.667V42.17c-.066-.27 0-.54.067-.742M25 40.887c.2-.203.333-.27.533-.405.2-.068.4-.135.667-.135.2 0 .4.067.6.135.2.067.4.202.6.405l.267.202-.467.472-.267-.27-.333-.134-.4-.068-.4.068-.333.202-.2.337-.067.405.067.405.2.337c.2.203.466.338.733.338l.4-.068.333-.202.267-.203.467.473-.267.27c-.133.135-.333.27-.6.404-.2.068-.4.135-.6.135-.2 0-.4-.067-.667-.135-.2-.067-.4-.202-.533-.404-.133-.203-.267-.338-.4-.54-.067-.203-.133-.405-.133-.675 0-.202.066-.405.133-.675.133-.337.267-.472.4-.674M27.933 42.101c0-.27.067-.472.134-.674.066-.203.2-.405.333-.54a1.45 1.45 0 0 1 .533-.338c.2-.067.4-.135.667-.135s.467.068.667.135c.2.068.4.203.533.338s.267.337.333.54c.067.202.134.404.134.674 0 .203-.067.472-.134.675-.066.202-.2.405-.333.54a1.45 1.45 0 0 1-.533.337c-.2.067-.4.135-.667.135s-.467-.068-.667-.135a1.45 1.45 0 0 1-.533-.337 1.472 1.472 0 0 1-.333-.54c-.134-.203-.134-.405-.134-.675zm.667 0l.067.405.2.337.333.203c.133.067.267.067.4.067l.4-.067.333-.203.2-.337.067-.405-.067-.405-.2-.337-.333-.202-.4-.068c-.133 0-.267 0-.4.068l-.333.202-.2.337-.067.405zM34.6 40.414v.675h-2.067l-.266.068-.067.27.067.27.266.067h1.334l.4.067.333.203.2.337.067.405-.067.405-.2.337-.333.202-.4.068H31.8v-.675h2.067l.266-.067.134-.27-.134-.27-.266-.067h-1.334c-.133 0-.266 0-.4-.068l-.333-.202-.2-.338-.067-.404.067-.405.2-.338.333-.202c.134-.068.267-.068.4-.068H34.6zM38.533 40.414v1.687c0 .203-.066.472-.133.675-.067.202-.2.405-.4.54a1.45 1.45 0 0 1-.533.337c-.2.067-.4.135-.667.135-.2 0-.467-.068-.667-.135a1.45 1.45 0 0 1-.533-.337 1.472 1.472 0 0 1-.333-.54c-.067-.203-.134-.405-.134-.675v-1.687h.667v1.687l.067.405.2.337.333.203c.133.067.267.067.4.067l.4-.067.333-.203.2-.337.067-.405v-1.687h.733zM42.067 38.998V42.1c0 .203-.067.472-.134.675-.066.202-.2.405-.333.54a1.45 1.45 0 0 1-.533.337c-.2.067-.4.135-.667.135-.2 0-.467-.068-.667-.135a1.45 1.45 0 0 1-.533-.337c-.133-.135-.267-.338-.4-.54-.067-.203-.133-.405-.133-.675s.066-.472.133-.674c.067-.203.2-.405.4-.54a1.45 1.45 0 0 1 .533-.338c.2-.067.4-.135.667-.135h1v-1.349h.667v-.067zM40.4 43.113l.4-.067.333-.203.2-.337.067-.405V41.09h-1l-.4.068-.333.202-.2.337-.067.405.067.405.2.337.333.203.4.067zM46 24.829c-.4 0-.733.067-1.067.202a2.793 2.793 0 0 0-.933.608c-.267.27-.467.54-.6.877-.133.337-.2.742-.2 1.147 0 .404.067.742.2 1.08.133.337.333.674.6.944.267.27.533.472.933.607.334.135.734.202 1.067.202.4 0 .733-.067 1.067-.202.333-.135.666-.337.933-.607.267-.27.467-.607.6-.945.133-.337.2-.742.2-1.08-.067-.809-.333-1.416-.8-1.956s-1.133-.877-2-.877zm.067-2.024c.666 0 1.266.135 1.8.405.6.27 1.066.607 1.533 1.08.467.471.8.944 1.067 1.551.266.607.4 1.214.4 1.89 0 .674-.134 1.281-.4 1.888-.267.608-.6 1.08-1 1.552s-.934.81-1.534 1.012c-.6.203-1.266.337-1.933.337s-1.267-.134-1.867-.337c-.6-.27-1.066-.607-1.533-1.012-.4-.405-.8-.944-1-1.552a4.574 4.574 0 0 1-.4-1.889c0-.675.133-1.282.4-1.889s.6-1.08 1-1.484c.467-.405.933-.81 1.533-1.012.6-.338 1.267-.473 1.934-.54zM19.8 28.337c0 1.215-1 2.227-2.2 2.227a2.108 2.108 0 0 1-1.733-.877c-.134-.135-.2-.27-.267-.473l-.067-.202v-.135c-.066-.202-.066-.405-.066-.607V23.817c0-.27-.067-.472-.267-.675-.2-.202-.4-.337-.667-.337-.266 0-.533.135-.733.337-.2.203-.267.405-.267.675v4.385c0 .81.2 1.417.4 1.89l.067.067.133.27.067.135.133.135c.267.405.667.742 1.067 1.08l.067.067c.333.202.6.337 1 .472.266.068.6.135 1 .202h.666l.4-.067c.267-.067.534-.135.8-.27.4-.202.8-.405 1.134-.742.333-.337.6-.607.8-1.012l.133-.202.067-.203c.266-.607.4-1.214.4-1.822v-4.385c0-.27-.067-.472-.267-.675-.2-.202-.4-.27-.733-.337-.267 0-.467.135-.667.337-.2.203-.333.405-.333.675V28M33.2 31.373v-5.262c0-2.092-1.133-3.239-3.133-3.239-.8 0-1.667.405-2.067 1.012l-.267.405-.266-.405c-.334-.54-1.134-.944-2-.944-2 0-3.134 1.214-3.134 3.238v5.33c0 .608.4 1.147 1 1.147s1-.472 1-1.147v-5.532c0-.607.534-1.08 1.134-1.08.6 0 1.2.473 1.2 1.08v5.465c0 .607.466 1.147 1.066 1.147.6 0 1.067-.472 1.067-1.147v-5.6c0-.607.533-1.08 1.133-1.08s1.134.473 1.134 1.08v5.532c0 .608.466 1.147 1.066 1.147.667 0 1.067-.54 1.067-1.147zM41.133 29.89c0-1.08-.733-2.025-1.733-2.43.933-.405 1.467-1.214 1.467-2.226 0-1.35-1.134-2.43-2.667-2.43h-3.333c-.534 0-1 .473-1 1.013v7.691c0 .54.466 1.012 1 1.012H38.533c.2 0 .4-.067.6-.134 1.2-.338 2-1.282 2-2.497zM37.8 24.693c.6 0 1.133.472 1.133 1.08 0 .607-.466 1.079-1.133 1.079h-1.867v-2.159H37.8zm-1.867 3.778h2.134c.6 0 1.066.473 1.066 1.08a1.06 1.06 0 0 1-1.066 1.08h-2.134v-2.16zM12.8 29.012V24.289c0-.202 0-.472-.067-.675a1.07 1.07 0 0 0-.533-.674c-.2-.135-.4-.135-.667-.135h-3.2c-.266 0-.533.067-.666.27-.467.405-.4 1.214.133 1.552.267.202.6.134.867.134h2.2v4.251c0 .945-.8 1.754-1.734 1.754-.933 0-1.666-.742-1.733-1.686v-.135c0-.54-.467-.945-1-.945-.533 0-1 .472-1 1.012v.135c.133 2.024 1.667 3.373 3.733 3.373 3.8 0 3.734-3.913 3.667-3.508"/>
    </g>
</svg>
