<?xml version="1.0" encoding="utf-8"?>
<!-- Generator: Adobe Illustrator 23.0.2, SVG Export Plug-In . SVG Version: 6.00 Build 0)  -->
<svg version="1.1" id="Capa_1" xmlns="http://www.w3.org/2000/svg" xmlns:xlink="http://www.w3.org/1999/xlink" x="0px" y="0px"
	 viewBox="0 0 549.6 230.4" style="enable-background:new 0 0 549.6 230.4;" xml:space="preserve">
<style type="text/css">
	.st0{fill:#D17733;}
	.st1{fill:#FFFFFF;}
	.st2{fill:#0F618C;}
	.st3{fill:#9E1427;}
	.st4{fill:url(#SVGID_1_);}
	.st5{fill:url(#SVGID_2_);}
	.st6{fill:url(#SVGID_3_);}
	.st7{fill:url(#SVGID_4_);}
	.st8{fill:url(#SVGID_5_);}
	.st9{fill:url(#SVGID_6_);}
	.st10{fill:url(#SVGID_7_);}
	.st11{fill:url(#SVGID_8_);}
	.st12{fill:url(#SVGID_9_);}
	.st13{fill:url(#SVGID_10_);}
	.st14{fill:url(#SVGID_11_);}
	.st15{fill:url(#SVGID_12_);}
	.st16{fill:url(#SVGID_13_);}
	.st17{fill:url(#SVGID_14_);}
	.st18{fill:url(#SVGID_15_);}
	.st19{fill:url(#SVGID_16_);}
	.st20{fill:url(#SVGID_17_);}
</style>
<g>
	<g>
		<path class="st0" d="M307.12,7.87c12.83,0,23.28,10.44,23.28,23.27v167.04c0,12.83-10.44,23.27-23.28,23.27H33.25
			c-12.83,0-23.27-10.44-23.27-23.27V31.14c0-12.83,10.44-23.27,23.27-23.27H307.12z"/>
		<path class="st1" d="M330.39,114.65l-14.12-14.13V31.26c0-5.13-4.15-9.28-9.28-9.28H33.39c-5.13,0-9.28,4.15-9.28,9.28v166.75
			c0,5.13,4.15,9.28,9.28,9.28h273.61c5.13,0,9.28-4.16,9.28-9.28v-69.1L330.39,114.65z"/>
		<path class="st2" d="M120.2,99.6c0-0.95,0.17-1.88,0.51-2.68c0.39-0.86,0.88-1.63,1.52-2.26c0.65-0.65,1.39-1.16,2.24-1.51
			c1.73-0.75,3.76-0.75,5.54,0.01c0.83,0.34,1.59,0.85,2.22,1.52c0.64,0.61,1.14,1.38,1.51,2.26c0.37,0.81,0.56,1.71,0.56,2.66
			v13.24h6.16V99.6c0-1.83-0.37-3.55-1.05-5.1c-0.66-1.62-1.63-3.03-2.83-4.18c-1.2-1.21-2.62-2.18-4.22-2.83
			c-3.1-1.4-7.02-1.42-10.25,0c-1.59,0.65-3.02,1.62-4.25,2.83c-1.16,1.16-2.1,2.56-2.81,4.18c-0.66,1.56-0.99,3.27-0.99,5.1v13.24
			h6.13V99.6z"/>
		<path class="st2" d="M110.26,90.32c-1.31-1.29-2.78-2.28-4.41-2.89c-3.22-1.32-6.68-1.32-9.94,0c-1.61,0.61-3.08,1.6-4.36,2.89
			c-1.28,1.28-2.26,2.74-2.87,4.34c-0.65,1.62-0.96,3.27-0.96,4.94c0,1.69,0.31,3.35,0.96,5c0.61,1.6,1.59,3.07,2.87,4.36
			c1.25,1.25,2.69,2.22,4.28,2.88c1.61,0.66,3.3,1,5.08,1c1.76,0,3.46-0.33,5.05-1c1.6-0.66,3.04-1.63,4.3-2.88l2.13-2.16
			l-4.35-4.35l-2.14,2.14c-1.12,1.14-2.41,1.79-3.91,2.03c-0.33,0.05-0.69,0.08-1.02,0.08c-0.83,0-1.6-0.15-2.39-0.44l13.82-13.81
			L110.26,90.32z M101.56,94.59l-7.33,7.33c-0.29-0.73-0.42-1.52-0.42-2.32c0-1.96,0.69-3.59,2.09-4.99
			c1.11-1.1,2.39-1.75,3.83-1.98c0.36-0.05,0.72-0.07,1.08-0.07c0.82,0,1.62,0.14,2.4,0.42C102.77,93.43,102.21,93.97,101.56,94.59"
			/>
		<path class="st2" d="M69.57,94.66c0.7-0.67,1.49-1.19,2.34-1.55c1.73-0.69,3.57-0.69,5.3,0c0.87,0.36,1.65,0.89,2.35,1.57
			l2.23,2.14l4.29-4.36l-2.16-2.14c-1.3-1.29-2.79-2.28-4.4-2.89c-3.21-1.32-6.69-1.32-9.95,0c-1.59,0.61-3.06,1.6-4.36,2.89
			c-1.3,1.26-2.25,2.74-2.88,4.34c-0.63,1.62-0.95,3.3-0.95,5.01c0,1.67,0.32,3.34,0.95,4.93c0.63,1.6,1.57,3.08,2.88,4.36
			c1.28,1.28,2.75,2.27,4.37,2.94c1.63,0.63,3.32,0.93,4.98,0.93c1.67,0,3.33-0.3,4.93-0.93c1.64-0.68,3.12-1.67,4.42-2.94
			l2.16-2.16l-4.29-4.35l-2.25,2.14c-0.64,0.71-1.43,1.22-2.27,1.56c-0.86,0.35-1.76,0.52-2.71,0.52c-1.96,0-3.6-0.67-4.99-2.09
			c-0.71-0.7-1.21-1.47-1.56-2.34c-0.35-0.86-0.53-1.75-0.53-2.66c0-0.89,0.18-1.79,0.53-2.66C68.34,96.1,68.87,95.35,69.57,94.66"
			/>
		<path class="st2" d="M205.1,92.59h15.8v-6.16h-15.8c-1.13,0-2.21,0.23-3.22,0.66c-0.96,0.41-1.81,0.98-2.53,1.69
			c-0.74,0.73-1.32,1.61-1.76,2.61c-0.42,0.96-0.61,2.03-0.61,3.15c0,1.12,0.19,2.19,0.61,3.22c0.44,0.95,1.02,1.81,1.77,2.58
			c0.7,0.72,1.56,1.32,2.52,1.76c1.01,0.4,2.09,0.61,3.22,0.61h10.11c0.61,0,1.07,0.19,1.46,0.56c0.38,0.38,0.56,0.83,0.56,1.4
			c0,0.6-0.18,1.07-0.56,1.45c-0.39,0.36-0.85,0.56-1.46,0.56h-15.75v6.15h15.75c1.13,0,2.19-0.21,3.17-0.6
			c0.99-0.44,1.88-1.04,2.58-1.76c0.78-0.76,1.36-1.64,1.77-2.6c0.44-1,0.66-2.09,0.66-3.2c0-1.13-0.23-2.2-0.66-3.15
			c-0.41-1.01-0.99-1.9-1.77-2.61c-0.71-0.73-1.59-1.3-2.58-1.68c-0.97-0.45-2.03-0.68-3.17-0.68H205.1c-0.56,0-1.03-0.19-1.38-0.56
			c-0.39-0.42-0.57-0.88-0.57-1.46c0-0.55,0.18-1.01,0.54-1.39C204.07,92.77,204.52,92.59,205.1,92.59"/>
		<path class="st2" d="M150.52,94.66c0.71-0.67,1.48-1.19,2.33-1.55c1.74-0.69,3.6-0.69,5.32,0c0.87,0.36,1.65,0.88,2.35,1.57
			l2.21,2.14l4.28-4.36l-2.15-2.14c-1.29-1.29-2.78-2.28-4.4-2.89c-3.22-1.32-6.67-1.32-9.92,0c-1.63,0.61-3.1,1.6-4.39,2.89
			c-1.29,1.28-2.25,2.74-2.87,4.34c-0.63,1.62-0.95,3.3-0.95,5.01c0,1.67,0.33,3.34,0.95,4.93c0.62,1.6,1.58,3.07,2.87,4.36
			c1.28,1.28,2.75,2.27,4.39,2.94c1.62,0.63,3.31,0.93,4.99,0.93c1.66,0,3.33-0.3,4.92-0.93c1.63-0.68,3.12-1.66,4.41-2.94
			l2.15-2.16l-4.28-4.35l-2.23,2.14c-0.66,0.71-1.42,1.22-2.28,1.56c-0.87,0.35-1.78,0.52-2.7,0.52c-1.98,0-3.6-0.67-5.01-2.09
			c-0.69-0.7-1.2-1.47-1.56-2.34c-0.35-0.86-0.53-1.75-0.53-2.66c0-0.89,0.18-1.79,0.53-2.66C149.33,96.1,149.83,95.35,150.52,94.66
			"/>
		<path class="st2" d="M245.53,99.6c0,0.96-0.2,1.9-0.58,2.77c-0.33,0.87-0.84,1.63-1.51,2.29c-0.62,0.62-1.36,1.13-2.23,1.5
			c-1.73,0.7-3.84,0.68-5.51,0.02c-0.84-0.39-1.61-0.91-2.25-1.5c-0.62-0.67-1.14-1.44-1.51-2.31c-0.35-0.85-0.52-1.78-0.52-2.77
			V86.43h-6.17V99.6c0,1.81,0.35,3.53,1.01,5.14c0.69,1.59,1.66,3.02,2.82,4.22c1.21,1.21,2.63,2.18,4.25,2.88
			c1.59,0.66,3.31,1,5.1,1c1.85,0,3.56-0.34,5.13-1c1.59-0.7,3-1.66,4.23-2.88c1.21-1.21,2.16-2.64,2.82-4.22
			c0.71-1.61,1.07-3.32,1.07-5.14V86.43h-6.17V99.6z"/>
		<path class="st2" d="M273.83,76.31l0,10.12h-7.01c-1.81,0-3.54,0.36-5.12,1.06c-1.62,0.66-3.04,1.62-4.25,2.83
			c-1.21,1.15-2.17,2.56-2.89,4.18c-0.66,1.56-1.01,3.27-1.01,5.1c0,1.81,0.35,3.53,1.01,5.14c0.72,1.59,1.67,3.02,2.87,4.22
			c1.22,1.21,2.64,2.18,4.26,2.88c1.57,0.66,3.31,1,5.12,1c1.79,0,3.5-0.34,5.12-1c1.6-0.7,3.01-1.66,4.18-2.88
			c1.21-1.21,2.14-2.63,2.8-4.22c0.71-1.61,1.06-3.32,1.06-5.14V76.31H273.83z M273.83,99.6c0,0.97-0.19,1.9-0.58,2.77
			c-0.35,0.87-0.84,1.63-1.51,2.29c-0.62,0.62-1.38,1.13-2.24,1.5c-1.64,0.7-3.75,0.68-5.45,0.02c-0.88-0.39-1.65-0.91-2.3-1.5
			c-0.62-0.67-1.13-1.44-1.5-2.31c-0.35-0.85-0.52-1.78-0.52-2.77c0-0.97,0.17-1.88,0.52-2.68c0.37-0.86,0.87-1.63,1.5-2.26
			c0.65-0.65,1.43-1.15,2.3-1.51c0.86-0.36,1.8-0.56,2.76-0.56h7.01V99.6z"/>
		<path class="st2" d="M176.75,111.84c1.58,0.66,3.3,1,5.1,1c1.83,0,3.55-0.33,5.14-1c1.57-0.7,3.01-1.67,4.2-2.88
			c1.21-1.21,2.17-2.64,2.83-4.22c0.72-1.61,1.06-3.33,1.06-5.14c0-1.83-0.35-3.55-1.06-5.1c-0.66-1.62-1.61-3.02-2.83-4.18
			c-1.19-1.21-2.63-2.18-4.2-2.81c-3.1-1.41-7.02-1.44-10.24-0.02c-1.62,0.65-3.03,1.62-4.26,2.83c-1.16,1.16-2.12,2.56-2.82,4.18
			c-0.65,1.56-0.99,3.27-0.99,5.1c0,1.81,0.34,3.53,0.99,5.14c0.7,1.59,1.64,3.02,2.82,4.22
			C173.72,110.17,175.12,111.14,176.75,111.84 M175.29,96.92c0.38-0.86,0.89-1.63,1.51-2.26c0.65-0.65,1.42-1.15,2.3-1.51
			c0.87-0.36,1.78-0.56,2.75-0.56c0.97,0,1.89,0.2,2.76,0.57c0.85,0.35,1.61,0.86,2.24,1.52c0.66,0.62,1.14,1.38,1.5,2.26
			c0.37,0.81,0.56,1.71,0.56,2.66c0,0.96-0.19,1.91-0.57,2.77c-0.35,0.87-0.85,1.63-1.51,2.29c-0.62,0.62-1.37,1.12-2.23,1.5
			c-1.73,0.7-3.82,0.68-5.52,0.02c-0.87-0.39-1.66-0.91-2.28-1.5c-0.63-0.68-1.14-1.44-1.53-2.31c-0.34-0.85-0.52-1.78-0.52-2.77
			C174.78,98.65,174.95,97.74,175.29,96.92"/>
		<path class="st3" d="M62.4,145.73c1.89,1.02,4.52,1.81,7.55,1.81c2.32,0,4.52-0.47,4.52-2.67c0-5.11-12.98-1.89-12.98-11.88
			c0-6.61,6.45-8.41,11.95-8.41c2.63,0,5.23,0.39,7.08,1.02l-0.47,5.66c-1.88-0.86-4.01-1.26-6.09-1.26c-1.85,0-4.91,0.16-4.91,2.56
			c0,4.44,12.97,1.46,12.97,11.36c0,7.12-5.98,9.04-12.07,9.04c-2.55,0-5.74-0.39-8.18-1.18L62.4,145.73z"/>
		<path class="st3" d="M101.74,137.87c-1.3-0.79-2.6-1.14-4.29-1.14c-3.07,0-5.43,2.12-5.43,5.66c0,3.26,2.75,5.39,5.82,5.39
			c1.61,0,3.22-0.35,4.4-0.98l0.16,5.27c-1.77,0.59-3.89,0.9-5.78,0.9c-6.76,0-11.91-3.93-11.91-10.69c0-6.8,5.15-10.74,11.91-10.74
			c2.12,0,4.01,0.35,5.62,1.14L101.74,137.87z"/>
		<path class="st3" d="M104.22,142.27c0-6.8,5.15-10.74,11.91-10.74c6.76,0,11.92,3.93,11.92,10.74c0,6.76-5.15,10.7-11.92,10.7
			C109.37,152.97,104.22,149.03,104.22,142.27 M120.73,142.27c0-3.07-1.34-5.78-4.6-5.78c-3.26,0-4.6,2.71-4.6,5.78
			c0,3.03,1.34,5.74,4.6,5.74C119.4,148.01,120.73,145.3,120.73,142.27"/>
		<path class="st3" d="M129.43,132.01h4.17v-4.6l6.96-2.16v6.76h4.95v4.95h-4.95v7.55c0,2.48,0.59,3.74,2.83,3.74
			c0.71,0,1.45-0.16,2.16-0.28l0.24,4.6c-1.34,0.16-2.68,0.39-4.44,0.39c-6.33,0-7.86-2.79-7.86-7.67v-8.34h-4.05V132.01z"/>
		<path class="st3" d="M156.38,128.67h-7.08v-5.19h7.08V128.67z M149.3,132.01h7.08v20.49h-7.08V132.01z"/>
		<path class="st3" d="M174.42,152.49c-0.04-1.1-0.16-2.16-0.16-3.22h-0.08c-1.61,2.56-3.58,3.7-6.49,3.7c-4.05,0-7.67-2-7.67-6.45
			c0-6.25,6.8-7,10.58-7c1.14,0,2.4,0.12,3.3,0.28c-0.04-2.79-2.12-3.54-4.68-3.54c-2.28,0-4.56,0.43-6.53,1.53l-0.12-4.8
			c2.52-1.02,5.15-1.46,8.18-1.46c5.23,0,9.75,2.24,9.75,8.49v7.63c0,1.61,0.08,3.22,0.39,4.84H174.42z M169.54,148.25
			c2.67,0,4.36-2.44,4.36-4.84c-0.9-0.04-1.93-0.12-2.99-0.12c-2.4,0-4.29,0.75-4.29,2.71
			C166.63,147.42,167.89,148.25,169.54,148.25"/>
		<path class="st3" d="M184.77,123h7.12v11.64h0.08c1.81-2.28,4.21-3.11,7.04-3.11c5.66,0,8.77,5.39,8.77,10.34
			c0,6.05-3.26,11.09-9.36,11.09c-3.26,0-6.13-1.85-7.04-4.13h-0.08v3.65h-6.53V123z M196.18,136.96c-2.6,0-4.33,2.28-4.33,5.35
			c0,2.99,1.97,5.23,4.33,5.23c2.67,0,4.29-2.24,4.29-5.51C200.46,139.32,198.93,136.96,196.18,136.96"/>
		<path class="st3" d="M224.3,152.49c-0.04-1.1-0.16-2.16-0.16-3.22h-0.08c-1.61,2.56-3.58,3.7-6.49,3.7c-4.05,0-7.67-2-7.67-6.45
			c0-6.25,6.8-7,10.58-7c1.14,0,2.4,0.12,3.3,0.28c-0.04-2.79-2.12-3.54-4.68-3.54c-2.28,0-4.56,0.43-6.53,1.53l-0.12-4.8
			c2.52-1.02,5.15-1.46,8.18-1.46c5.23,0,9.75,2.24,9.75,8.49v7.63c0,1.61,0.08,3.22,0.39,4.84H224.3z M219.42,148.25
			c2.67,0,4.36-2.44,4.36-4.84c-0.9-0.04-1.93-0.12-2.99-0.12c-2.4,0-4.29,0.75-4.29,2.71
			C216.51,147.42,217.77,148.25,219.42,148.25"/>
		<path class="st3" d="M234.73,132.01h6.45v3.78h0.08c1.42-2.95,4.25-4.25,7.47-4.25c5.58,0,7.82,3.93,7.82,8.18v12.78h-7.08v-9.91
			c0-3.86-1.34-5.15-3.26-5.15c-2.91,0-4.4,2.01-4.4,6.41v8.65h-7.08V132.01z"/>
		<polygon class="st3" points="260.89,123 267.97,123 267.97,140.62 268.05,140.62 273.95,132.01 281.69,132.01 274.57,141.41 
			282.28,152.49 273.71,152.49 268.05,142.35 267.97,142.35 267.97,152.49 260.89,152.49 		"/>
	</g>
	<linearGradient id="SVGID_1_" gradientUnits="userSpaceOnUse" x1="519.7572" y1="55.69" x2="358.1491" y2="119.4828">
		<stop  offset="0" style="stop-color:#415793"/>
		<stop  offset="0.1303" style="stop-color:#63538E"/>
		<stop  offset="0.3724" style="stop-color:#92397F"/>
		<stop  offset="0.4411" style="stop-color:#A24B75"/>
		<stop  offset="0.5618" style="stop-color:#BC6360"/>
		<stop  offset="0.6493" style="stop-color:#CC714D"/>
		<stop  offset="0.6941" style="stop-color:#D07645"/>
		<stop  offset="0.8853" style="stop-color:#C65C3F"/>
		<stop  offset="1" style="stop-color:#C14F3C"/>
	</linearGradient>
	<path class="st4" d="M370.38,206.17c-0.45,0-0.81-0.36-0.81-0.81v-76.53c0-0.19,0.07-0.37,0.18-0.51l11.17-13.72l-11.17-13.77
		c-0.12-0.15-0.18-0.33-0.18-0.51V23.95c0-0.45,0.36-0.81,0.81-0.81c0.45,0,0.81,0.36,0.81,0.81v76.07l11.41,14.06
		c0.24,0.3,0.24,0.73,0,1.03l-11.41,14.01v76.24C371.19,205.81,370.83,206.17,370.38,206.17"/>
	<linearGradient id="SVGID_2_" gradientUnits="userSpaceOnUse" x1="505.8995" y1="20.5818" x2="344.2898" y2="84.3752">
		<stop  offset="0" style="stop-color:#415793"/>
		<stop  offset="0.1303" style="stop-color:#63538E"/>
		<stop  offset="0.3724" style="stop-color:#92397F"/>
		<stop  offset="0.4411" style="stop-color:#A24B75"/>
		<stop  offset="0.5618" style="stop-color:#BC6360"/>
		<stop  offset="0.6493" style="stop-color:#CC714D"/>
		<stop  offset="0.6941" style="stop-color:#D07645"/>
		<stop  offset="0.8853" style="stop-color:#C65C3F"/>
		<stop  offset="1" style="stop-color:#C14F3C"/>
	</linearGradient>
	<polygon class="st5" points="411.28,52.26 411.28,75.09 404.3,75.09 404.3,52.26 398.91,52.26 398.91,45.66 416.64,45.66 
		416.64,52.26 	"/>
	<linearGradient id="SVGID_3_" gradientUnits="userSpaceOnUse" x1="508.8957" y1="28.1752" x2="347.2882" y2="91.9678">
		<stop  offset="0" style="stop-color:#415793"/>
		<stop  offset="0.1303" style="stop-color:#63538E"/>
		<stop  offset="0.3724" style="stop-color:#92397F"/>
		<stop  offset="0.4411" style="stop-color:#A24B75"/>
		<stop  offset="0.5618" style="stop-color:#BC6360"/>
		<stop  offset="0.6493" style="stop-color:#CC714D"/>
		<stop  offset="0.6941" style="stop-color:#D07645"/>
		<stop  offset="0.8853" style="stop-color:#C65C3F"/>
		<stop  offset="1" style="stop-color:#C14F3C"/>
	</linearGradient>
	<polygon class="st6" points="419.74,75.09 419.74,45.66 434.92,45.66 434.92,52.26 426.42,52.26 426.42,56.83 434.66,56.83 
		434.66,63.44 426.42,63.44 426.42,68.49 434.92,68.49 434.92,75.09 	"/>
	<linearGradient id="SVGID_4_" gradientUnits="userSpaceOnUse" x1="520.0664" y1="56.4706" x2="358.4568" y2="120.264">
		<stop  offset="0" style="stop-color:#415793"/>
		<stop  offset="0.1303" style="stop-color:#63538E"/>
		<stop  offset="0.3724" style="stop-color:#92397F"/>
		<stop  offset="0.4411" style="stop-color:#A24B75"/>
		<stop  offset="0.5618" style="stop-color:#BC6360"/>
		<stop  offset="0.6493" style="stop-color:#CC714D"/>
		<stop  offset="0.6941" style="stop-color:#D07645"/>
		<stop  offset="0.8853" style="stop-color:#C65C3F"/>
		<stop  offset="1" style="stop-color:#C14F3C"/>
	</linearGradient>
	<path class="st7" d="M426.14,111.85c-2.14,0-4.88-0.56-6.43-2.31c-2.44,1.63-4.84,2.31-7.68,2.31c-7.83,0-14.44-6.6-14.44-15.15
		c0-8.63,6.35-15.43,14.37-15.43c7.79,0,14.59,6.44,14.59,15.03c0,3.22-0.59,5.85-2.25,8.51c0.89,0.88,2.4,1.19,3.58,1v5.96
		C427.29,111.81,426.73,111.85,426.14,111.85 M411.99,87.87c-4.14,0-6.72,3.26-7.39,7.44c1.33-0.6,2.4-1,3.88-1
		c4.1,0,7.68,2.94,10.16,6.2c0.7-1.31,0.92-2.82,0.92-4.33C419.57,91.45,416.42,87.87,411.99,87.87 M407.74,99.8
		c-0.89,0-1.59,0.16-2.44,0.48c1.11,2.83,3.73,4.97,6.65,4.97c1.11,0,2.22-0.2,3.18-0.75C413.14,101.91,411.1,99.8,407.74,99.8"/>
	<linearGradient id="SVGID_5_" gradientUnits="userSpaceOnUse" x1="522.6874" y1="63.1158" x2="361.0807" y2="126.908">
		<stop  offset="0" style="stop-color:#415793"/>
		<stop  offset="0.1303" style="stop-color:#63538E"/>
		<stop  offset="0.3724" style="stop-color:#92397F"/>
		<stop  offset="0.4411" style="stop-color:#A24B75"/>
		<stop  offset="0.5618" style="stop-color:#BC6360"/>
		<stop  offset="0.6493" style="stop-color:#CC714D"/>
		<stop  offset="0.6941" style="stop-color:#D07645"/>
		<stop  offset="0.8853" style="stop-color:#C65C3F"/>
		<stop  offset="1" style="stop-color:#C14F3C"/>
	</linearGradient>
	<path class="st8" d="M449.12,108.63c-2.07,2.27-4.73,3.18-7.65,3.18c-2.84,0-5.87-0.87-7.87-3.14c-2.48-2.82-2.74-5.33-2.74-9.07
		V81.83h6.98V99.6c0,2.66,0.41,5.61,3.55,5.61c3.29,0,3.47-2.82,3.47-5.61V81.83l6.98,0V99.6
		C451.85,103.1,451.48,106.09,449.12,108.63"/>
	<linearGradient id="SVGID_6_" gradientUnits="userSpaceOnUse" x1="525.6747" y1="70.6787" x2="364.0637" y2="134.4726">
		<stop  offset="0" style="stop-color:#415793"/>
		<stop  offset="0.1303" style="stop-color:#63538E"/>
		<stop  offset="0.3724" style="stop-color:#92397F"/>
		<stop  offset="0.4411" style="stop-color:#A24B75"/>
		<stop  offset="0.5618" style="stop-color:#BC6360"/>
		<stop  offset="0.6493" style="stop-color:#CC714D"/>
		<stop  offset="0.6941" style="stop-color:#D07645"/>
		<stop  offset="0.8853" style="stop-color:#C65C3F"/>
		<stop  offset="1" style="stop-color:#C14F3C"/>
	</linearGradient>
	<rect x="456.66" y="81.83" class="st9" width="6.98" height="29.43"/>
	<linearGradient id="SVGID_7_" gradientUnits="userSpaceOnUse" x1="527.815" y1="76.1065" x2="366.2093" y2="139.8983">
		<stop  offset="0" style="stop-color:#415793"/>
		<stop  offset="0.1303" style="stop-color:#63538E"/>
		<stop  offset="0.3724" style="stop-color:#92397F"/>
		<stop  offset="0.4411" style="stop-color:#A24B75"/>
		<stop  offset="0.5618" style="stop-color:#BC6360"/>
		<stop  offset="0.6493" style="stop-color:#CC714D"/>
		<stop  offset="0.6941" style="stop-color:#D07645"/>
		<stop  offset="0.8853" style="stop-color:#C65C3F"/>
		<stop  offset="1" style="stop-color:#C14F3C"/>
	</linearGradient>
	<polygon class="st10" points="468.46,111.25 468.46,81.83 483.64,81.83 483.64,88.43 475.14,88.43 475.14,93 483.38,93 
		483.38,99.6 475.14,99.6 475.14,104.65 483.64,104.65 483.64,111.25 	"/>
	<linearGradient id="SVGID_8_" gradientUnits="userSpaceOnUse" x1="530.9067" y1="83.9377" x2="369.3001" y2="147.7298">
		<stop  offset="0" style="stop-color:#415793"/>
		<stop  offset="0.1303" style="stop-color:#63538E"/>
		<stop  offset="0.3724" style="stop-color:#92397F"/>
		<stop  offset="0.4411" style="stop-color:#A24B75"/>
		<stop  offset="0.5618" style="stop-color:#BC6360"/>
		<stop  offset="0.6493" style="stop-color:#CC714D"/>
		<stop  offset="0.6941" style="stop-color:#D07645"/>
		<stop  offset="0.8853" style="stop-color:#C65C3F"/>
		<stop  offset="1" style="stop-color:#C14F3C"/>
	</linearGradient>
	<path class="st11" d="M501.53,111.26l-6.32-9.5h-0.07v9.5h-6.69V81.83h8.64c2.88,0,6.06,0.08,8.42,2.11
		c2.25,1.95,3.36,4.97,3.36,8.04c0,4.53-2.47,8.51-6.8,9.27l7.42,10.02H501.53z M497.69,88.43h-2.55v8.19h2.48
		c2.62,0,4.58-1.19,4.58-4.21C502.19,89.5,500.09,88.43,497.69,88.43"/>
	<linearGradient id="SVGID_9_" gradientUnits="userSpaceOnUse" x1="534.4394" y1="92.8866" x2="372.8307" y2="156.6796">
		<stop  offset="0" style="stop-color:#415793"/>
		<stop  offset="0.1303" style="stop-color:#63538E"/>
		<stop  offset="0.3724" style="stop-color:#92397F"/>
		<stop  offset="0.4411" style="stop-color:#A24B75"/>
		<stop  offset="0.5618" style="stop-color:#BC6360"/>
		<stop  offset="0.6493" style="stop-color:#CC714D"/>
		<stop  offset="0.6941" style="stop-color:#D07645"/>
		<stop  offset="0.8853" style="stop-color:#C65C3F"/>
		<stop  offset="1" style="stop-color:#C14F3C"/>
	</linearGradient>
	<path class="st12" d="M525.2,111.81c-7.72,0-14.37-6.44-14.37-14.91c0-2.19,0.33-4.26,1.07-6.28c0.41-1.15,1.07-2.31,1.77-3.3
		c2.81-3.98,6.91-6.04,11.56-6.04c7.98,0,14.44,6.6,14.44,15.27C539.67,105.25,533.21,111.81,525.2,111.81 M525.27,87.87
		c-4.47,0-7.46,3.98-7.46,8.59c0,4.69,2.99,8.75,7.54,8.75c4.4,0,7.35-4.14,7.35-8.63C532.69,92.01,529.74,87.87,525.27,87.87"/>
	<linearGradient id="SVGID_10_" gradientUnits="userSpaceOnUse" x1="531.2412" y1="84.7822" x2="369.6327" y2="148.5752">
		<stop  offset="0" style="stop-color:#415793"/>
		<stop  offset="0.1303" style="stop-color:#63538E"/>
		<stop  offset="0.3724" style="stop-color:#92397F"/>
		<stop  offset="0.4411" style="stop-color:#A24B75"/>
		<stop  offset="0.5618" style="stop-color:#BC6360"/>
		<stop  offset="0.6493" style="stop-color:#CC714D"/>
		<stop  offset="0.6941" style="stop-color:#D07645"/>
		<stop  offset="0.8853" style="stop-color:#C65C3F"/>
		<stop  offset="1" style="stop-color:#C14F3C"/>
	</linearGradient>
	<polygon class="st13" points="417.88,147.47 410.68,147.47 401.56,118.04 408.72,118.04 414.23,138.68 414.3,138.68 419.84,118.04 
		427.04,118.04 	"/>
	<linearGradient id="SVGID_11_" gradientUnits="userSpaceOnUse" x1="535.0148" y1="94.3439" x2="373.4072" y2="158.1365">
		<stop  offset="0" style="stop-color:#415793"/>
		<stop  offset="0.1303" style="stop-color:#63538E"/>
		<stop  offset="0.3724" style="stop-color:#92397F"/>
		<stop  offset="0.4411" style="stop-color:#A24B75"/>
		<stop  offset="0.5618" style="stop-color:#BC6360"/>
		<stop  offset="0.6493" style="stop-color:#CC714D"/>
		<stop  offset="0.6941" style="stop-color:#D07645"/>
		<stop  offset="0.8853" style="stop-color:#C65C3F"/>
		<stop  offset="1" style="stop-color:#C14F3C"/>
	</linearGradient>
	<polygon class="st14" points="430.12,147.47 430.13,118.04 445.31,118.04 445.31,124.64 436.81,124.64 436.81,129.21 
		445.05,129.21 445.05,135.81 436.81,135.81 436.81,140.86 445.31,140.86 445.31,147.47 	"/>
	<linearGradient id="SVGID_12_" gradientUnits="userSpaceOnUse" x1="538.1068" y1="102.1733" x2="376.4965" y2="165.9669">
		<stop  offset="0" style="stop-color:#415793"/>
		<stop  offset="0.1303" style="stop-color:#63538E"/>
		<stop  offset="0.3724" style="stop-color:#92397F"/>
		<stop  offset="0.4411" style="stop-color:#A24B75"/>
		<stop  offset="0.5618" style="stop-color:#BC6360"/>
		<stop  offset="0.6493" style="stop-color:#CC714D"/>
		<stop  offset="0.6941" style="stop-color:#D07645"/>
		<stop  offset="0.8853" style="stop-color:#C65C3F"/>
		<stop  offset="1" style="stop-color:#C14F3C"/>
	</linearGradient>
	<path class="st15" d="M463.2,147.46l-6.32-9.5h-0.07v9.5l-6.69,0v-29.43h8.64c2.88,0,6.06,0.08,8.42,2.11
		c2.25,1.95,3.36,4.97,3.36,8.03c0,4.53-2.48,8.51-6.8,9.27l7.42,10.02H463.2z M459.35,124.64h-2.55v8.19h2.47
		c2.62,0,4.58-1.19,4.58-4.22C463.86,125.71,461.76,124.64,459.35,124.64"/>
	<linearGradient id="SVGID_13_" gradientUnits="userSpaceOnUse" x1="543.2632" y1="115.2387" x2="381.6556" y2="179.0313">
		<stop  offset="0" style="stop-color:#415793"/>
		<stop  offset="0.1303" style="stop-color:#63538E"/>
		<stop  offset="0.3724" style="stop-color:#92397F"/>
		<stop  offset="0.4411" style="stop-color:#A24B75"/>
		<stop  offset="0.5618" style="stop-color:#BC6360"/>
		<stop  offset="0.6493" style="stop-color:#CC714D"/>
		<stop  offset="0.6941" style="stop-color:#D07645"/>
		<stop  offset="0.8853" style="stop-color:#C65C3F"/>
		<stop  offset="1" style="stop-color:#C14F3C"/>
	</linearGradient>
	<polygon class="st16" points="410.57,160.83 410.57,165.84 418.51,165.84 418.51,172.44 410.57,172.44 410.57,183.65 
		403.88,183.65 403.88,154.22 418.81,154.22 418.81,160.83 	"/>
	<linearGradient id="SVGID_14_" gradientUnits="userSpaceOnUse" x1="546.4964" y1="123.4296" x2="384.8889" y2="187.2221">
		<stop  offset="0" style="stop-color:#415793"/>
		<stop  offset="0.1303" style="stop-color:#63538E"/>
		<stop  offset="0.3724" style="stop-color:#92397F"/>
		<stop  offset="0.4411" style="stop-color:#A24B75"/>
		<stop  offset="0.5618" style="stop-color:#BC6360"/>
		<stop  offset="0.6493" style="stop-color:#CC714D"/>
		<stop  offset="0.6941" style="stop-color:#D07645"/>
		<stop  offset="0.8853" style="stop-color:#C65C3F"/>
		<stop  offset="1" style="stop-color:#C14F3C"/>
	</linearGradient>
	<polygon class="st17" points="423.62,183.65 423.62,154.22 438.8,154.22 438.8,160.83 430.3,160.83 430.3,165.4 438.54,165.4 
		438.54,172 430.3,172 430.3,177.05 438.8,177.05 438.8,183.65 	"/>
	<linearGradient id="SVGID_15_" gradientUnits="userSpaceOnUse" x1="549.1845" y1="130.2394" x2="387.577" y2="194.0319">
		<stop  offset="0" style="stop-color:#415793"/>
		<stop  offset="0.1303" style="stop-color:#63538E"/>
		<stop  offset="0.3724" style="stop-color:#92397F"/>
		<stop  offset="0.4411" style="stop-color:#A24B75"/>
		<stop  offset="0.5618" style="stop-color:#BC6360"/>
		<stop  offset="0.6493" style="stop-color:#CC714D"/>
		<stop  offset="0.6941" style="stop-color:#D07645"/>
		<stop  offset="0.8853" style="stop-color:#C65C3F"/>
		<stop  offset="1" style="stop-color:#C14F3C"/>
	</linearGradient>
	<polygon class="st18" points="443.61,183.65 443.61,154.22 450.59,154.22 450.59,177.05 458.68,177.05 458.68,183.65 	"/>
	<linearGradient id="SVGID_16_" gradientUnits="userSpaceOnUse" x1="551.3187" y1="135.6483" x2="389.7112" y2="199.4408">
		<stop  offset="0" style="stop-color:#415793"/>
		<stop  offset="0.1303" style="stop-color:#63538E"/>
		<stop  offset="0.3724" style="stop-color:#92397F"/>
		<stop  offset="0.4411" style="stop-color:#A24B75"/>
		<stop  offset="0.5618" style="stop-color:#BC6360"/>
		<stop  offset="0.6493" style="stop-color:#CC714D"/>
		<stop  offset="0.6941" style="stop-color:#D07645"/>
		<stop  offset="0.8853" style="stop-color:#C65C3F"/>
		<stop  offset="1" style="stop-color:#C14F3C"/>
	</linearGradient>
	<rect x="463.49" y="154.22" class="st19" width="6.98" height="29.43"/>
	<linearGradient id="SVGID_17_" gradientUnits="userSpaceOnUse" x1="553.6008" y1="141.4298" x2="391.9939" y2="205.2221">
		<stop  offset="0" style="stop-color:#415793"/>
		<stop  offset="0.1303" style="stop-color:#63538E"/>
		<stop  offset="0.3724" style="stop-color:#92397F"/>
		<stop  offset="0.4411" style="stop-color:#A24B75"/>
		<stop  offset="0.5618" style="stop-color:#BC6360"/>
		<stop  offset="0.6493" style="stop-color:#CC714D"/>
		<stop  offset="0.6941" style="stop-color:#D07645"/>
		<stop  offset="0.8853" style="stop-color:#C65C3F"/>
		<stop  offset="1" style="stop-color:#C14F3C"/>
	</linearGradient>
	<polygon class="st20" points="475.29,183.65 475.29,178.72 484.71,160.83 475.29,160.83 475.29,154.22 492.54,154.22 
		492.54,160.31 483.82,177.05 492.54,177.05 492.54,183.65 	"/>
</g>
</svg>
