<svg xmlns="http://www.w3.org/2000/svg" width="56" height="56" viewBox="0 0 56 56">
    <g fill="none" fill-rule="evenodd">
        <path fill="#FFF" fill-rule="nonzero" d="M44.207 5.6c.659-.395 1.45-.659 2.24-.659a4.274 4.274 0 0 1 4.282 4.283c0 .79-.197 1.58-.593 2.24a27.753 27.753 0 0 1 5.337 16.404c0 15.35-12.386 27.737-27.737 27.737C12.452 55.605 0 43.219 0 27.868 0 12.584 12.386.132 27.736.132A28.368 28.368 0 0 1 44.207 5.6"/>
        <path fill="#DF1122" fill-rule="nonzero" d="M47.962 13.308c-.46.198-.988.264-1.515.264a4.274 4.274 0 0 1-4.282-4.283c0-.527.131-1.054.263-1.515a24.87 24.87 0 0 0-14.626-4.743c-13.77 0-24.97 11.134-24.97 24.903 0 13.77 11.135 24.904 24.904 24.904 13.836.066 24.97-11.134 24.97-24.904 0-5.468-1.779-10.475-4.744-14.626"/>
        <path stroke="#DF1122" stroke-width=".08" d="M47.962 13.308c-.46.198-.988.264-1.515.264a4.274 4.274 0 0 1-4.282-4.283c0-.527.066-1.054.263-1.515a24.87 24.87 0 0 0-14.626-4.743C14.032 3.03 2.9 14.165 2.9 27.934c0 13.77 11.134 24.904 24.903 24.904 13.77 0 24.904-11.134 24.904-24.904 0-5.468-1.779-10.475-4.744-14.626z"/>
        <path fill="#DF1122" fill-rule="nonzero" d="M44.141 9.224a2.362 2.362 0 0 1 2.372-2.372 2.362 2.362 0 0 1 2.372 2.372 2.362 2.362 0 0 1-2.372 2.371 2.362 2.362 0 0 1-2.372-2.371"/>
        <circle cx="46.447" cy="9.224" r="2.372" stroke="#DF1122" stroke-width=".074"/>
        <path fill="#FDF737" fill-rule="nonzero" d="M49.807 21.939l-5.336 14.099h-3.097l2.042-4.612-3.689-9.487h3.097l1.976 6.127h.132l1.844-6.127zM39.266 29.054c0 2.24-2.438 3.097-4.81 3.097-2.305 0-4.743-.857-4.743-3.097h3.03c0 .725.989.922 1.713.922.725 0 1.648-.197 1.648-.856 0-.856-1.12-.988-2.965-1.45-1.845-.46-3.228-1.317-3.228-3.096 0-2.24 2.174-3.03 4.48-3.03 2.305 0 4.414.79 4.414 2.964h-3.03c0-.593-.791-.856-1.384-.856-.66 0-1.384.132-1.384.79 0 .857 1.318.923 2.767 1.318 1.91.593 3.492 1.318 3.492 3.294M25.167 26.88c0-1.318-.725-2.57-2.438-2.57s-2.24 1.384-2.24 2.57c0 1.252.66 2.57 2.372 2.57 1.779 0 2.306-1.384 2.306-2.57zm2.899 4.941h-2.833v-1.12H25.1c-.461.988-1.45 1.515-2.899 1.515-2.503 0-4.677-2.042-4.677-5.27 0-3.294 1.976-5.27 4.48-5.27 1.383 0 2.57.592 3.096 1.449h.132v-1.12h2.899l-.066 9.816zM35.972 36.104c-7.84-1.055-15.68-1.12-27.868-.264l.131-.527c12.189-1.054 21.807-1.647 27.012-1.45 3.097.066 4.019.33 4.019 1.45.066 1.12-1.318 1.054-3.294.79M12.847 25.826c-.066-.593-.395-1.779-2.042-1.779-1.516 0-1.977 1.252-2.043 1.779h4.085zm3.03.988c0 .395-.065.988-.065.988H8.696c.066 1.12.923 1.977 2.109 1.977.856 0 1.45-.33 1.713-.923h3.096c-.263 1.45-1.515 3.295-4.743 3.295-3.097 0-5.205-2.438-5.205-5.337 0-2.965 1.91-5.139 5.007-5.139 3.162 0 5.205 2.174 5.205 5.14z"/>
        <path fill="#FFF" fill-rule="nonzero" d="M15.35 42.296c.132-.131.33-.263.528-.329.197-.066.395-.132.593-.132.197 0 .395.066.593.132.197.066.395.198.527.33l.197.197-.46.461-.199-.263c-.065-.066-.197-.132-.329-.198s-.264-.066-.33-.066c-.131 0-.263 0-.329.066-.132.066-.197.132-.33.198-.065.066-.131.197-.197.33-.066.13-.066.263-.066.329 0 .131 0 .263.066.329.066.132.132.198.198.33a.846.846 0 0 0 .659.263c.131 0 .263 0 .329-.066.132-.066.198-.132.33-.198l.197-.197.461.46-.197.199c-.132.131-.33.263-.527.329-.198.066-.396.132-.593.132-.198 0-.396-.066-.593-.132-.198-.066-.33-.198-.527-.33a1.435 1.435 0 0 1-.33-.526c-.066-.198-.132-.396-.132-.593 0-.198.066-.396.132-.593.066-.132.198-.33.33-.462M18.908 42.692a.846.846 0 0 0-.263.659c0 .131 0 .263.066.395l.263-.264.33-.33.395-.394.263-.264c-.197-.066-.33-.132-.527-.066s-.395.132-.527.264zm1.516 1.12l.46.46-.197.199c-.132.131-.33.263-.527.329-.198.066-.395.132-.593.132-.198 0-.395-.066-.593-.132-.198-.066-.33-.198-.527-.33a1.435 1.435 0 0 1-.33-.526c-.065-.198-.131-.396-.131-.593 0-.198.066-.396.132-.593.066-.198.197-.33.33-.527.13-.132.328-.264.526-.33s.395-.132.593-.132c.198 0 .395.066.593.132.198.066.395.198.527.33l.198.197-1.713 1.713c.197.066.33.132.527.066.197 0 .395-.132.527-.263l.198-.132zM21.082 43.35c0-.197.066-.395.132-.592.066-.198.198-.33.33-.462.131-.131.329-.263.527-.329.197-.066.395-.132.593-.132.197 0 .395.066.592.132.198.066.33.198.528.33.131.131.263.329.329.46.066.198.132.396.132.594v1.58h-.593v-1.58c0-.132 0-.264-.066-.33-.066-.132-.132-.197-.198-.33-.066-.065-.197-.131-.33-.197-.13-.066-.263-.066-.394-.066-.132 0-.264 0-.396.066s-.197.132-.263.198-.132.197-.198.33c-.066.13-.066.197-.066.329v1.58h-.659v-1.58zM24.838 42.296c.131-.131.33-.263.527-.329s.395-.132.593-.132c.197 0 .395.066.593.132.197.066.395.198.527.33l.197.197-.46.461-.199-.197c-.065-.066-.197-.132-.329-.198s-.263-.066-.33-.066c-.131 0-.263 0-.329.066-.132.066-.197.132-.33.198-.065.066-.13.197-.197.33-.066.13-.066.263-.066.328 0 .132 0 .264.066.33.066.132.132.198.198.33a.846.846 0 0 0 .659.263c.131 0 .263 0 .33-.066.13-.066.197-.132.328-.198l.198-.197.461.46-.263.133c-.132.131-.33.263-.527.329-.198.066-.396.132-.593.132-.198 0-.396-.066-.593-.132-.198-.066-.33-.198-.527-.33a1.435 1.435 0 0 1-.33-.526c-.066-.198-.131-.396-.131-.593 0-.198.065-.396.131-.593.132-.132.264-.33.396-.462M28.066 43.35c0 .132 0 .264.066.396s.132.198.197.33c.066.065.198.131.33.197s.263.066.395.066.264 0 .395-.066c.132-.066.198-.132.33-.198.066-.066.132-.197.197-.33.066-.13.066-.263.066-.394 0-.132 0-.264-.066-.33-.065-.132-.131-.197-.197-.33-.066-.065-.198-.131-.33-.197-.131-.066-.263-.066-.395-.066s-.263 0-.395.066-.198.132-.33.198c-.065.066-.131.197-.197.33 0 .13-.066.197-.066.329m-.593 0c0-.198.066-.396.132-.593.066-.198.197-.33.33-.462.13-.131.329-.263.526-.329.198-.066.395-.132.593-.132.198 0 .395.066.593.132.198.066.33.198.527.33.132.131.264.329.33.46.065.198.131.396.131.594 0 .197-.066.395-.131.593-.066.197-.198.329-.33.527-.132.131-.33.263-.527.329-.198.066-.395.132-.593.132-.198 0-.395-.066-.593-.132-.197-.066-.33-.198-.527-.33a1.435 1.435 0 0 1-.33-.526 1.316 1.316 0 0 1-.131-.593M33.534 41.835v.593H31.69c-.065 0-.131 0-.197.066s-.066.132-.066.198 0 .132.066.197c.066.066.132.066.197.066h1.252c.132 0 .264 0 .33.066a.91.91 0 0 1 .263.198c.066.066.132.197.198.33a.594.594 0 0 1 .066.329c0 .131 0 .263-.066.395s-.132.198-.198.33c-.066.065-.198.131-.263.197a.716.716 0 0 1-.33.066h-1.845v-.593h1.845c.066 0 .198 0 .198-.066.066-.066.066-.132.066-.198 0-.065 0-.131-.066-.197s-.132-.066-.198-.066H31.69c-.131 0-.263 0-.395-.066s-.198-.132-.263-.198c-.066-.066-.132-.197-.198-.263-.066-.132-.066-.264-.066-.395 0-.132 0-.264.066-.33.066-.132.132-.198.198-.33.065-.065.197-.131.263-.197.132-.066.264-.066.395-.066h1.845v-.066zM37.158 41.835v1.516c0 .197-.066.395-.132.593-.066.197-.198.329-.33.527-.131.131-.329.263-.527.329-.197.066-.395.132-.593.132-.197 0-.395-.066-.592-.132-.198-.066-.33-.198-.528-.33a1.435 1.435 0 0 1-.329-.526c-.066-.198-.132-.396-.132-.593v-1.516h.593v1.516c0 .131 0 .263.066.395s.132.198.198.33c.066.065.197.131.33.197.13.066.263.066.394.066.132 0 .264 0 .396-.066s.197-.132.33-.198c.065-.066.13-.197.197-.33.066-.13.066-.263.066-.394v-1.516h.593zM38.87 44.273c.132 0 .264 0 .33-.066.132-.066.198-.132.264-.198.065-.065.131-.197.197-.329s.066-.264.066-.395v-.923h-.856c-.132 0-.264 0-.396.066-.131.066-.197.132-.33.198-.065.066-.13.198-.197.33-.066.131-.066.197-.066.329 0 .131 0 .263.066.395s.132.198.198.33c.066.065.198.131.33.197.131.066.263.066.395.066zm1.582-3.69v2.768c0 .197-.066.395-.132.593-.066.197-.198.329-.33.527-.131.131-.329.263-.46.329-.198.066-.396.132-.594.132-.197 0-.395-.066-.592-.132-.198-.066-.33-.198-.528-.33a1.435 1.435 0 0 1-.329-.526c-.066-.198-.132-.396-.132-.593 0-.198.066-.396.132-.593.066-.198.198-.33.33-.462.131-.131.329-.263.527-.329.197-.066.395-.132.592-.132h.923v-1.251h.593z"/>
    </g>
</svg>
