<svg xmlns="http://www.w3.org/2000/svg" width="56" height="56" viewBox="0 0 56 56">
    <g fill="none" fill-rule="evenodd">
        <path fill="#FFF" fill-rule="nonzero" d="M44.207 5.666c.659-.395 1.45-.659 2.24-.659A4.274 4.274 0 0 1 50.73 9.29c0 .791-.197 1.582-.593 2.24a27.753 27.753 0 0 1 5.337 16.405c0 15.285-12.386 27.67-27.67 27.67C12.517 55.605.131 43.22.131 27.935.132 12.65 12.518.264 27.802.264c6.127 0 11.793 2.042 16.405 5.402"/>
        <path fill="#DF0F20" fill-rule="nonzero" d="M47.896 13.374c-.46.198-.988.264-1.515.264A4.274 4.274 0 0 1 42.1 9.355c0-.527.066-1.054.263-1.515a24.87 24.87 0 0 0-14.626-4.744C14.033 3.096 2.9 14.231 2.9 27.934c0 13.704 11.134 24.838 24.903 24.838 13.704 0 24.904-11.134 24.904-24.838a25.343 25.343 0 0 0-4.81-14.56"/>
        <path stroke="#DF0F20" stroke-width=".074" d="M47.896 13.374c-.46.198-.988.264-1.515.264A4.274 4.274 0 0 1 42.1 9.355c0-.527.066-1.054.263-1.515a24.87 24.87 0 0 0-14.626-4.744C14.033 3.096 2.9 14.231 2.9 27.934c0 13.704 11.134 24.838 24.903 24.838 13.704 0 24.904-11.134 24.904-24.838a25.343 25.343 0 0 0-4.81-14.56z"/>
        <path fill="#DF0F20" fill-rule="nonzero" d="M44.075 9.29a2.362 2.362 0 0 1 2.372-2.372 2.362 2.362 0 0 1 2.372 2.371 2.362 2.362 0 0 1-2.372 2.372 2.362 2.362 0 0 1-2.372-2.372"/>
        <circle cx="46.447" cy="9.289" r="2.372" stroke="#DF0F20" stroke-width=".069"/>
        <path fill="#FFF" fill-rule="nonzero" d="M15.35 42.296c.132-.131.33-.263.528-.329.197-.066.395-.132.593-.132.197 0 .395.066.593.132.197.066.395.198.527.33l.197.197-.395.461-.264-.197c-.065-.066-.197-.132-.329-.198s-.264-.066-.33-.066c-.131 0-.263 0-.329.066-.132.066-.197.132-.33.198-.065.066-.131.197-.197.33-.066.13-.066.263-.066.328 0 .132 0 .264.066.33.066.132.132.198.198.33a.846.846 0 0 0 .659.263c.131 0 .263 0 .329-.066.132-.066.198-.132.33-.198l.197-.197.395.46-.197.198c-.132.132-.33.264-.527.33-.198.066-.396.132-.593.132-.198 0-.396-.066-.593-.132-.198-.066-.33-.198-.527-.33a1.435 1.435 0 0 1-.33-.527c-.066-.197-.131-.395-.131-.593 0-.197.065-.395.131-.592.132-.198.264-.396.396-.528M18.908 42.758a.846.846 0 0 0-.263.658c0 .132 0 .264.066.396l.263-.264.33-.33.395-.394.263-.264c-.197-.066-.395-.132-.527-.066-.197 0-.395.132-.527.264zm1.516 1.12l.46.46-.197.198c-.132.132-.33.264-.527.33-.198.066-.395.132-.593.132-.198 0-.395-.066-.593-.132-.198-.066-.33-.198-.527-.33a1.435 1.435 0 0 1-.33-.527c-.065-.197-.131-.395-.131-.593 0-.197.066-.395.132-.592.066-.198.197-.33.33-.528.13-.131.328-.263.526-.329s.395-.132.593-.132c.198 0 .395.066.593.132.198.066.395.198.527.33l.198.197-1.713 1.713c.197.066.33.132.527.066.197 0 .395-.132.527-.264l.198-.131zM21.082 43.416c0-.197.066-.395.132-.592.066-.198.198-.33.33-.462.131-.131.329-.263.527-.33.197-.065.395-.13.593-.13.197 0 .395.065.592.13.198.067.33.199.528.33.131.132.263.33.329.462.066.197.132.395.132.592v1.582h-.593v-1.582c0-.131 0-.263-.066-.329-.066-.132-.132-.198-.198-.33-.066-.065-.197-.131-.263-.197-.132-.066-.264-.066-.396-.066-.131 0-.263 0-.395.066s-.198.132-.33.198c-.065.066-.131.197-.197.33-.066.13-.066.197-.066.328v1.582h-.659v-1.582zM24.838 42.296c.131-.131.33-.263.527-.329s.395-.132.593-.132c.197 0 .395.066.593.132.197.066.395.198.527.33l.197.197-.395.461-.198-.197c-.066-.066-.197-.132-.33-.198-.13-.066-.263-.066-.328-.066-.132 0-.264 0-.33.066-.132.066-.198.132-.33.198-.065.066-.131.197-.197.33-.066.13-.066.263-.066.328 0 .132 0 .264.066.33.066.132.132.198.198.33a.846.846 0 0 0 .659.263c.131 0 .263 0 .329-.066.132-.066.198-.132.33-.198l.197-.197.395.46-.263.133c-.132.131-.33.263-.527.329-.198.066-.396.132-.593.132-.198 0-.396-.066-.593-.132-.198-.066-.33-.198-.527-.33a1.435 1.435 0 0 1-.33-.526c-.066-.132-.066-.33-.066-.528 0-.197.066-.395.132-.592 0-.198.132-.396.33-.528M28.066 43.416c0 .132 0 .264.066.396s.132.197.197.33c.066.065.198.13.33.197.132.066.263.066.395.066s.264 0 .395-.066c.132-.066.198-.132.264-.198s.132-.197.198-.33c.065-.131.065-.263.065-.395 0-.131 0-.263-.065-.329-.066-.132-.132-.198-.198-.33-.066-.065-.198-.131-.264-.197-.131-.066-.263-.066-.395-.066s-.263 0-.395.066-.198.132-.33.198c-.065.066-.131.197-.197.33-.066.065-.066.197-.066.328m-.593 0c0-.197.066-.395.132-.592.066-.198.197-.33.33-.462.13-.131.329-.263.526-.33.198-.065.395-.13.593-.13.198 0 .395.065.593.13.198.067.33.199.527.33.132.132.264.33.33.462.065.197.131.395.131.592 0 .198-.066.396-.131.593-.066.198-.198.33-.33.527-.132.132-.33.264-.527.33-.198.066-.395.132-.593.132-.198 0-.395-.066-.593-.132-.197-.066-.33-.198-.527-.33a1.435 1.435 0 0 1-.33-.527c-.131-.197-.131-.395-.131-.593M33.534 41.835v.593h-1.91c-.066 0-.132 0-.198.066s-.066.132-.066.198 0 .132.066.197c.066.066.132.066.198.066h1.251c.132 0 .264 0 .33.066.131.066.197.132.33.198.065.066.13.197.197.263a.594.594 0 0 1 .066.33c0 .132 0 .263-.066.395s-.132.198-.198.33c-.066.065-.198.131-.33.197-.131.066-.263.066-.329.066h-1.844v-.593h1.844c.066 0 .198 0 .198-.066.066-.066.066-.132.066-.197 0-.066 0-.132-.066-.198s-.132-.066-.198-.066h-1.251c-.132 0-.264 0-.396-.066a.91.91 0 0 1-.263-.198c-.066-.065-.132-.197-.198-.329s-.066-.263-.066-.395 0-.264.066-.33c.066-.131.132-.197.198-.263s.197-.132.263-.198c.132-.066.264-.066.396-.066h1.91zM37.092 41.835v1.516c0 .197-.066.395-.132.593-.066.197-.198.329-.33.527-.131.131-.329.263-.526.329-.198.066-.396.132-.593.132-.198 0-.396-.066-.593-.132-.198-.066-.33-.198-.527-.33a1.435 1.435 0 0 1-.33-.526c-.066-.198-.132-.396-.132-.593v-1.516h.593v1.516c0 .131 0 .263.066.395s.132.198.198.33c.066.065.198.131.263.197.132.066.264.066.396.066.131 0 .263 0 .395-.066s.198-.132.33-.198c.065-.066.131-.197.197-.33.066-.13.066-.263.066-.394v-1.516h.659zM38.805 44.339c.131 0 .263 0 .33-.066.13-.066.197-.132.329-.198.065-.066.131-.197.197-.33.066-.13.066-.263.066-.394v-.923h-.922c-.132 0-.264 0-.396.066-.131.066-.197.132-.329.198-.066.066-.132.197-.198.263-.066.132-.066.198-.066.33 0 .131 0 .263.066.395s.132.198.198.33c.066.065.198.131.33.197.197.132.263.132.395.132zm1.58-3.755v2.767c0 .197-.065.395-.13.593-.067.197-.199.329-.33.527-.132.131-.33.263-.461.329-.198.066-.396.132-.593.132-.198 0-.396-.066-.593-.132-.198-.066-.33-.198-.527-.33a1.435 1.435 0 0 1-.33-.526c-.066-.198-.132-.396-.132-.593 0-.198.066-.396.132-.593.066-.198.198-.33.33-.462.131-.131.329-.263.527-.329.197-.066.395-.132.593-.132h.922v-1.251h.593zM9.158 25.562l-1.713 9.62h2.437l1.713-9.62zM10.739 34.852c.527.263 1.45.527 2.437.527 2.24 0 3.558-.988 3.822-2.306.197-.988-.33-1.713-1.713-2.174-.923-.33-1.186-.461-1.12-.79.066-.33.46-.528 1.054-.528.659 0 1.317.198 1.647.395l.659-1.515c-.461-.197-1.186-.395-2.109-.395-1.976 0-3.36.988-3.623 2.306-.132.856.33 1.647 1.91 2.108.857.264 1.055.461.989.79-.066.33-.396.594-1.12.594-.725 0-1.647-.264-2.043-.528l-.79 1.516zM22.005 32.678c0 .131-.066.263-.132.395-.264.461-.79.79-1.384.79-.527 0-.922-.263-.79-.856.132-.856 1.186-1.12 2.503-1.12l-.197.79zm2.635-1.647c.264-1.647-.264-3.031-2.899-3.031-1.45 0-2.57.33-3.162.659l.197 1.383c.593-.263 1.45-.527 2.24-.527 1.186 0 1.318.527 1.252.923v.066c-2.767 0-4.81.856-5.073 2.7-.197 1.12.593 2.175 2.174 2.175.923 0 1.78-.33 2.438-.857h.066v.66h2.24c0-.396.066-1.055.198-1.714l.329-2.437zM28.264 31.228c0-.132.065-.263.131-.395.264-.659.989-1.054 1.647-1.054 1.12 0 1.516.856 1.318 1.976-.198 1.252-.988 1.977-2.042 1.977-.725 0-1.186-.461-1.252-1.054v-.396l.198-1.054zm-2.768 1.845c-.131.79-.329 1.647-.46 2.108h2.108l.263-.988c.395.856 1.252 1.12 2.174 1.12 1.779 0 3.821-1.252 4.283-3.755.395-2.174-.725-3.558-2.636-3.558-1.12 0-1.976.395-2.57.988l.726-4.019h-2.438l-1.45 8.104zM36.63 30.899c.132-.593.725-1.45 1.78-1.45 1.12 0 1.251.923 1.12 1.45h-2.9zm4.81 1.515c.066-.132.198-.461.264-.856.329-1.713-.33-3.492-2.9-3.492-2.766 0-4.348 1.976-4.611 3.755-.395 2.174.922 3.558 3.558 3.558 1.054 0 2.042-.132 2.964-.461l-.066-1.45c-.724.198-1.383.33-2.24.33-1.12 0-2.108-.462-1.976-1.318h5.007v-.066zM41.704 35.181h2.437l1.845-10.146h-2.504zM10.014 23.981c.593.33 1.713.593 2.965.593 2.965 0 4.612-1.383 4.875-2.965.264-1.383-.461-2.24-2.306-2.898-1.317-.462-1.91-.725-1.779-1.384.066-.461.66-.922 1.713-.922 1.054 0 1.78.263 2.174.46l.857-1.778c-.593-.263-1.45-.461-2.701-.461-2.57 0-4.348 1.252-4.612 2.899-.264 1.383.79 2.306 2.504 2.899 1.251.395 1.712.724 1.58 1.317-.131.659-.79 1.054-1.91 1.054-1.054 0-2.042-.33-2.635-.593l-.725 1.78zM22.861 21.873c0 .132-.066.263-.132.395-.263.461-.79.79-1.383.79-.527 0-.922-.263-.79-.856.131-.856 1.185-1.12 2.503-1.12l-.198.79zm2.635-1.581c.264-1.647-.263-3.03-2.898-3.03-1.45 0-2.57.329-3.163.658l.198 1.384c.593-.264 1.45-.528 2.24-.528 1.186 0 1.318.528 1.252.923v.066c-2.767 0-4.81.856-5.073 2.7-.198 1.12.593 2.175 2.174 2.175.922 0 1.779-.33 2.438-.856h.065v.658h2.24c0-.395.066-1.054.198-1.713l.33-2.437zM25.958 24.442h2.437l.725-4.018c0-.198.066-.396.198-.528.263-.395.724-.79 1.383-.79.857 0 1.12.593.988 1.515l-.658 3.887h2.437l.725-4.15c.395-2.043-.659-3.03-2.306-3.03-1.318 0-2.24.658-2.635 1.12h-.066l.066-.99h-2.108c-.066.66-.198 1.384-.33 2.24l-.856 4.744zM36.433 16.141l-.198 1.318h-1.054l-.263 1.581h1.054l-.527 2.899c-.198.988-.066 1.647.33 2.108.329.33.987.593 1.778.593.659 0 1.318-.066 1.647-.198l.264-1.647c-.264.066-.396.066-.725.066-.725 0-.923-.395-.725-1.252l.461-2.569h1.78l.263-1.581h-1.78l.33-1.91-2.635.592zM44.405 21.873c0 .132-.066.263-.132.395-.198.461-.79.79-1.384.79-.527 0-.922-.263-.79-.856.132-.856 1.186-1.12 2.503-1.12l-.197.79zm2.7-1.581c.264-1.647-.263-3.03-2.898-3.03-1.45 0-2.57.329-3.162.658l.197 1.384c.593-.264 1.45-.528 2.24-.528 1.186 0 1.318.528 1.252.923v.066c-2.767 0-4.81.856-5.073 2.7-.197 1.12.593 2.175 2.174 2.175.923 0 1.78-.33 2.438-.856h.066v.658h2.24c0-.395.066-1.054.197-1.713l.33-2.437z"/>
    </g>
</svg>
