<svg xmlns="http://www.w3.org/2000/svg" width="56" height="56" viewBox="0 0 56 56">
    <g fill="none" fill-rule="evenodd">
        <path fill="#FFF" fill-rule="nonzero" d="M44.207 5.6c.659-.395 1.45-.659 2.24-.659a4.344 4.344 0 0 1 4.348 4.348c0 .791-.197 1.582-.593 2.24C53.562 16.141 55.54 21.807 55.54 28c0 15.35-12.452 27.802-27.803 27.802C12.452 55.736 0 43.285 0 27.934 0 12.584 12.452.198 27.802.198c6.127 0 11.86 1.976 16.405 5.402"/>
        <path fill="#F67F29" fill-rule="nonzero" d="M47.962 13.308c-.46.198-.988.264-1.515.264a4.274 4.274 0 0 1-4.282-4.283c0-.527.066-1.054.263-1.515-4.15-2.965-9.223-4.743-14.692-4.743C13.967 3.03 2.767 14.23 2.767 28c0 13.77 11.2 24.97 24.97 24.97 13.769 0 24.969-11.2 24.969-24.97a24.049 24.049 0 0 0-4.744-14.692"/>
        <path stroke="#F67F29" stroke-width=".074" d="M47.962 13.308c-.46.198-.988.264-1.515.264a4.274 4.274 0 0 1-4.282-4.283c0-.527.066-1.054.263-1.515-4.15-2.965-9.223-4.743-14.692-4.743C13.967 3.03 2.767 14.23 2.767 28c0 13.77 11.2 24.97 24.97 24.97 13.769 0 24.969-11.2 24.969-24.97a24.049 24.049 0 0 0-4.744-14.692z"/>
        <path fill="#F67F29" fill-rule="nonzero" d="M44.141 9.224a2.362 2.362 0 0 1 2.372-2.372 2.362 2.362 0 0 1 2.372 2.372 2.362 2.362 0 0 1-2.372 2.371 2.362 2.362 0 0 1-2.372-2.371"/>
        <circle cx="46.513" cy="9.224" r="2.372" stroke="#F67F29" stroke-width=".069"/>
        <path fill="#FFF" fill-rule="nonzero" d="M15.35 42.362c.132-.131.33-.263.528-.33.197-.065.395-.13.593-.13.197 0 .395.065.593.13.197.067.395.199.527.33l.197.198-.46.461-.264-.197c-.066-.066-.198-.132-.33-.198s-.263-.066-.33-.066c-.065 0-.263 0-.329.066-.131.066-.197.132-.33.198-.065.065-.13.197-.197.329-.066.132-.066.263-.066.33 0 .131 0 .263.066.329.066.132.132.197.198.33a.846.846 0 0 0 .659.263c.131 0 .263 0 .33-.066.13-.066.197-.132.329-.198l.197-.197.461.46-.197.198c-.132.132-.33.264-.527.33-.198.066-.396.132-.593.132-.198 0-.396-.066-.593-.132-.198-.066-.33-.198-.527-.33a1.435 1.435 0 0 1-.33-.527c-.066-.197-.131-.395-.131-.593 0-.197.065-.395.131-.593.132-.197.198-.395.396-.527M18.842 42.824a.846.846 0 0 0-.263.658c0 .132 0 .264.066.396l.263-.264.33-.33.395-.395.263-.263c-.197-.066-.329-.132-.527-.066-.197 0-.395.066-.527.264zm1.582 1.12l.46.46-.197.198c-.132.132-.33.264-.527.33-.198.066-.395.132-.593.132-.198 0-.395-.066-.593-.132-.198-.066-.33-.198-.527-.33a1.435 1.435 0 0 1-.33-.527c-.065-.197-.131-.395-.131-.593 0-.197.066-.395.132-.593.066-.197.197-.329.33-.527.13-.131.328-.263.526-.33.198-.065.395-.13.593-.13.198 0 .395.065.593.13.198.067.395.199.527.33l.198.198-1.78 1.779c.199.066.33.132.528.066s.395-.132.527-.264l.264-.197zM21.016 43.482c0-.197.066-.395.132-.593.066-.197.198-.329.33-.46.131-.133.33-.264.527-.33s.395-.132.593-.132c.197 0 .395.066.593.132.197.066.329.197.527.33.131.131.263.329.33.46.065.198.13.396.13.593v1.582h-.592v-1.582c0-.131 0-.263-.066-.33-.066-.13-.132-.197-.198-.328-.066-.066-.197-.132-.33-.198-.13-.066-.263-.066-.394-.066-.132 0-.264 0-.396.066-.131.066-.197.132-.33.198-.065.065-.13.197-.197.329-.066.132-.066.263-.066.33v1.58h-.593v-1.58zM24.772 42.362c.132-.131.33-.263.527-.33.197-.065.395-.13.593-.13.197 0 .395.065.593.13.197.067.395.199.527.33l.197.198-.46.461-.198-.197c-.066-.066-.198-.132-.33-.198s-.263-.066-.33-.066c-.131 0-.263 0-.329.066-.131.066-.197.132-.33.198-.065.065-.13.197-.197.329-.066.132-.066.263-.066.33 0 .131 0 .263.066.329.066.132.132.197.198.33a.846.846 0 0 0 .659.263c.132 0 .263 0 .33-.066.13-.066.197-.132.329-.198l.197-.197.461.46-.197.132c-.132.132-.33.264-.527.33-.198.066-.396.132-.593.132-.198 0-.396-.066-.593-.132-.198-.066-.33-.198-.527-.33a1.435 1.435 0 0 1-.33-.527c-.066-.131-.066-.329-.066-.527 0-.197.066-.395.132-.593 0-.197.132-.395.264-.527M28.066 43.482c0 .132 0 .264.066.396.066.131.132.197.197.33.066.065.198.13.33.197.132.066.263.066.395.066s.264 0 .395-.066c.132-.066.198-.132.264-.198s.132-.198.198-.33c.065-.131.065-.263.065-.395 0-.131 0-.263-.065-.33-.066-.13-.132-.197-.198-.328-.066-.066-.198-.132-.264-.198-.131-.066-.263-.066-.395-.066s-.263 0-.395.066-.198.132-.33.198c-.065.065-.131.197-.197.329-.066.066-.066.198-.066.33m-.659 0c0-.198.066-.396.132-.594.066-.197.197-.329.33-.46.131-.133.329-.264.526-.33.198-.066.396-.132.593-.132.198 0 .396.066.593.132.198.066.33.197.527.33.132.131.264.329.33.46.066.198.131.396.131.593 0 .198-.065.396-.131.593-.066.198-.198.33-.33.527-.132.132-.33.264-.527.33s-.395.132-.593.132c-.197 0-.395-.066-.593-.132-.197-.066-.33-.198-.527-.33a1.435 1.435 0 0 1-.33-.527c-.065-.197-.13-.395-.13-.593M33.534 41.901v.593H31.69c-.065 0-.131 0-.197.066s-.066.132-.066.198 0 .131.066.197.132.066.197.066h1.252c.132 0 .264 0 .33.066a.91.91 0 0 1 .263.198c.066.066.132.197.198.33a.594.594 0 0 1 .066.329c0 .131 0 .263-.066.395s-.132.197-.198.33c-.066.065-.198.131-.263.197-.132.066-.264.066-.33.066h-1.845v-.593h1.845c.066 0 .198 0 .198-.066.066-.066.066-.132.066-.198s0-.131-.066-.197-.132-.066-.198-.066H31.69c-.131 0-.263 0-.395-.066s-.198-.132-.263-.198c-.066-.066-.132-.197-.198-.33-.066-.13-.066-.263-.066-.394 0-.132 0-.264.066-.33.066-.132.132-.198.198-.33.065-.065.197-.131.263-.197.132-.066.264-.066.395-.066h1.845zM37.158 41.901v1.581c0 .198-.066.396-.132.593-.066.198-.198.33-.33.527-.131.132-.329.264-.527.33-.197.066-.395.132-.593.132-.197 0-.395-.066-.592-.132-.198-.066-.33-.198-.528-.33a1.435 1.435 0 0 1-.329-.527c-.066-.197-.132-.395-.132-.593v-1.58h.593v1.58c0 .132 0 .264.066.396.066.131.132.197.198.33.066.065.197.13.33.197.13.066.263.066.394.066.132 0 .264 0 .396-.066s.197-.132.33-.198c.065-.066.13-.198.197-.33.066-.131.066-.263.066-.395v-1.58h.593zM38.87 44.405c.132 0 .264 0 .33-.066.132-.066.198-.132.33-.198.065-.066.131-.197.197-.33.066-.131.066-.263.066-.395v-.922h-.922c-.132 0-.264 0-.396.066-.131.066-.197.132-.33.198-.065.066-.13.197-.197.33-.066.13-.066.197-.066.328 0 .132 0 .264.066.396s.132.197.198.33c.066.065.198.13.33.197.131 0 .263.066.395.066zm1.582-3.756v2.833c0 .198-.066.396-.132.593-.066.198-.198.33-.33.527-.131.132-.329.264-.46.33-.198.066-.396.132-.594.132-.197 0-.395-.066-.592-.132-.198-.066-.33-.198-.528-.33a1.435 1.435 0 0 1-.329-.527c-.066-.197-.132-.395-.132-.593 0-.197.066-.395.132-.593.066-.197.198-.329.33-.46.131-.133.329-.264.527-.33.197-.066.395-.132.592-.132h.923v-1.252h.593v-.066zM32.414 31.294h-1.186V27.21c0-.724-.197-1.251-.527-1.647a2.17 2.17 0 0 0-1.45-.527c-.592 0-1.053.198-1.383.593-.395.396-.527.988-.527 1.713v4.019h-1.186v-3.953c0-1.054.264-1.91.857-2.57.593-.592 1.317-.922 2.24-.922.922 0 1.647.33 2.24.923.593.593.856 1.383.856 2.437v4.02h.066zM51.652 31.294h-1.186V27.21c0-.724-.198-1.251-.527-1.647-.395-.395-.79-.593-1.384-.593-.593 0-1.054.198-1.383.593-.33.396-.527.989-.527 1.713v4.02h-1.186V27.34c0-1.054.263-1.91.856-2.57.593-.592 1.318-.922 2.24-.922.923 0 1.647.33 2.24.923.593.593.857 1.383.857 2.437v4.085zM14.955 25.035c-.724 0-1.317.264-1.779.725-.46.527-.724 1.12-.724 1.91 0 .791.263 1.384.724 1.845.462.527 1.055.725 1.78.725.724 0 1.317-.264 1.778-.725.461-.527.725-1.12.725-1.844a2.87 2.87 0 0 0-.725-1.911 2.433 2.433 0 0 0-1.779-.725m0 6.39c-1.054 0-1.91-.329-2.635-1.053-.725-.725-1.054-1.581-1.054-2.701 0-1.055.33-1.977 1.054-2.702.725-.724 1.581-1.054 2.635-1.054 1.054 0 1.91.33 2.636 1.054.724.725 1.054 1.647 1.054 2.702 0 1.054-.33 1.976-1.054 2.7-.725.66-1.582 1.055-2.636 1.055M41.374 25.035c-.725 0-1.318.264-1.779.725-.46.527-.724 1.12-.724 1.91 0 .791.263 1.384.724 1.845.461.527 1.054.725 1.78.725.724 0 1.317-.264 1.778-.725.461-.527.725-1.12.725-1.844a2.87 2.87 0 0 0-.725-1.911c-.527-.461-1.054-.725-1.779-.725m0 6.39c-1.054 0-1.91-.329-2.635-1.053-.725-.725-1.054-1.581-1.054-2.701 0-1.055.33-1.977 1.054-2.702.725-.724 1.581-1.054 2.635-1.054 1.054 0 1.91.33 2.635 1.054.725.725 1.055 1.647 1.055 2.702 0 1.054-.33 1.976-1.055 2.7-.724.66-1.58 1.055-2.635 1.055M35.181 31.426c-.725 0-1.45-.198-2.174-.659l-.132-.066.396-.922.197.066c.66.33 1.252.46 1.78.46.394 0 .658-.065.921-.263.198-.197.33-.395.33-.724 0-.198-.066-.33-.198-.527-.132-.132-.395-.33-1.317-.725-.791-.33-1.318-.659-1.582-.988a1.789 1.789 0 0 1-.395-1.12c0-.593.264-1.054.725-1.45.46-.395 1.054-.593 1.713-.593.593 0 1.251.198 1.91.593l.198.132-.527.988-.198-.132c-.527-.329-.988-.46-1.45-.46-.394 0-.658.065-.922.263-.263.197-.329.395-.329.659 0 .197.066.33.198.527.066.066.395.33 1.317.659.79.329 1.318.658 1.582.988.263.33.395.79.395 1.186 0 .593-.264 1.12-.725 1.515-.461.395-1.054.593-1.713.593M19.106 31.36v-8.828h1.186v2.042c.527-.461 1.186-.659 1.976-.659.923 0 1.647.33 2.24.923.593.593.857 1.383.857 2.437v4.085h-1.186v-4.085c0-.724-.198-1.251-.527-1.647-.33-.395-.79-.593-1.384-.593-.593 0-1.054.198-1.383.593-.396.396-.527.988-.527 1.713v4.019h-1.252zM6.193 32.81c-.79 0-1.45-.132-2.108-.462l-.198-.066.395-1.186.198.132c.461.264.988.396 1.647.396.988 0 1.779-.33 2.372-.989s.922-1.58.922-2.833v-5.27h1.252v5.204c0 1.582-.395 2.833-1.252 3.756-.79.922-1.91 1.317-3.228 1.317"/>
    </g>
</svg>
