<svg xmlns="http://www.w3.org/2000/svg" width="56" height="56" viewBox="0 0 56 56">
    <g fill="none" fill-rule="nonzero">
        <path fill="#FFF" d="M4.348 27.934c0 12.979 10.541 23.454 23.454 23.454S51.256 40.913 51.256 28c0-12.913-10.475-23.454-23.454-23.454-12.913 0-23.454 10.475-23.454 23.388m-4.084 0C.264 12.715 12.584.395 27.802.395c15.22 0 27.54 12.386 27.54 27.54 0 15.218-12.32 27.538-27.54 27.538-15.218 0-27.538-12.32-27.538-27.539"/>
        <path fill="#00ABEB" d="M2.965 27.934c0-13.703 11.134-24.838 24.837-24.838 13.704 0 24.838 11.135 24.838 24.838 0 13.704-11.134 24.838-24.838 24.838-13.703 0-24.837-11.068-24.837-24.838"/>
        <path fill="#FFF" d="M41.704 8.828c0-2.503 2.042-4.48 4.48-4.48 2.503 0 4.48 2.043 4.48 4.48 0 2.504-2.043 4.48-4.48 4.48-2.438 0-4.48-2.042-4.48-4.48"/>
        <path fill="#00ABEB" d="M43.812 8.828a2.432 2.432 0 0 1 2.437-2.437 2.432 2.432 0 0 1 2.438 2.437 2.432 2.432 0 0 1-2.438 2.438 2.432 2.432 0 0 1-2.437-2.438"/>
        <path fill="#FFF" d="M14.89 27.736c0 3.031-.923 4.678-2.834 4.678a3.545 3.545 0 0 1-3.03-1.713v-5.666c.79-.988 1.779-1.647 2.965-1.647 1.778.066 2.898 1.516 2.898 4.348m1.582 0c0-4.018-1.78-5.731-4.085-5.731-1.515 0-2.635.724-3.426 1.647v-1.384H7.313v15.483l1.647-.923v-4.546c.79.923 1.779 1.516 3.162 1.516 2.438 0 4.349-2.043 4.349-6.062M25.167 30.833c-.659.922-1.779 1.713-3.228 1.713-1.384 0-2.306-.725-2.306-2.438 0-1.45.988-2.24 2.635-2.24 1.384 0 2.174.264 2.9.66v2.305zm1.581 2.767v-7.906c0-2.635-1.515-3.69-3.953-3.69-1.45 0-2.833.396-3.82.923l.592 1.318c.922-.527 1.91-.857 3.097-.857 1.647 0 2.437.79 2.437 2.504v1.317c-.659-.395-1.713-.658-2.833-.658-2.24 0-4.348 1.054-4.348 3.623 0 2.767 1.845 3.624 3.624 3.624 1.647 0 2.767-.725 3.557-1.647V33.6h1.647zM35.181 22.334c-.395-.198-.922-.263-1.779-.263-1.186 0-2.306.724-2.833 1.647v-1.384h-1.58V33.6h1.646v-6.654c0-2.174.857-3.426 2.438-3.426.725 0 1.252.198 1.713.461l.395-1.647zM37.026 22.268h1.647V33.6h-1.647zM48.16 30.635c0-2.042-1.252-2.635-3.36-3.623-1.91-.857-2.504-1.252-2.504-2.174 0-.79.66-1.384 1.845-1.384 1.186 0 1.91.33 2.833.988l.922-1.186c-.856-.724-2.042-1.185-3.623-1.185-2.042 0-3.558 1.185-3.558 2.898 0 1.845.923 2.504 3.229 3.492 1.976.857 2.7 1.384 2.7 2.306 0 1.12-.724 1.779-2.305 1.779-1.12 0-2.174-.461-3.097-1.252l-.922 1.186c1.054.856 2.438 1.45 4.019 1.45 1.91-.132 3.821-1.055 3.821-3.295M15.548 42.626c.132-.132.33-.264.527-.33.198-.065.396-.131.593-.131.198 0 .396.066.593.131.198.066.395.198.527.33l.198.198-.461.46-.198-.197c-.066-.066-.198-.132-.33-.198-.065-.065-.197-.065-.329-.065s-.263 0-.33.065c-.13.066-.197.132-.329.198-.065.066-.131.198-.197.33-.066.131-.066.263-.066.329 0 .132 0 .263.066.33.066.131.132.197.197.329a.846.846 0 0 0 .66.263c.131 0 .263 0 .395-.066.131-.066.197-.131.329-.197l.198-.198.46.461-.263.198c-.132.132-.33.263-.527.33-.197.065-.395.131-.593.131-.197 0-.395-.066-.593-.132a1.435 1.435 0 0 1-.527-.33 1.435 1.435 0 0 1-.33-.526c-.065-.198-.13-.395-.13-.593 0-.198.065-.395.13-.593.067-.198.198-.33.33-.527M20.687 44.207l.461.461-.197.198c-.132.132-.33.263-.527.33-.198.065-.396.131-.593.131-.198 0-.396-.066-.593-.132a1.435 1.435 0 0 1-.527-.33 1.435 1.435 0 0 1-.33-.526c-.066-.198-.132-.395-.132-.593 0-.198.066-.395.132-.593.066-.198.198-.395.33-.527.131-.132.329-.264.527-.33.197-.065.395-.131.593-.131.197 0 .395.066.593.131.197.066.395.198.527.33l.197.198-1.713 1.712c.198.066.396.132.527.066.198 0 .396-.131.527-.263l.198-.132zm-1.581-1.12a.846.846 0 0 0-.264.659c0 .132 0 .263.066.395l.264-.263.395-.396.395-.395.264-.263h-.593c-.198 0-.33.131-.527.263zM21.346 43.746c0-.198.066-.395.132-.593.066-.198.197-.33.33-.527.13-.132.328-.264.526-.33.198-.065.395-.131.593-.131.198 0 .395.066.593.131.198.066.33.198.527.33.132.132.264.33.33.527.065.198.131.395.131.593v1.581h-.593v-1.581c0-.132 0-.264-.066-.395-.065-.132-.131-.198-.197-.33-.066-.066-.198-.132-.33-.197h-.395c-.132 0-.263 0-.395.065-.132.066-.198.132-.33.198-.066.066-.131.198-.197.33-.066.131-.066.263-.066.395v1.58h-.593v-1.646zM25.167 42.626c.132-.132.33-.264.527-.33.198-.065.395-.131.593-.131.198 0 .395.066.593.131.198.066.395.198.527.33l.198.198-.461.46-.198-.197c-.066-.066-.198-.132-.33-.198-.131-.065-.263-.065-.395-.065s-.263 0-.33.065c-.131.066-.197.132-.329.198-.066.066-.131.198-.197.33-.066.131-.066.263-.066.329 0 .132 0 .263.066.33.066.131.131.197.197.329a.846.846 0 0 0 .66.263c.13 0 .263 0 .394-.066.132-.066.198-.131.33-.197l.198-.198.46.461-.197.198c-.132.132-.33.263-.527.33-.198.065-.395.131-.593.131-.198 0-.395-.066-.593-.132a1.435 1.435 0 0 1-.527-.33 1.435 1.435 0 0 1-.33-.526c-.065-.198-.131-.395-.131-.593 0-.198.066-.395.132-.593.066-.198.131-.33.33-.527M27.802 43.746c0-.198.066-.395.132-.593.066-.198.198-.33.33-.527.131-.132.329-.264.527-.33.197-.065.395-.131.593-.131.197 0 .395.066.592.131.198.066.33.198.528.33.131.132.263.33.329.527.066.198.132.395.132.593 0 .198-.066.395-.132.593-.066.197-.198.33-.33.527-.131.132-.329.263-.527.33-.197.065-.395.131-.592.131-.198 0-.396-.066-.593-.132-.198-.066-.33-.197-.527-.33a1.435 1.435 0 0 1-.33-.526 1.573 1.573 0 0 1-.132-.593m.66 0c0 .132 0 .263.065.395.066.132.132.198.198.33.066.065.197.131.33.197.13.066.263.066.394.066.132 0 .264 0 .396-.066.131-.066.197-.132.33-.197.065-.066.13-.198.197-.33.066-.132.066-.263.066-.395s0-.264-.066-.395c-.066-.132-.132-.198-.198-.33-.066-.066-.198-.132-.33-.197h-.46c-.132 0-.264 0-.396.065-.132.066-.197.132-.33.198-.065.066-.13.198-.197.33v.329M33.995 42.165v.659h-1.91c-.066 0-.132 0-.198.065-.066.066-.066.132-.066.198s0 .198.066.264c.066.065.132.065.198.065h1.251c.132 0 .264 0 .396.066s.197.132.33.198c.065.066.13.198.197.33.066.131.066.263.066.395 0 .131 0 .263-.066.395s-.132.198-.198.33c-.066.065-.197.131-.33.197-.131.066-.263.066-.395.066h-1.91V44.8h1.91c.066 0 .198 0 .264-.066s.066-.132.066-.263c0-.066 0-.132-.066-.198s-.132-.066-.264-.066h-1.251c-.132 0-.264 0-.396-.066a.91.91 0 0 1-.263-.197c-.066-.066-.132-.198-.198-.33s-.066-.263-.066-.395 0-.264.066-.395c.066-.132.132-.198.198-.33.066-.066.198-.132.263-.198.132-.065.264-.065.396-.065h1.91v-.066zM37.619 42.165v1.58c0 .199-.066.396-.132.594-.066.197-.198.33-.33.527-.131.132-.329.263-.526.33-.198.065-.396.131-.593.131-.198 0-.396-.066-.593-.132-.198-.066-.33-.197-.527-.33a1.435 1.435 0 0 1-.33-.526c-.066-.198-.132-.395-.132-.593v-1.581h.593v1.58c0 .133 0 .264.066.396s.132.198.198.33c.066.065.198.131.33.197.131.066.263.066.395.066.131 0 .263 0 .395-.066s.198-.132.33-.197c.065-.066.131-.198.197-.33s.066-.263.066-.395v-1.581h.593zM40.979 40.913v2.833c0 .198-.066.395-.132.593-.066.197-.198.33-.33.527-.131.132-.329.263-.526.33-.198.065-.396.131-.593.131-.198 0-.396-.066-.593-.132-.198-.066-.33-.197-.527-.33a1.435 1.435 0 0 1-.33-.526c-.066-.198-.132-.395-.132-.593 0-.198.066-.395.132-.593.066-.198.198-.33.33-.527.131-.132.33-.264.527-.33.197-.065.395-.131.593-.131h.922v-1.252h.659zm-1.581 3.755c.131 0 .263 0 .395-.066s.198-.131.33-.197c.065-.066.131-.198.197-.33.066-.131.066-.263.066-.395v-.856h-.922c-.132 0-.264 0-.396.065-.132.066-.197.132-.33.198-.065.066-.13.198-.197.33-.066.131-.066.263-.066.395s0 .263.066.395.132.198.198.33c.066.065.197.131.33.197.065-.066.197-.066.329-.066z"/>
    </g>
</svg>
