<svg xmlns="http://www.w3.org/2000/svg" width="86" height="88" viewBox="0 0 86 88">
    <defs>
        <linearGradient id="a" x1="322.731%" x2="-222.501%" y1="-372.4%" y2="428.06%">
            <stop offset="0%" stop-color="#3E538B"/>
            <stop offset="14.2%" stop-color="#604F85"/>
            <stop offset="37.24%" stop-color="#8A3978"/>
            <stop offset="41.43%" stop-color="#924373"/>
            <stop offset="54.77%" stop-color="#AF5E60"/>
            <stop offset="64.45%" stop-color="#C06D4E"/>
            <stop offset="69.41%" stop-color="#C67246"/>
            <stop offset="87.83%" stop-color="#BA5B40"/>
            <stop offset="100%" stop-color="#B54F3D"/>
        </linearGradient>
        <linearGradient id="b" x1="454.128%" x2="-379.645%" y1="-335.858%" y2="501.147%">
            <stop offset="0%" stop-color="#3E538B"/>
            <stop offset="14.2%" stop-color="#604F85"/>
            <stop offset="37.24%" stop-color="#8A3978"/>
            <stop offset="41.43%" stop-color="#924373"/>
            <stop offset="54.77%" stop-color="#AF5E60"/>
            <stop offset="64.45%" stop-color="#C06D4E"/>
            <stop offset="69.41%" stop-color="#C67246"/>
            <stop offset="87.83%" stop-color="#BA5B40"/>
            <stop offset="100%" stop-color="#B54F3D"/>
        </linearGradient>
        <linearGradient id="c" x1="107.351%" x2="-17.763%" y1="-11.939%" y2="123.446%">
            <stop offset="0%" stop-color="#3E538B"/>
            <stop offset="14.2%" stop-color="#604F85"/>
            <stop offset="37.24%" stop-color="#8A3978"/>
            <stop offset="41.43%" stop-color="#924373"/>
            <stop offset="54.77%" stop-color="#AF5E60"/>
            <stop offset="64.45%" stop-color="#C06D4E"/>
            <stop offset="69.41%" stop-color="#C67246"/>
            <stop offset="87.83%" stop-color="#BA5B40"/>
            <stop offset="100%" stop-color="#B54F3D"/>
        </linearGradient>
    </defs>
    <g fill="none" fill-rule="nonzero">
        <path fill="url(#a)" d="M26.83 52.39c-.46 0-.83-.37-.83-.83V40.15c0-1.19.97-2.15 2.15-2.15h3.32c1.93 0 3.67 1.14 4.45 2.9.67 1.52.52 3.25-.42 4.63a4.984 4.984 0 0 1-4.13 2.19h-3.72v3.85c.01.45-.36.82-.82.82zm1.33-12.73a.49.49 0 0 0-.49.49v5.9h3.72c1.1 0 2.13-.55 2.75-1.46.61-.9.71-2.03.27-3.02a3.2 3.2 0 0 0-2.93-1.91h-3.32z" transform="translate(1 1)"/>
        <path fill="url(#b)" d="M48.44 51.22l-4.58-10.1a2.042 2.042 0 0 0-1.89-1.21h-.01c-.82 0-1.54.46-1.89 1.21l-4.58 10.1c-.19.41-.01.91.41 1.09.42.19.91.01 1.1-.41l1.76-3.88h6.4l1.76 3.88c.15.3.44.49.76.49.12 0 .22-.03.34-.08.43-.18.62-.68.42-1.09zm-8.92-4.85l2.07-4.55c.1-.22.29-.24.37-.24.09 0 .28.02.38.24l2.07 4.55h-4.89z" transform="translate(1 1)"/>
        <path fill="url(#c)" d="M13.32 14.16C5.95 21.75 2.08 31.96 2.44 42.89c.5 15.94 11.35 41.23 38.36 41.23h.09c12-.02 23.57-4.66 30.97-12.39 5.51-5.77 8.26-12.71 7.93-20.06-.19-4.21-2.13-7.95-5.47-10.54-3.47-2.69-7.89-3.71-12.14-2.81-3.38.71-6.28 1.13-8.95 1.28-.03 4.52-.06 11.11-.01 11.81.07.35-.1.72-.44.9-.12.06-.24.09-.37.09-.3 0-.6-.17-.74-.46-.12-.22-.19-.36-.1-12.28-.2.01-.38.01-.57.01h-4.47V38H51c3.16 0 6.6-.42 10.83-1.32 4.72-1 9.64.15 13.5 3.14 3.73 2.89 5.91 7.07 6.12 11.77.34 7.82-2.56 15.17-8.39 21.28-7.7 8.06-19.72 12.88-32.17 12.91h-.06C25.84 85.78 1.76 74.16.78 42.94.41 31.56 4.45 20.92 12.12 13 19.81 5.07 30.49.7 42.21.7c20.93 0 36.02 10.76 41.43 29.5l-1.6.46c-7.09-24.62-28-28.29-39.83-28.29-11.27 0-21.53 4.19-28.89 11.79z" transform="translate(1 1)"/>
    </g>
</svg>
