<svg xmlns="http://www.w3.org/2000/svg" width="130" height="50" viewBox="0 0 130 50">
    <g fill="none" fill-rule="nonzero">
        <path fill="#C8C9CB" d="M27.642.137c1.3.274 2.669.48 3.969.822 2.12.548 4.173 1.438 6.089 2.603-.479 1.096-.616 1.164-1.505.685-2.669-1.507-5.406-2.33-8.416-2.672-4.037-.48-7.937 0-11.7 1.644C8.826 6.37 4.105 11.85 2.395 19.658c-1.642 7.328 0 13.972 4.72 19.863 3.696 4.52 8.485 7.328 14.232 8.219 6.706 1.027 12.932-.48 18.269-4.795 4.858-3.904 7.731-8.972 8.552-15.205.41-3.493.274-6.918-.89-10.274-.067-.069-.067-.206-.067-.274 1.026-.685 1.094-.685 1.436.41 1.095 3.562 1.3 7.193.685 10.96-.89 5.959-3.695 10.89-8.21 14.794-3.422 3.014-7.459 4.863-11.975 5.617-.41.068-1.094-.206-1.368.48h-.684c-.821-.343-1.642-.138-2.463-.138-.548 0-1.095-.205-1.643.137h-.684c0-.41-.342-.274-.547-.342-3.08-.411-5.953-1.37-8.69-2.877-3.557-1.986-6.5-4.726-8.69-8.22C2.259 34.727.959 31.165.617 27.26c0-.205 0-.48-.342-.48v-.342a6.685 6.685 0 0 0 0-3.287v-.48c.547-.068.41-.41.41-.685.069-.685.137-1.37.274-2.054.82-4.179 2.6-7.877 5.337-11.096 3.694-4.384 8.279-7.124 13.89-8.288.82-.137 1.641-.069 2.394-.48 1.642.069 3.353.069 5.063.069z"/>
        <path fill="#1D87C9" d="M2.805 25.068c0-11.3 7.937-20.547 18.953-22.328 4.995-.754 9.716.068 14.163 2.534.479.274.547.48.342 1.027-1.163 2.877-.82 5.685 1.095 8.083 1.984 2.534 4.653 3.561 7.868 3.15.685-.068.958 0 1.163.685 3.9 12.808-4.105 26.165-17.31 28.699C16.9 49.178 5.063 40.89 3.01 28.63c-.069-1.233-.206-2.466-.206-3.562zm30.79-3.287c0-1.165.068-2.397 0-3.699-.137-4.246-3.763-7.74-8.006-7.671-4.447.068-8.005 3.562-8.005 7.877v3.561c-.205 0-.41.069-.547.069-1.437.068-1.574.205-1.574 1.644v11.986c0 1.233.205 1.438 1.437 1.438h17.31c1.3 0 1.506-.205 1.506-1.507v-11.3c0-1.987 0-1.987-1.916-2.193l-.205-.205z"/>
        <path fill="#060606" d="M129.59 15.753h-9.648c-.41 3.151 2.326 5.548 5.269 4.726 1.094-.274 1.915-.958 2.257-1.986.343-1.096.958-1.233 1.916-1.027.069 1.575-1.368 3.63-3.147 4.178-3.763 1.096-7.39-.206-7.937-5.274-.205-1.918.068-3.699 1.095-5.343 1.231-1.917 3.147-2.534 5.337-2.328 1.984.205 3.352 1.37 4.173 3.15.548 1.165.684 2.466.684 3.904zm-9.648-1.37h8.005c-.068-2.534-1.779-4.383-3.968-4.451-2.19 0-3.968 1.986-4.037 4.452zM84.774 15.753h-9.58c-.341 1.987 1.027 4.247 2.943 4.795 2.12.616 3.968-.343 4.79-2.329.341-.822.341-.822 1.641-.685.137 1.507-1.368 3.63-3.01 4.11-3.695 1.096-7.595 0-8.005-5.548-.137-1.712.136-3.356.958-4.863 1.163-2.055 3.01-2.808 5.268-2.671 2.053.137 3.49 1.233 4.31 3.013.548 1.37.685 2.672.685 4.178zm-1.642-1.37c-.069-2.67-1.848-4.52-4.106-4.451-2.12.068-3.968 2.191-3.9 4.452h8.006z"/>
        <path fill="#070707" d="M61.853 17.534h1.505c.137.685.274 1.439.82 2.055 1.3 1.37 4.243 1.438 5.68.206.958-.89.82-2.33-.274-3.083-.958-.616-2.052-.685-3.079-.959-.82-.205-1.71-.41-2.463-.821-2.19-1.096-2.395-4.042-.342-5.411 1.847-1.233 3.9-1.302 5.953-.411 1.436.685 2.052 1.917 2.052 3.493-.479.137-.958.068-1.437.068-.82-2.466-2.463-3.356-4.72-2.603-1.027.343-1.574.96-1.643 1.85 0 .822.41 1.37 1.369 1.78 1.163.48 2.394.686 3.626.96 2.463.547 3.763 2.465 3.079 4.589-.41 1.232-1.368 1.917-2.532 2.328a7.557 7.557 0 0 1-3.694.274c-2.464-.41-3.627-1.712-3.9-4.315zM98.937 8.973h1.574V17.603c.136 1.712.82 2.602 2.12 2.945 1.711.41 3.216-.069 4.106-1.438.752-1.096.89-2.398.89-3.699v-6.37h1.505v12.603h-1.437V19.52c-1.232 1.849-2.806 2.534-4.721 2.465-2.327-.068-3.832-1.301-3.969-3.63-.205-3.082 0-6.164-.068-9.383z"/>
        <path fill="#060606" d="M44.474 8.973l6.363-7.398c.342.48.684.96.958 1.37.137.206.068.411-.069.617l-7.184 10.48c0 .068-.068.068-.205.136-1.78-2.192-3.558-4.452-5.337-6.644.41-.548.821-1.096 1.3-1.712a95.08 95.08 0 0 1 4.174 3.15z"/>
        <path fill="#070707" d="M95.584 17.123h1.437c.068 2.466-2.053 4.795-4.584 4.863-3.832.206-6.432-2.328-6.569-6.164-.068-1.85.274-3.63 1.437-5.069 1.78-2.328 5.474-2.808 7.869-1.164 1.094.822 1.642 1.918 1.847 3.288-.479.205-1.026 0-1.505.068-.069-.137-.137-.274-.137-.342-.41-1.439-1.232-2.466-2.805-2.603-1.642-.205-3.01.342-3.969 1.712-1.573 2.192-1.368 5.89.48 7.74 1.026 1.096 2.326 1.438 3.762 1.096 1.506-.411 2.327-1.438 2.669-2.945 0-.137 0-.274.068-.48z"/>
        <path fill="#0A6CB5" d="M67.19 31.164c0-.068-.685-.068-1.095-.068a3.728 3.728 0 0 1 0-1.233h2.873v3.288c0 .342-.205.41-.41.48-1.3.342-2.6.479-3.9.136-1.369-.342-2.258-1.233-2.463-2.671-.274-1.37.205-2.603 1.3-3.493 1.231-.96 3.694-1.165 5.2-.411-.069.41-.137.822-.41 1.233-.822-.206-1.643-.411-2.532-.206-1.164.206-1.848 1.028-1.848 2.123 0 1.165.753 1.987 1.916 2.192 1.437.137 1.642 0 1.368-1.37z"/>
        <path fill="#060606" d="M113.51 21.644h-1.573V9.04h1.437v2.534c.547-.822 1.094-1.575 1.984-2.054.82-.48 1.779-.685 2.805-.685.137.48.069.959.069 1.438-.274.274-.548.137-.821.205-2.258.274-3.832 1.987-3.832 4.247-.137 2.26-.068 4.52-.068 6.918z"/>
        <path fill="#0A6CB5" d="M107.079 33.22c-1.3.821-2.532.753-3.353-.275-.752-.89-.752-2.534.069-3.493.89-1.027 2.12-1.164 3.42-.274.206-.685.753-.41 1.37-.41-.138 1.848.136 3.63-.138 5.41-.136.959-.82 1.575-1.779 1.78-.615.138-1.3.138-1.984 0-1.095-.205-1.163-.273-.752-1.3 2.463.547 3.284.205 3.147-1.439zm0-1.987c0-1.028-.41-1.575-1.232-1.507-.752 0-1.368.685-1.368 1.575 0 .822.616 1.576 1.368 1.576.821-.069 1.232-.617 1.232-1.644zM94.284 33.493c.137-.48.274-.89.41-1.37.753.274 1.438.48 2.19.411.41-.068.821-.068.89-.548.137-.548-.274-.685-.685-.822-.478-.205-1.026-.342-1.505-.616-.752-.343-1.163-.959-1.163-1.78 0-.823.479-1.44 1.232-1.782 1.163-.48 2.394-.41 3.626.069-.137.48-.274.89-.41 1.301-.616-.137-1.232-.41-1.848-.274-.342.069-.753.137-.821.548-.137.48.274.617.616.754.479.205 1.026.342 1.505.616.821.342 1.3 1.027 1.232 1.918-.069.959-.616 1.575-1.506 1.85-1.231.41-2.463.273-3.763-.275zM80.737 33.288c-.069.89-.753.48-1.232.548v-7.398c.48-.068.89-.068 1.3 0v2.877c.684-.48 1.3-.753 1.984-.685.753.069 1.369.343 1.78 1.028.684 1.095.547 2.876-.411 3.698-.958.822-2.258.822-3.421-.068zm.068-1.987c0 .96.48 1.576 1.369 1.576.82 0 1.437-.617 1.437-1.576 0-.959-.548-1.575-1.369-1.575-.89-.068-1.368.548-1.437 1.575zM78.342 31.233c0 1.644-1.163 2.74-2.805 2.74-1.71 0-2.805-1.028-2.805-2.603 0-1.644 1.094-2.74 2.805-2.74 1.71 0 2.805 1.028 2.805 2.603zm-1.437.068c0-.959-.547-1.643-1.3-1.643-.82 0-1.437.684-1.437 1.643 0 .96.616 1.713 1.437 1.713.753-.069 1.3-.685 1.3-1.713zM109.953 28.699c.547.137 1.163-.274 1.231.548.274 0 .41-.274.616-.411 1.3-.754 2.737-.137 3.01 1.37.206 1.164.069 2.328.137 3.561h-1.436v-2.74c0-.89-.411-1.301-1.027-1.37-.684 0-1.163.548-1.163 1.37V33.7c-.479.137-.89.068-1.368 0v-5zM89.016 33.425c-.548.342-1.027.548-1.642.548-.753-.069-1.3-.343-1.574-1.096a1.52 1.52 0 0 1 .821-1.918c.342-.206.684-.274 1.095-.343.342-.068.752-.068 1.163-.137-.068-.958-.616-1.095-2.463-.547-.205-.206-.274-.48-.274-.822.89-.48 1.847-.617 2.874-.343.89.206 1.3.89 1.368 1.78.069 1.097 0 2.193 0 3.357-.547-.137-1.095.206-1.368-.48zm-.069-2.055c-.547 0-.958.068-1.368.274-.342.137-.547.41-.41.822.136.41.41.548.82.548.685-.069 1.027-.617.958-1.644zM71.979 39.52h-1.505c-.274 0-.548 0-.548-.342s.342-.342.548-.342h2.873c.206.822-.205 1.301-.82 1.643-1.506.822-3.08.822-4.585 0-1.231-.684-1.231-1.986 0-2.74 1.574-.958 3.969-.753 5.063.48-.616.069-1.094.069-1.642-.205-.752-.411-1.574-.343-2.326.137-.821.548-.821 1.37-.069 1.917.89.685 2.327.48 3.01-.547zM76.426 39.384c.41-.685.821-1.302 1.232-1.85.137-.205.274-.342.547-.342.206.068.274.274.342.41l1.027 3.288c-1.027.274-1.027.274-1.71-1.643-.411.274-.548.753-.822 1.095-.41.548-.753.548-1.095 0-.205-.342-.479-.753-.684-1.095-.616.616-.068 2.26-1.847 1.712.342-1.164.684-2.329 1.095-3.493.205-.548.547-.206.752.068.41.548.753 1.165 1.163 1.85zM82.447 41.027c-.752 0-1.642-.205-2.326-.753-.89-.685-.89-1.644-.068-2.329 1.3-1.096 3.968-1.096 5.2 0 .82.685.82 1.713-.069 2.329-.752.616-1.642.753-2.737.753zm.206-3.287c-1.095 0-1.916.616-1.916 1.37 0 .753.89 1.301 1.916 1.301 1.026 0 1.984-.685 1.915-1.37 0-.685-.89-1.301-1.915-1.301zM93.053 33.767c-.41.137-.821.069-1.3 0v-7.329c.41-.205.82-.068 1.3-.068v7.397zM70.337 33.904v-7.397c.41-.206.82 0 1.231-.137v7.397c-.342.137-.752 0-1.231.137z"/>
        <path fill="#C8C9CB" d="M55.558 47.123V3.7h.068v43.356c0 .068 0 .068-.068.068z"/>
        <path fill="#0A6CB5" d="M101.947 33.767h-1.231v-5c.41-.205.82 0 1.231-.137v5.137z"/>
        <path fill="#1D87C9" d="M64.726 39.52c-.137 1.37-.273 1.439-1.847 1.233v-1.78c0-.274-.205-.685.274-.685.41 0 .136.48.342.685.547-.137.89.274 1.231.548z"/>
        <path fill="#0A6CB5" d="M64.726 39.589c.137-.137-.137-.548.206-.48.479.07.273.549.547.823.41-.069.068-1.028.821-.754-.205.685-.41 1.301-.616 1.918-.137.342-.342.548-.684.342-.41-.205.137-.342.137-.548.137-.479-.069-.958-.41-1.301 0-.068 0 0 0 0zM102.153 27.192c-.069.548-.342.822-.821.822-.48 0-.821-.274-.821-.822 0-.48.342-.754.82-.685.48 0 .822.274.822.685z"/>
        <path fill="#1D87C9" d="M31.405 22.603H19.98c.068-1.918-.205-3.836.205-5.754.753-2.945 3.216-4.726 6.158-4.452 2.669.206 4.926 2.671 5.063 5.617.069 1.507 0 3.013 0 4.589zM27.163 34.11h-3.079c.137-1.302.274-2.535.41-3.836.07-.411 0-.616-.273-.959-1.026-.959-1.026-2.26-.137-3.22.89-.89 2.258-.89 3.148 0 .89.891.89 2.261-.137 3.22-.274.274-.342.548-.274.959.068 1.233.205 2.534.342 3.836z"/>
    </g>
</svg>
