<?xml version="1.0" encoding="utf-8"?>
<!-- Generator: Adobe Illustrator 23.0.2, SVG Export Plug-In . SVG Version: 6.00 Build 0)  -->
<svg version="1.1" id="Capa_1" xmlns="http://www.w3.org/2000/svg" xmlns:xlink="http://www.w3.org/1999/xlink" x="0px" y="0px"
	 viewBox="0 0 92.02 94.19" style="enable-background:new 0 0 92.02 94.19;" xml:space="preserve">
<style type="text/css">
	.st0{fill:none;stroke:url(#SVGID_1_);stroke-width:1.5014;stroke-miterlimit:10;}
	.st1{clip-path:url(#SVGID_6_);}
	.st2{clip-path:url(#SVGID_7_);}
	.st3{fill:url(#SVGID_8_);}
	.st4{fill:url(#SVGID_9_);}
	.st5{clip-path:url(#SVGID_14_);}
	.st6{clip-path:url(#SVGID_15_);}
	.st7{fill:url(#SVGID_16_);}
	.st8{fill:url(#SVGID_17_);}
</style>
<g>
	<linearGradient id="SVGID_1_" gradientUnits="userSpaceOnUse" x1="2.8651" y1="47.4247" x2="89.4432" y2="47.4247">
		<stop  offset="0" style="stop-color:#B24D3F"/>
		<stop  offset="0.0829" style="stop-color:#B5593D"/>
		<stop  offset="0.2366" style="stop-color:#BF7330"/>
		<stop  offset="0.3033" style="stop-color:#C47E24"/>
		<stop  offset="0.3373" style="stop-color:#BF7935"/>
		<stop  offset="0.4039" style="stop-color:#B26C4F"/>
		<stop  offset="0.4955" style="stop-color:#9D5568"/>
		<stop  offset="0.5768" style="stop-color:#8A3978"/>
		<stop  offset="0.6545" style="stop-color:#79457E"/>
		<stop  offset="0.7568" style="stop-color:#644E84"/>
		<stop  offset="0.8517" style="stop-color:#525288"/>
		<stop  offset="0.9357" style="stop-color:#44538B"/>
		<stop  offset="1" style="stop-color:#3E538B"/>
	</linearGradient>
	<circle class="st0" cx="46.15" cy="47.42" r="42.54"/>
	<g>
		<g>
			<defs>
				<path id="SVGID_2_" d="M60.98,43.24h-3.42v-8.23c0-6.53-5.22-11.84-11.66-11.84c-6.45,0-11.66,5.31-11.66,11.84v8.23H30.8
					c-0.32,0-0.59,0.21-0.59,0.53v24.89c0.01,0.32,0.27,0.58,0.59,0.58h30.18c0.32,0,0.58-0.26,0.59-0.58V43.77
					C61.57,43.46,61.3,43.24,60.98,43.24z M35.38,35.01c0-5.89,4.7-10.69,10.52-10.69s10.52,4.8,10.52,10.69v8.23h-2.2v-8.23
					c0-4.68-3.72-8.49-8.32-8.49c-4.6,0-8.32,3.81-8.32,8.49v8.23h-2.2V35.01z M53.06,43.24H38.72v-8.23c0-4.05,3.2-7.34,7.17-7.34
					c3.97,0,7.17,3.29,7.17,7.34V43.24z M60.42,68.1H31.36V44.39h29.06V68.1z"/>
			</defs>
			<defs>
				<path id="SVGID_3_" d="M30.8,69.55c-0.49,0-0.88-0.39-0.89-0.88l0-24.9c0-0.46,0.39-0.83,0.89-0.83h3.13v-7.93
					c0-6.69,5.37-12.14,11.96-12.14s11.96,5.44,11.96,12.14v7.93h3.12c0.5,0,0.89,0.36,0.89,0.83v24.89
					c-0.01,0.49-0.4,0.88-0.89,0.88H30.8z M30.8,43.54c-0.14,0-0.29,0.08-0.29,0.23v24.89c0,0.15,0.13,0.28,0.29,0.28h30.17
					c0.16,0,0.29-0.13,0.29-0.29l0-24.89c0-0.15-0.15-0.23-0.29-0.23h-3.73v-8.53c0-6.36-5.1-11.54-11.36-11.54
					s-11.36,5.18-11.36,11.54v8.53H30.8z M60.72,68.4H31.06V44.09h29.66V68.4z M31.66,67.8h28.46V44.69H31.66V67.8z M56.71,43.54
					h-2.8v-8.53c0-4.51-3.6-8.19-8.02-8.19s-8.02,3.67-8.02,8.19v8.53h-2.8v-8.53c0-6.06,4.85-10.99,10.82-10.99
					s10.82,4.93,10.82,10.99V43.54z M54.51,42.94h1.6v-7.93c0-5.73-4.58-10.39-10.22-10.39s-10.22,4.66-10.22,10.39v7.93h1.6v-7.93
					c0-4.85,3.87-8.79,8.62-8.79s8.62,3.94,8.62,8.79V42.94z M53.36,43.54H38.42v-8.53c0-4.21,3.35-7.64,7.47-7.64
					s7.47,3.43,7.47,7.64V43.54z M39.02,42.94h13.74v-7.93c0-3.88-3.08-7.04-6.87-7.04c-3.79,0-6.87,3.16-6.87,7.04V42.94z"/>
			</defs>
			<linearGradient id="SVGID_4_" gradientUnits="userSpaceOnUse" x1="15.2468" y1="72.9102" x2="103.637" y2="8.0752">
				<stop  offset="0" style="stop-color:#B24D3F"/>
				<stop  offset="0.0829" style="stop-color:#B5593D"/>
				<stop  offset="0.2366" style="stop-color:#BF7330"/>
				<stop  offset="0.3033" style="stop-color:#C47E24"/>
				<stop  offset="0.3373" style="stop-color:#BF7935"/>
				<stop  offset="0.4039" style="stop-color:#B26C4F"/>
				<stop  offset="0.4955" style="stop-color:#9D5568"/>
				<stop  offset="0.5768" style="stop-color:#8A3978"/>
				<stop  offset="0.6545" style="stop-color:#79457E"/>
				<stop  offset="0.7568" style="stop-color:#644E84"/>
				<stop  offset="0.8517" style="stop-color:#525288"/>
				<stop  offset="0.9357" style="stop-color:#44538B"/>
				<stop  offset="1" style="stop-color:#3E538B"/>
			</linearGradient>
			<use xlink:href="#SVGID_2_"  style="overflow:visible;fill:url(#SVGID_4_);"/>
			<linearGradient id="SVGID_5_" gradientUnits="userSpaceOnUse" x1="15.2483" y1="72.9123" x2="103.6385" y2="8.0773">
				<stop  offset="0" style="stop-color:#B24D3F"/>
				<stop  offset="0.0829" style="stop-color:#B5593D"/>
				<stop  offset="0.2366" style="stop-color:#BF7330"/>
				<stop  offset="0.3033" style="stop-color:#C47E24"/>
				<stop  offset="0.3373" style="stop-color:#BF7935"/>
				<stop  offset="0.4039" style="stop-color:#B26C4F"/>
				<stop  offset="0.4955" style="stop-color:#9D5568"/>
				<stop  offset="0.5768" style="stop-color:#8A3978"/>
				<stop  offset="0.6545" style="stop-color:#79457E"/>
				<stop  offset="0.7568" style="stop-color:#644E84"/>
				<stop  offset="0.8517" style="stop-color:#525288"/>
				<stop  offset="0.9357" style="stop-color:#44538B"/>
				<stop  offset="1" style="stop-color:#3E538B"/>
			</linearGradient>
			<use xlink:href="#SVGID_3_"  style="overflow:visible;fill:url(#SVGID_5_);"/>
			<clipPath id="SVGID_6_">
				<use xlink:href="#SVGID_2_"  style="overflow:visible;"/>
			</clipPath>
			<clipPath id="SVGID_7_" class="st1">
				<use xlink:href="#SVGID_3_"  style="overflow:visible;"/>
			</clipPath>
			<g class="st2">
				<linearGradient id="SVGID_8_" gradientUnits="userSpaceOnUse" x1="14.3077" y1="71.63" x2="102.698" y2="6.795">
					<stop  offset="0" style="stop-color:#B24D3F"/>
					<stop  offset="0.0829" style="stop-color:#B5593D"/>
					<stop  offset="0.2366" style="stop-color:#BF7330"/>
					<stop  offset="0.3033" style="stop-color:#C47E24"/>
					<stop  offset="0.3373" style="stop-color:#BF7935"/>
					<stop  offset="0.4039" style="stop-color:#B26C4F"/>
					<stop  offset="0.4955" style="stop-color:#9D5568"/>
					<stop  offset="0.5768" style="stop-color:#8A3978"/>
					<stop  offset="0.6545" style="stop-color:#79457E"/>
					<stop  offset="0.7568" style="stop-color:#644E84"/>
					<stop  offset="0.8517" style="stop-color:#525288"/>
					<stop  offset="0.9357" style="stop-color:#44538B"/>
					<stop  offset="1" style="stop-color:#3E538B"/>
				</linearGradient>
				<path class="st3" d="M12.67-0.17h66.91c8.26,0,15.01,6.76,15.01,15.01v66.91c0,8.26-6.76,15.01-15.01,15.01H12.67
					C4.42,96.76-2.34,90-2.34,81.74V14.84C-2.34,6.58,4.42-0.17,12.67-0.17z"/>
				<linearGradient id="SVGID_9_" gradientUnits="userSpaceOnUse" x1="14.3077" y1="71.63" x2="102.698" y2="6.795">
					<stop  offset="0" style="stop-color:#B24D3F"/>
					<stop  offset="0.0829" style="stop-color:#B5593D"/>
					<stop  offset="0.2366" style="stop-color:#BF7330"/>
					<stop  offset="0.3033" style="stop-color:#C47E24"/>
					<stop  offset="0.3373" style="stop-color:#BF7935"/>
					<stop  offset="0.4039" style="stop-color:#B26C4F"/>
					<stop  offset="0.4955" style="stop-color:#9D5568"/>
					<stop  offset="0.5768" style="stop-color:#8A3978"/>
					<stop  offset="0.6545" style="stop-color:#79457E"/>
					<stop  offset="0.7568" style="stop-color:#644E84"/>
					<stop  offset="0.8517" style="stop-color:#525288"/>
					<stop  offset="0.9357" style="stop-color:#44538B"/>
					<stop  offset="1" style="stop-color:#3E538B"/>
				</linearGradient>
				<path class="st4" d="M79.58,97.06H12.67c-8.44,0-15.31-6.87-15.31-15.31V14.84c0-8.44,6.87-15.31,15.31-15.31h66.91
					c8.44,0,15.31,6.87,15.31,15.31v66.91C94.89,90.19,88.02,97.06,79.58,97.06z M12.67,0.13c-8.11,0-14.71,6.6-14.71,14.71v66.91
					c0,8.11,6.6,14.71,14.71,14.71h66.91c8.11,0,14.71-6.6,14.71-14.71V14.84c0-8.11-6.6-14.71-14.71-14.71H12.67z"/>
			</g>
		</g>
		<g>
			<defs>
				<path id="SVGID_10_" d="M44.17,58.38v3.39c0,0.9,0.73,1.63,1.63,1.63c0.9,0,1.63-0.73,1.63-1.63v-3.39
					c1.29-0.65,2.16-1.97,2.16-3.33c0.01-2.04-1.64-3.71-3.68-3.72c-2.07-0.01-3.75,1.66-3.76,3.72
					C42.13,56.5,42.92,57.77,44.17,58.38z M45.89,52.46c1.41,0.01,2.55,1.16,2.54,2.58c0,1.14-0.9,2.09-1.79,2.43
					c-0.22,0.09-0.37,0.3-0.37,0.54v3.77c0,0.26-0.21,0.48-0.48,0.48c-0.26,0-0.48-0.21-0.48-0.48V58c0-0.24-0.15-0.46-0.38-0.54
					c-1.01-0.36-1.66-1.31-1.66-2.42C43.29,53.6,44.46,52.45,45.89,52.46z"/>
			</defs>
			<defs>
				<path id="SVGID_11_" d="M45.8,63.69c-1.06,0-1.93-0.86-1.93-1.93v-3.2c-1.26-0.69-2.04-2.02-2.04-3.52
					c0.01-2.22,1.83-4.02,4.05-4.02c0.01,0,0.01,0,0.02,0c2.21,0.01,3.99,1.82,3.98,4.02c0,1.42-0.84,2.78-2.16,3.51v3.21
					C47.72,62.83,46.86,63.69,45.8,63.69z M45.88,51.61c-1.89,0-3.43,1.53-3.44,3.42c0,1.33,0.72,2.51,1.87,3.07l0.17,0.08v3.57
					c0,0.73,0.59,1.32,1.32,1.32c0.73,0,1.32-0.59,1.32-1.32v-3.58l0.16-0.08c1.19-0.6,1.99-1.83,1.99-3.07
					c0.01-1.88-1.51-3.41-3.39-3.42C45.89,51.61,45.88,51.61,45.88,51.61z M45.8,62.54c-0.43,0-0.78-0.35-0.78-0.78V58
					c0-0.12-0.07-0.22-0.18-0.26c-1.13-0.4-1.86-1.46-1.86-2.7c0.01-1.6,1.31-2.89,2.92-2.88h0c1.57,0.01,2.84,1.3,2.83,2.88
					c0,1.28-1,2.33-1.98,2.7c-0.1,0.04-0.18,0.14-0.18,0.26v3.77C46.57,62.19,46.23,62.54,45.8,62.54z M45.88,52.76
					c-1.26,0-2.29,1.02-2.3,2.28c0,0.98,0.57,1.82,1.46,2.13c0.35,0.12,0.58,0.45,0.58,0.82v3.77c0,0.1,0.08,0.18,0.18,0.18
					s0.18-0.08,0.18-0.18V58c0-0.36,0.23-0.69,0.56-0.82c0.79-0.3,1.59-1.14,1.59-2.15c0.01-1.24-1-2.26-2.24-2.28
					C45.89,52.76,45.88,52.76,45.88,52.76z"/>
			</defs>
			<linearGradient id="SVGID_12_" gradientUnits="userSpaceOnUse" x1="18.4058" y1="77.2169" x2="106.796" y2="12.3819">
				<stop  offset="0" style="stop-color:#B24D3F"/>
				<stop  offset="0.0829" style="stop-color:#B5593D"/>
				<stop  offset="0.2366" style="stop-color:#BF7330"/>
				<stop  offset="0.3033" style="stop-color:#C47E24"/>
				<stop  offset="0.3373" style="stop-color:#BF7935"/>
				<stop  offset="0.4039" style="stop-color:#B26C4F"/>
				<stop  offset="0.4955" style="stop-color:#9D5568"/>
				<stop  offset="0.5768" style="stop-color:#8A3978"/>
				<stop  offset="0.6545" style="stop-color:#79457E"/>
				<stop  offset="0.7568" style="stop-color:#644E84"/>
				<stop  offset="0.8517" style="stop-color:#525288"/>
				<stop  offset="0.9357" style="stop-color:#44538B"/>
				<stop  offset="1" style="stop-color:#3E538B"/>
			</linearGradient>
			<use xlink:href="#SVGID_10_"  style="overflow:visible;fill:url(#SVGID_12_);"/>
			<linearGradient id="SVGID_13_" gradientUnits="userSpaceOnUse" x1="18.4064" y1="77.2177" x2="106.7966" y2="12.3826">
				<stop  offset="0" style="stop-color:#B24D3F"/>
				<stop  offset="0.0829" style="stop-color:#B5593D"/>
				<stop  offset="0.2366" style="stop-color:#BF7330"/>
				<stop  offset="0.3033" style="stop-color:#C47E24"/>
				<stop  offset="0.3373" style="stop-color:#BF7935"/>
				<stop  offset="0.4039" style="stop-color:#B26C4F"/>
				<stop  offset="0.4955" style="stop-color:#9D5568"/>
				<stop  offset="0.5768" style="stop-color:#8A3978"/>
				<stop  offset="0.6545" style="stop-color:#79457E"/>
				<stop  offset="0.7568" style="stop-color:#644E84"/>
				<stop  offset="0.8517" style="stop-color:#525288"/>
				<stop  offset="0.9357" style="stop-color:#44538B"/>
				<stop  offset="1" style="stop-color:#3E538B"/>
			</linearGradient>
			<use xlink:href="#SVGID_11_"  style="overflow:visible;fill:url(#SVGID_13_);"/>
			<clipPath id="SVGID_14_">
				<use xlink:href="#SVGID_10_"  style="overflow:visible;"/>
			</clipPath>
			<clipPath id="SVGID_15_" class="st5">
				<use xlink:href="#SVGID_11_"  style="overflow:visible;"/>
			</clipPath>
			<g class="st6">
				<linearGradient id="SVGID_16_" gradientUnits="userSpaceOnUse" x1="14.3077" y1="71.63" x2="102.698" y2="6.795">
					<stop  offset="0" style="stop-color:#B24D3F"/>
					<stop  offset="0.0829" style="stop-color:#B5593D"/>
					<stop  offset="0.2366" style="stop-color:#BF7330"/>
					<stop  offset="0.3033" style="stop-color:#C47E24"/>
					<stop  offset="0.3373" style="stop-color:#BF7935"/>
					<stop  offset="0.4039" style="stop-color:#B26C4F"/>
					<stop  offset="0.4955" style="stop-color:#9D5568"/>
					<stop  offset="0.5768" style="stop-color:#8A3978"/>
					<stop  offset="0.6545" style="stop-color:#79457E"/>
					<stop  offset="0.7568" style="stop-color:#644E84"/>
					<stop  offset="0.8517" style="stop-color:#525288"/>
					<stop  offset="0.9357" style="stop-color:#44538B"/>
					<stop  offset="1" style="stop-color:#3E538B"/>
				</linearGradient>
				<path class="st7" d="M12.67-0.17h66.91c8.26,0,15.01,6.76,15.01,15.01v66.91c0,8.26-6.76,15.01-15.01,15.01H12.67
					C4.42,96.76-2.34,90-2.34,81.74V14.84C-2.34,6.58,4.42-0.17,12.67-0.17z"/>
				<linearGradient id="SVGID_17_" gradientUnits="userSpaceOnUse" x1="14.3077" y1="71.63" x2="102.698" y2="6.795">
					<stop  offset="0" style="stop-color:#B24D3F"/>
					<stop  offset="0.0829" style="stop-color:#B5593D"/>
					<stop  offset="0.2366" style="stop-color:#BF7330"/>
					<stop  offset="0.3033" style="stop-color:#C47E24"/>
					<stop  offset="0.3373" style="stop-color:#BF7935"/>
					<stop  offset="0.4039" style="stop-color:#B26C4F"/>
					<stop  offset="0.4955" style="stop-color:#9D5568"/>
					<stop  offset="0.5768" style="stop-color:#8A3978"/>
					<stop  offset="0.6545" style="stop-color:#79457E"/>
					<stop  offset="0.7568" style="stop-color:#644E84"/>
					<stop  offset="0.8517" style="stop-color:#525288"/>
					<stop  offset="0.9357" style="stop-color:#44538B"/>
					<stop  offset="1" style="stop-color:#3E538B"/>
				</linearGradient>
				<path class="st8" d="M79.58,97.06H12.67c-8.44,0-15.31-6.87-15.31-15.31V14.84c0-8.44,6.87-15.31,15.31-15.31h66.91
					c8.44,0,15.31,6.87,15.31,15.31v66.91C94.89,90.19,88.02,97.06,79.58,97.06z M12.67,0.13c-8.11,0-14.71,6.6-14.71,14.71v66.91
					c0,8.11,6.6,14.71,14.71,14.71h66.91c8.11,0,14.71-6.6,14.71-14.71V14.84c0-8.11-6.6-14.71-14.71-14.71H12.67z"/>
			</g>
		</g>
	</g>
</g>
</svg>
