<?xml version="1.0" encoding="utf-8"?>
<!-- Generator: Adobe Illustrator 23.0.2, SVG Export Plug-In . SVG Version: 6.00 Build 0)  -->
<svg version="1.1" id="Capa_1" xmlns="http://www.w3.org/2000/svg" xmlns:xlink="http://www.w3.org/1999/xlink" x="0px" y="0px"
	 viewBox="0 0 92.02 94.19" style="enable-background:new 0 0 92.02 94.19;" xml:space="preserve">
<style type="text/css">
	.st0{fill:none;stroke:url(#SVGID_1_);stroke-width:1.5562;stroke-miterlimit:10;}
	.st1{clip-path:url(#SVGID_3_);fill:url(#SVGID_4_);}
</style>
<g>
	<linearGradient id="SVGID_1_" gradientUnits="userSpaceOnUse" x1="1.2463" y1="46.986" x2="90.985" y2="46.986">
		<stop  offset="0" style="stop-color:#B24D3F"/>
		<stop  offset="0.0829" style="stop-color:#B5593D"/>
		<stop  offset="0.2366" style="stop-color:#BF7330"/>
		<stop  offset="0.3033" style="stop-color:#C47E24"/>
		<stop  offset="0.3373" style="stop-color:#BF7935"/>
		<stop  offset="0.4039" style="stop-color:#B26C4F"/>
		<stop  offset="0.4955" style="stop-color:#9D5568"/>
		<stop  offset="0.5768" style="stop-color:#8A3978"/>
		<stop  offset="0.6545" style="stop-color:#79457E"/>
		<stop  offset="0.7568" style="stop-color:#644E84"/>
		<stop  offset="0.8517" style="stop-color:#525288"/>
		<stop  offset="0.9357" style="stop-color:#44538B"/>
		<stop  offset="1" style="stop-color:#3E538B"/>
	</linearGradient>
	<circle class="st0" cx="46.12" cy="46.99" r="44.09"/>
	<g>
		<defs>
			<path id="SVGID_2_" d="M74.4,41.57c0.01-0.04,0.01-0.08,0.01-0.12c0-0.05,0-0.09,0-0.14c0-0.04-0.01-0.08-0.02-0.12
				c-0.01-0.05-0.02-0.09-0.04-0.13c-0.01-0.02-0.01-0.05-0.02-0.07c-0.01-0.02-0.02-0.03-0.03-0.04s-0.01-0.03-0.02-0.05
				l-9.49-15.19c-0.04-0.07-0.09-0.13-0.15-0.19c0,0,0,0,0,0c-0.08-0.08-0.18-0.13-0.28-0.18c-0.01-0.01-0.02-0.02-0.04-0.02
				c-0.01,0-0.02,0-0.03,0c-0.1-0.03-0.19-0.05-0.3-0.05H27.9c-0.1,0-0.2,0.02-0.29,0.05c-0.01,0-0.02,0-0.03,0
				c-0.01,0-0.02,0.02-0.04,0.02c-0.1,0.04-0.19,0.09-0.27,0.17c0,0-0.01,0.01-0.02,0.01c-0.06,0.06-0.11,0.12-0.15,0.19L17.61,40.9
				c-0.01,0.02-0.01,0.03-0.02,0.05c-0.01,0.02-0.02,0.03-0.03,0.04c-0.01,0.02-0.01,0.05-0.02,0.07c-0.02,0.04-0.03,0.09-0.04,0.13
				c-0.01,0.04-0.02,0.08-0.02,0.12c-0.01,0.05-0.01,0.09-0.01,0.14c0,0.04,0.01,0.08,0.01,0.12c0.01,0.05,0.02,0.09,0.04,0.13
				c0.01,0.04,0.03,0.07,0.04,0.11c0.01,0.02,0.01,0.04,0.02,0.05c0.02,0.03,0.04,0.05,0.06,0.07c0.01,0.02,0.02,0.04,0.04,0.06
				l27.52,34.16c0,0,0,0,0.01,0.01l0,0.01c0,0,0.01,0,0.01,0.01c0.08,0.09,0.17,0.17,0.28,0.22c0.03,0.02,0.06,0.03,0.08,0.04
				c0.11,0.05,0.24,0.08,0.36,0.08c0.11,0,0.22-0.02,0.33-0.06c0.02-0.01,0.03-0.02,0.04-0.03c0.05-0.02,0.09-0.05,0.13-0.08
				c0.07-0.05,0.14-0.09,0.2-0.15c0.01-0.01,0.03-0.02,0.05-0.04L74.21,42c0.02-0.02,0.02-0.04,0.04-0.06
				c0.02-0.03,0.04-0.05,0.06-0.07c0.01-0.02,0.01-0.04,0.02-0.05c0.02-0.04,0.03-0.07,0.04-0.11
				C74.38,41.66,74.39,41.61,74.4,41.57z M47.94,27.17h14.68L58,39.55L47.94,27.17z M56.29,40.46H35.59l10.35-12.73L56.29,40.46z
				 M33.82,39.63l-4.56-12.47h14.69L33.82,39.63z M56.95,42.36L45.77,72.36L34.81,42.36H56.95z M64.19,28.36l7.56,12.1H59.69
				L64.19,28.36z M27.68,28.37l4.42,12.09H20.12L27.68,28.37z M32.79,42.36l10.29,28.16L20.39,42.36H32.79z M48.22,71.24
				l10.76-28.89h12.51L48.22,71.24z"/>
		</defs>
		<clipPath id="SVGID_3_">
			<use xlink:href="#SVGID_2_"  style="overflow:visible;"/>
		</clipPath>
		
			<linearGradient id="SVGID_4_" gradientUnits="userSpaceOnUse" x1="1080.7172" y1="-543.1743" x2="1182.6929" y2="-543.1743" gradientTransform="matrix(-1 0 0 -1 1175.6508 -495.983)">
			<stop  offset="0" style="stop-color:#3E538B"/>
			<stop  offset="0.0643" style="stop-color:#44538B"/>
			<stop  offset="0.1483" style="stop-color:#525288"/>
			<stop  offset="0.2432" style="stop-color:#644E84"/>
			<stop  offset="0.3455" style="stop-color:#79457E"/>
			<stop  offset="0.4232" style="stop-color:#8A3978"/>
			<stop  offset="0.5045" style="stop-color:#9D5568"/>
			<stop  offset="0.5961" style="stop-color:#B26C4F"/>
			<stop  offset="0.6627" style="stop-color:#BF7935"/>
			<stop  offset="0.6967" style="stop-color:#C47E24"/>
			<stop  offset="0.7634" style="stop-color:#BF7330"/>
			<stop  offset="0.9171" style="stop-color:#B5593D"/>
			<stop  offset="1" style="stop-color:#B24D3F"/>
		</linearGradient>
		<path class="st1" d="M8.75-3.8h70.39c8.69,0,15.79,7.11,15.79,15.79v70.39c0,8.69-7.11,15.79-15.79,15.79H8.75
			c-8.69,0-15.79-7.11-15.79-15.79V12C-7.04,3.31,0.06-3.8,8.75-3.8z"/>
	</g>
</g>
</svg>
