<svg xmlns="http://www.w3.org/2000/svg" width="34" height="34" viewBox="0 0 34 34">
    <defs>
        <linearGradient id="a" x1="88.291%" x2="-1.848%" y1="4.545%" y2="78.482%">
            <stop offset=".066%" stop-color="#3963A5"/>
            <stop offset="7.043%" stop-color="#4163A3"/>
            <stop offset="16.16%" stop-color="#51619F"/>
            <stop offset="26.47%" stop-color="#645C98"/>
            <stop offset="37.66%" stop-color="#784F8C"/>
            <stop offset="49.43%" stop-color="#8E2C79"/>
            <stop offset="51.6%" stop-color="#921974"/>
            <stop offset="66.37%" stop-color="#A94A68"/>
            <stop offset="82.39%" stop-color="#C06550"/>
            <stop offset="94.04%" stop-color="#CD743A"/>
            <stop offset="100%" stop-color="#D2782C"/>
        </linearGradient>
        <linearGradient id="b" x1="86.048%" x2="13.952%" y1="13.611%" y2="86.379%">
            <stop offset=".066%" stop-color="#3963A5"/>
            <stop offset="7.043%" stop-color="#4163A3"/>
            <stop offset="16.16%" stop-color="#51619F"/>
            <stop offset="26.47%" stop-color="#645C98"/>
            <stop offset="37.66%" stop-color="#784F8C"/>
            <stop offset="49.43%" stop-color="#8E2C79"/>
            <stop offset="51.6%" stop-color="#921974"/>
            <stop offset="66.37%" stop-color="#A94A68"/>
            <stop offset="82.39%" stop-color="#C06550"/>
            <stop offset="94.04%" stop-color="#CD743A"/>
            <stop offset="100%" stop-color="#D2782C"/>
        </linearGradient>
    </defs>
    <g fill="none" fill-rule="evenodd" transform="translate(1 1)">
        <path stroke="url(#a)" d="M12.441 23.758c7.205 0 11.152-5.974 11.152-11.152 0-.174 0-.34-.01-.504a7.943 7.943 0 0 0 1.959-2.027 7.886 7.886 0 0 1-2.25.62 3.934 3.934 0 0 0 1.726-2.171c-.756.446-1.6.775-2.492.95a3.92 3.92 0 0 0-6.778 2.676c0 .31.039.611.097.892A11.138 11.138 0 0 1 7.767 8.95a3.886 3.886 0 0 0-.533 1.969c0 1.357.688 2.56 1.745 3.258a3.8 3.8 0 0 1-1.774-.495v.049c0 1.9 1.348 3.481 3.142 3.84-.33.087-.68.136-1.038.136-.252 0-.494-.03-.737-.068a3.93 3.93 0 0 0 3.666 2.725A7.89 7.89 0 0 1 7.37 22.04c-.32 0-.63-.02-.931-.058a10.939 10.939 0 0 0 6.002 1.775"/>
        <circle cx="15.981" cy="16" r="15.971" stroke="url(#b)"/>
    </g>
</svg>
