<svg xmlns="http://www.w3.org/2000/svg" width="32" height="32" viewBox="0 0 32 32">
    <defs>
        <linearGradient id="a" x1="-17.114%" x2="107.666%" y1="50.004%" y2="50.004%">
            <stop offset="0%" stop-color="#BD6044"/>
            <stop offset="8.822%" stop-color="#C16A3F"/>
            <stop offset="25.19%" stop-color="#CB8125"/>
            <stop offset="30.33%" stop-color="#CE880A"/>
            <stop offset="33.29%" stop-color="#CA842B"/>
            <stop offset="39.09%" stop-color="#BF784B"/>
            <stop offset="47.15%" stop-color="#AD6368"/>
            <stop offset="57.09%" stop-color="#953D7F"/>
            <stop offset="57.68%" stop-color="#943A80"/>
            <stop offset="57.94%" stop-color="#933B80"/>
            <stop offset="67.97%" stop-color="#7B4C89"/>
            <stop offset="77.5%" stop-color="#67548F"/>
            <stop offset="86.28%" stop-color="#555792"/>
            <stop offset="94.06%" stop-color="#475894"/>
            <stop offset="100%" stop-color="#415895"/>
        </linearGradient>
        <linearGradient id="b" x1="-82.405%" x2="165.148%" y1="49.989%" y2="49.989%">
            <stop offset="0%" stop-color="#BD6044"/>
            <stop offset="8.822%" stop-color="#C16A3F"/>
            <stop offset="25.19%" stop-color="#CB8125"/>
            <stop offset="30.33%" stop-color="#CE880A"/>
            <stop offset="33.29%" stop-color="#CA842B"/>
            <stop offset="39.09%" stop-color="#BF784B"/>
            <stop offset="47.15%" stop-color="#AD6368"/>
            <stop offset="57.09%" stop-color="#953D7F"/>
            <stop offset="57.68%" stop-color="#943A80"/>
            <stop offset="57.94%" stop-color="#933B80"/>
            <stop offset="67.97%" stop-color="#7B4C89"/>
            <stop offset="77.5%" stop-color="#67548F"/>
            <stop offset="86.28%" stop-color="#555792"/>
            <stop offset="94.06%" stop-color="#475894"/>
            <stop offset="100%" stop-color="#415895"/>
        </linearGradient>
        <linearGradient id="c" x1="-245.365%" x2="298.67%" y1="49.963%" y2="49.963%">
            <stop offset="0%" stop-color="#BD6044"/>
            <stop offset="8.822%" stop-color="#C16A3F"/>
            <stop offset="25.19%" stop-color="#CB8125"/>
            <stop offset="30.33%" stop-color="#CE880A"/>
            <stop offset="33.29%" stop-color="#CA842B"/>
            <stop offset="39.09%" stop-color="#BF784B"/>
            <stop offset="47.15%" stop-color="#AD6368"/>
            <stop offset="57.09%" stop-color="#953D7F"/>
            <stop offset="57.68%" stop-color="#943A80"/>
            <stop offset="57.94%" stop-color="#933B80"/>
            <stop offset="67.97%" stop-color="#7B4C89"/>
            <stop offset="77.5%" stop-color="#67548F"/>
            <stop offset="86.28%" stop-color="#555792"/>
            <stop offset="94.06%" stop-color="#475894"/>
            <stop offset="100%" stop-color="#415895"/>
        </linearGradient>
    </defs>
    <g fill="none" fill-rule="nonzero">
        <path fill="url(#a)" d="M27.063 4.48C23.997 1.517 19.953-.058 15.674.013 6.911.179-.096 7.469.051 16.263c.147 8.703 7.282 15.692 15.962 15.692h.249c8.789-.147 15.821-7.443 15.674-16.256A15.901 15.901 0 0 0 27.063 4.48zM16.249 31.046C7.971 31.194 1.1 24.538.96 16.25.817 7.955 7.428 1.082 15.692.922h.3A14.91 14.91 0 0 1 26.43 5.139a14.954 14.954 0 0 1 4.593 10.586c.147 8.3-6.483 15.18-14.774 15.321z"/>
        <path fill="url(#b)" d="M23.703 14.022c-.97-4.025-4.803-6.54-8.91-5.856a7.616 7.616 0 0 0-5.672 4.276c-1.099 2.29-1.028 4.87.198 7.084.032.064.045.084.006.18-.293.85-.58 1.708-.875 2.579l-.613 1.817.907-.23c.07-.02.121-.032.179-.045l.99-.313c.869-.276 1.737-.557 2.65-.826 1.566.78 3.233 1.024 4.97.73 2.07-.352 3.928-1.581 5.103-3.373 1.17-1.792 1.559-3.987 1.067-6.023zm-1.827 5.517c-1.04 1.581-2.676 2.663-4.503 2.976-1.558.263-3.002.051-4.413-.646a1.017 1.017 0 0 0-.716-.051c-.875.268-1.743.55-2.612.825l-.39.122.064-.186c.294-.87.581-1.728.875-2.579.115-.333.09-.62-.07-.915-1.08-1.952-1.143-4.224-.172-6.247.977-2.028 2.797-3.404 5.007-3.77.403-.07.799-.102 1.195-.102a6.845 6.845 0 0 1 6.687 5.274c.428 1.786.083 3.718-.952 5.3z"/>
        <path fill="url(#c)" d="M13.873 12.486c-.351-.076-.594.07-.805.32-.581.679-.677 1.44-.325 2.234.217.493.523.954.836 1.395.99 1.395 2.319 2.298 3.98 2.714.364.09.715.096 1.079 0 .722-.192 1.156-.672 1.213-1.402.007-.121-.057-.313-.146-.365-.473-.256-.958-.473-1.444-.704-.185-.083-.32-.038-.44.128-.16.218-.34.416-.512.628-.095.121-.21.16-.364.096-1.06-.416-1.871-1.12-2.459-2.1-.09-.153-.07-.268.045-.39s.23-.256.332-.39c.16-.205.192-.41.07-.66-.172-.358-.325-.73-.466-1.1-.109-.295-.262-.493-.594-.404z"/>
    </g>
</svg>
