<svg xmlns="http://www.w3.org/2000/svg" width="32" height="32" viewBox="0 0 32 32">
    <defs>
        <linearGradient id="a" x1="-32.5%" x2="117.89%" y1="49.99%" y2="49.99%">
            <stop offset="0%" stop-color="#BD6044"/>
            <stop offset="8.822%" stop-color="#C16A3F"/>
            <stop offset="25.19%" stop-color="#CB8125"/>
            <stop offset="30.33%" stop-color="#CE880A"/>
            <stop offset="33.29%" stop-color="#CA842B"/>
            <stop offset="39.09%" stop-color="#BF784B"/>
            <stop offset="47.15%" stop-color="#AD6368"/>
            <stop offset="57.09%" stop-color="#953D7F"/>
            <stop offset="57.68%" stop-color="#943A80"/>
            <stop offset="57.94%" stop-color="#933B80"/>
            <stop offset="67.97%" stop-color="#7B4C89"/>
            <stop offset="77.5%" stop-color="#67548F"/>
            <stop offset="86.28%" stop-color="#555792"/>
            <stop offset="94.06%" stop-color="#475894"/>
            <stop offset="100%" stop-color="#415895"/>
        </linearGradient>
        <linearGradient id="b" x1="-542.341%" x2="696.71%" y1="50.091%" y2="50.091%">
            <stop offset="0%" stop-color="#BD6044"/>
            <stop offset="8.822%" stop-color="#C16A3F"/>
            <stop offset="25.19%" stop-color="#CB8125"/>
            <stop offset="30.33%" stop-color="#CE880A"/>
            <stop offset="33.29%" stop-color="#CA842B"/>
            <stop offset="39.09%" stop-color="#BF784B"/>
            <stop offset="47.15%" stop-color="#AD6368"/>
            <stop offset="57.09%" stop-color="#953D7F"/>
            <stop offset="57.68%" stop-color="#943A80"/>
            <stop offset="57.94%" stop-color="#933B80"/>
            <stop offset="67.97%" stop-color="#7B4C89"/>
            <stop offset="77.5%" stop-color="#67548F"/>
            <stop offset="86.28%" stop-color="#555792"/>
            <stop offset="94.06%" stop-color="#475894"/>
            <stop offset="100%" stop-color="#415895"/>
        </linearGradient>
        <linearGradient id="c" x1="-980.593%" x2="661.34%" y1="49.941%" y2="49.941%">
            <stop offset="0%" stop-color="#BD6044"/>
            <stop offset="8.822%" stop-color="#C16A3F"/>
            <stop offset="25.19%" stop-color="#CB8125"/>
            <stop offset="30.33%" stop-color="#CE880A"/>
            <stop offset="33.29%" stop-color="#CA842B"/>
            <stop offset="39.09%" stop-color="#BF784B"/>
            <stop offset="47.15%" stop-color="#AD6368"/>
            <stop offset="57.09%" stop-color="#953D7F"/>
            <stop offset="57.68%" stop-color="#943A80"/>
            <stop offset="57.94%" stop-color="#933B80"/>
            <stop offset="67.97%" stop-color="#7B4C89"/>
            <stop offset="77.5%" stop-color="#67548F"/>
            <stop offset="86.28%" stop-color="#555792"/>
            <stop offset="94.06%" stop-color="#475894"/>
            <stop offset="100%" stop-color="#415895"/>
        </linearGradient>
        <linearGradient id="d" x1="-109.793%" x2="181.246%" y1="50.053%" y2="50.053%">
            <stop offset="0%" stop-color="#BD6044"/>
            <stop offset="8.822%" stop-color="#C16A3F"/>
            <stop offset="25.19%" stop-color="#CB8125"/>
            <stop offset="30.33%" stop-color="#CE880A"/>
            <stop offset="33.29%" stop-color="#CA842B"/>
            <stop offset="39.09%" stop-color="#BF784B"/>
            <stop offset="47.15%" stop-color="#AD6368"/>
            <stop offset="57.09%" stop-color="#953D7F"/>
            <stop offset="57.68%" stop-color="#943A80"/>
            <stop offset="57.94%" stop-color="#933B80"/>
            <stop offset="67.97%" stop-color="#7B4C89"/>
            <stop offset="77.5%" stop-color="#67548F"/>
            <stop offset="86.28%" stop-color="#555792"/>
            <stop offset="94.06%" stop-color="#475894"/>
            <stop offset="100%" stop-color="#415895"/>
        </linearGradient>
        <linearGradient id="e" x1="-3002.817%" x2="1597.16%" y1="49.967%" y2="49.967%">
            <stop offset="0%" stop-color="#BD6044"/>
            <stop offset="8.822%" stop-color="#C16A3F"/>
            <stop offset="25.19%" stop-color="#CB8125"/>
            <stop offset="30.33%" stop-color="#CE880A"/>
            <stop offset="33.29%" stop-color="#CA842B"/>
            <stop offset="39.09%" stop-color="#BF784B"/>
            <stop offset="47.15%" stop-color="#AD6368"/>
            <stop offset="57.09%" stop-color="#953D7F"/>
            <stop offset="57.68%" stop-color="#943A80"/>
            <stop offset="57.94%" stop-color="#933B80"/>
            <stop offset="67.97%" stop-color="#7B4C89"/>
            <stop offset="77.5%" stop-color="#67548F"/>
            <stop offset="86.28%" stop-color="#555792"/>
            <stop offset="94.06%" stop-color="#475894"/>
            <stop offset="100%" stop-color="#415895"/>
        </linearGradient>
        <linearGradient id="f" x1="-2938.98%" x2="2163.327%" y1="49.976%" y2="49.976%">
            <stop offset="0%" stop-color="#BD6044"/>
            <stop offset="8.822%" stop-color="#C16A3F"/>
            <stop offset="25.19%" stop-color="#CB8125"/>
            <stop offset="30.33%" stop-color="#CE880A"/>
            <stop offset="33.29%" stop-color="#CA842B"/>
            <stop offset="39.09%" stop-color="#BF784B"/>
            <stop offset="47.15%" stop-color="#AD6368"/>
            <stop offset="57.09%" stop-color="#953D7F"/>
            <stop offset="57.68%" stop-color="#943A80"/>
            <stop offset="57.94%" stop-color="#933B80"/>
            <stop offset="67.97%" stop-color="#7B4C89"/>
            <stop offset="77.5%" stop-color="#67548F"/>
            <stop offset="86.28%" stop-color="#555792"/>
            <stop offset="94.06%" stop-color="#475894"/>
            <stop offset="100%" stop-color="#415895"/>
        </linearGradient>
        <linearGradient id="g" x1="-829.001%" x2="770.204%" y1="50.032%" y2="50.032%">
            <stop offset="0%" stop-color="#BD6044"/>
            <stop offset="8.822%" stop-color="#C16A3F"/>
            <stop offset="25.19%" stop-color="#CB8125"/>
            <stop offset="30.33%" stop-color="#CE880A"/>
            <stop offset="33.29%" stop-color="#CA842B"/>
            <stop offset="39.09%" stop-color="#BF784B"/>
            <stop offset="47.15%" stop-color="#AD6368"/>
            <stop offset="57.09%" stop-color="#953D7F"/>
            <stop offset="57.68%" stop-color="#943A80"/>
            <stop offset="57.94%" stop-color="#933B80"/>
            <stop offset="67.97%" stop-color="#7B4C89"/>
            <stop offset="77.5%" stop-color="#67548F"/>
            <stop offset="86.28%" stop-color="#555792"/>
            <stop offset="94.06%" stop-color="#475894"/>
            <stop offset="100%" stop-color="#415895"/>
        </linearGradient>
    </defs>
    <g fill="none" fill-rule="nonzero">
        <path fill="url(#a)" d="M19.226.366c-.45-.092-.908-.144-1.365-.196L17.215.09A1.444 1.444 0 0 1 17.05.06L15.164.026l-.496.059c-.32.04-.64.072-.954.13C8 1.17 3.854 4.33 1.391 9.6.653 11.174.216 12.937.085 14.844a.382.382 0 0 1-.026.124l-.033.196.007 1.757.052.43c.04.32.078.64.124.96.77 4.892 3.285 8.7 7.478 11.325a15.281 15.281 0 0 0 8.228 2.357c.536 0 1.071-.026 1.62-.078 7.072-.666 12.91-6.021 14.19-13.015C33.288 10.397 27.678 2.09 19.227.366zM30.831 18.73c-1.208 6.602-6.713 11.65-13.381 12.277-3.377.32-6.498-.405-9.28-2.148-3.958-2.475-6.328-6.074-7.06-10.69a44.464 44.464 0 0 1-.124-.922l-.052-.385.006-1.685c.02-.091.04-.183.046-.274.124-1.79.536-3.448 1.221-4.918 2.332-4.99 6.25-7.974 11.657-8.875.3-.052.608-.085.908-.124l.418-.052 1.666.006c.078.02.156.033.235.046.222.033.444.052.666.078.43.053.862.098 1.286.183C27.011 2.88 32.3 10.717 30.831 18.73z"/>
        <path fill="url(#b)" d="M12.656 9.058c-.045-.157-.072-.229-.091-.307-.21-.77-.412-1.541-.634-2.305-.026-.098-.143-.242-.222-.248-.333-.027-.666-.014-1.031-.014.039.125.065.223.098.314.241.699.47 1.398.718 2.09.398 1.11.68 2.233.581 3.435-.04.45-.006.908-.006 1.365 0 .085.013.176.02.254h1.129v-.352c0-.79-.007-1.574.006-2.364 0-.196.027-.405.085-.595.288-.966.582-1.933.875-2.9.125-.404.242-.809.373-1.253-.32 0-.601.013-.882-.007-.222-.02-.294.079-.34.275-.215.855-.444 1.691-.679 2.612z"/>
        <path fill="url(#c)" d="M18.364 8.098c-.006.098-.02.157-.02.215 0 1.424 0 2.848.007 4.271 0 .23.033.464.078.693.06.274.255.47.53.45.28-.02.561-.124.822-.228.157-.066.281-.216.444-.353.013.19.02.346.033.516h1.012v-.372-2.756c0-.718.007-1.437-.006-2.155 0-.098-.079-.268-.13-.275-.288-.026-.576-.013-.89-.013v1.953c0 .718.007 1.437 0 2.155 0 .274-.358.634-.606.608-.36-.04-.255-.34-.255-.549-.013-1.26-.007-2.527-.007-3.788 0-.117-.013-.235-.02-.366-.345-.006-.652-.006-.992-.006z"/>
        <path fill="url(#d)" d="M16.464 3.762c-.02-.595-.111-1.189-.216-1.77-.17-.934-.849-1.626-1.704-1.75A9.625 9.625 0 0 0 13.25.118C10.965.065 8.686.007 6.4.007c-1.313 0-2.625.091-3.938.176C1.222.26.502.843.255 1.927c-.066.287-.13.574-.144.862C.059 4.219 0 5.656 0 7.086c0 .712.078 1.43.183 2.142.202 1.384.934 2.037 2.331 2.11 1.907.097 3.814.169 5.924.254 1.86-.098 3.918-.183 5.975-.314.856-.058 1.424-.574 1.724-1.371.085-.235.137-.483.176-.731.281-1.796.203-3.605.15-5.414zM4.656 3.076H3.513V9.43h-1.09V3.102h-1.17V2.096h3.403v.98zM7.673 9.43h-.927c-.013-.176-.02-.346-.033-.555-.143.124-.241.248-.365.314-.235.124-.477.274-.738.313-.386.065-.634-.157-.699-.542a2.99 2.99 0 0 1-.052-.542c-.007-1.417 0-2.828 0-4.245 0-.059.006-.117.013-.202h.934c.006.124.013.241.013.359 0 1.24-.007 2.488.006 3.729 0 .222-.091.529.275.561.267.027.627-.34.627-.627.006-1.103 0-2.2 0-3.304v-.712h.94c.006 1.816.006 3.625.006 5.453zm3.782-1.006c-.013.425-.085.85-.549 1.026-.47.183-.842-.052-1.169-.366-.039-.033-.072-.065-.15-.137-.013.176-.026.32-.04.477H8.62v-7.34h.94v2.37c.144-.124.236-.21.334-.28.313-.243.653-.38 1.045-.216.372.156.49.502.516.862.032.574.045 1.149.045 1.724-.013.633-.02 1.26-.045 1.88zm1.9 1.032c-.594-.15-1.012-.646-1.032-1.338-.032-.947-.039-1.9 0-2.848.033-.836.627-1.371 1.437-1.378.816-.006 1.391.503 1.45 1.352.039.53.006 1.065.006 1.626H13.29c0 .464-.026.901.006 1.339.026.307.248.444.536.418.287-.026.385-.235.411-.483.02-.177.007-.36.007-.582.307 0 .574-.006.842.007.059.007.15.098.157.157.176 1.188-.745 2.024-1.894 1.73z" transform="translate(7.771 14.563)"/>
        <path fill="url(#e)" d="M14.21 5.113c-.039-.215-.202-.34-.437-.34s-.405.105-.444.327c-.052.307-.059.627-.085.947h1.045c-.026-.326-.026-.633-.078-.934z" transform="translate(7.771 14.563)"/>
        <path fill="url(#f)" d="M10.436 5.055c-.072-.229-.248-.32-.477-.268-.222.052-.418.137-.405.431.013.496.007.993.007 1.482v1.424c0 .3.15.464.437.496.255.027.418-.11.477-.398.013-.072.02-.144.02-.209V5.375a.793.793 0 0 0-.06-.32z" transform="translate(7.771 14.563)"/>
        <path fill="url(#g)" d="M17.56 10.9c-.025-.542-.012-1.091-.084-1.633-.105-.784-.673-1.247-1.43-1.254-.745 0-1.365.45-1.424 1.215a23.22 23.22 0 0 0-.02 3.232c.06.836.667 1.3 1.45 1.293.784-.006 1.326-.47 1.437-1.312.065-.51.013-1.025.013-1.541h.059zM16.497 12.1c0 .118-.013.242-.045.36-.053.215-.19.346-.431.346-.249-.007-.366-.164-.412-.373-.039-.196-.032-.398-.032-.6-.007-.7-.007-1.392 0-2.09 0-.17 0-.36.078-.497.072-.124.248-.26.379-.26.13 0 .294.136.385.26.072.105.072.268.072.405.006.412 0 .83 0 1.241.006.405.013.803.006 1.208z"/>
    </g>
</svg>
